{"glyphs":{"0":{"ha":789,"x_min":28,"x_max":761,"o":"m 761 414 l 750 522 l 725 589 l 703 639 l 638 721 l 590 751 q 553 771 568 763 q 531 783 539 779 l 479 793 q 414 799 453 799 l 354 785 l 317 769 l 285 733 l 264 690 l 260 660 l 258 636 l 258 611 l 264 575 l 342 603 l 415 621 q 486 614 461 621 l 532 600 l 581 564 l 611 535 l 633 489 l 649 442 l 650 392 l 646 343 l 628 297 l 603 256 l 563 222 q 550 214 556 215 l 515 199 l 482 194 l 451 192 l 383 197 l 340 214 l 294 242 l 260 279 l 225 326 q 204 378 214 353 q 188 428 194 404 l 182 460 l 182 519 l 183 553 l 204 621 l 233 682 l 247 704 l 194 686 l 146 661 l 107 622 l 74 578 l 53 529 q 33 469 47 521 l 28 401 l 28 347 l 36 285 l 54 226 l 82 172 l 119 119 l 158 85 l 224 40 l 290 18 l 368 4 l 438 13 l 501 28 l 572 63 l 622 97 l 660 138 l 696 182 l 721 235 l 747 301 l 761 414 z "},"1":{"ha":469,"x_min":25,"x_max":443,"o":"m 443 50 l 393 54 l 376 63 l 364 78 l 354 829 l 313 800 l 272 778 l 160 735 l 100 719 l 26 706 l 75 701 l 106 678 l 111 653 q 113 641 113 646 q 114 631 114 636 l 115 143 l 107 92 l 92 61 l 54 49 l 25 49 l 25 3 l 442 3 l 443 50 z "},"2":{"ha":742,"x_min":28,"x_max":713,"o":"m 713 3 l 713 303 q 676 253 685 261 q 625 226 660 236 l 364 228 l 457 281 l 551 344 l 628 414 l 663 456 l 688 494 l 703 540 l 711 583 l 700 642 l 682 701 l 650 736 l 613 769 l 556 793 l 501 810 l 442 818 l 372 819 l 253 807 l 138 775 l 99 747 l 68 718 q 60 699 63 707 q 57 686 58 692 l 56 657 l 67 635 l 83 615 l 101 611 l 119 608 q 134 610 126 610 q 150 611 142 611 l 197 638 l 244 675 l 275 704 l 311 732 l 343 740 q 388 744 360 744 q 419 724 417 726 l 449 692 q 476 558 476 621 l 469 507 l 454 453 l 424 396 l 394 351 l 353 310 l 307 268 l 242 226 l 182 196 q 104 168 115 169 l 28 150 l 28 3 l 713 3 z "},"3":{"ha":628,"x_min":25,"x_max":601,"o":"m 601 632 l 588 688 l 572 728 l 539 757 l 503 785 l 449 804 l 399 818 l 282 822 l 183 808 l 136 792 l 100 775 l 53 728 q 37 703 43 714 q 25 685 31 693 l 25 672 l 26 643 l 38 617 l 63 597 l 97 589 l 131 603 l 165 632 l 192 679 l 228 718 l 267 732 l 306 733 l 338 714 l 368 683 l 379 643 q 381 631 381 638 q 382 613 382 624 l 382 578 l 361 521 l 333 464 l 283 406 l 236 353 l 185 311 l 133 272 l 154 272 l 203 269 l 257 260 l 294 236 l 326 208 l 347 165 q 356 140 353 151 q 363 119 360 129 l 360 58 l 353 3 l 333 -53 l 308 -115 l 268 -186 l 225 -257 l 274 -236 l 322 -214 l 365 -183 l 414 -147 l 454 -107 l 490 -64 l 547 29 l 564 79 l 575 131 l 574 183 l 568 233 l 547 281 l 519 331 l 475 374 l 421 417 l 471 440 l 514 467 l 547 503 l 575 542 q 583 562 581 553 q 589 578 586 571 q 590 583 589 582 l 601 632 z "},"4":{"ha":832,"x_min":24,"x_max":806,"o":"m 806 164 l 806 426 l 625 426 l 624 1067 l 592 1035 l 553 1007 l 429 954 l 311 921 q 349 900 332 913 l 375 850 l 383 788 l 385 426 l 167 426 l 247 672 l 186 672 l 24 249 l 385 249 l 385 133 q 354 76 363 85 q 297 49 336 58 l 297 -1 l 717 -1 l 719 50 l 679 51 l 649 60 l 632 88 q 631 96 631 89 l 625 133 l 625 249 l 706 250 l 731 246 l 756 239 l 781 210 l 806 164 z "},"5":{"ha":588,"x_min":26,"x_max":561,"o":"m 561 204 l 554 269 l 543 332 l 519 379 l 497 419 l 461 456 l 425 482 l 382 499 q 335 514 375 503 l 243 515 l 188 503 l 142 490 l 139 735 l 204 732 l 271 721 l 304 706 l 329 690 l 344 672 l 361 658 l 381 647 l 411 643 l 451 646 l 485 654 l 514 675 l 535 704 l 538 736 l 529 797 q 494 783 507 788 q 476 778 482 779 l 439 774 l 390 775 q 351 782 368 779 q 324 786 335 785 l 222 799 l 86 797 l 86 319 q 127 324 110 322 q 157 326 144 326 l 208 326 l 251 310 l 292 289 q 315 254 301 279 l 335 218 l 340 182 q 342 167 342 172 q 343 158 343 161 l 343 125 l 331 72 l 314 22 l 283 -29 l 250 -82 l 204 -129 l 154 -178 l 92 -218 l 26 -254 l 110 -244 l 196 -226 l 264 -200 l 322 -174 l 382 -132 l 429 -93 l 467 -49 l 504 1 l 528 49 l 546 97 l 554 147 q 559 183 557 168 q 561 204 561 197 z "},"6":{"ha":776,"x_min":26,"x_max":750,"o":"m 750 382 l 740 453 l 725 514 l 694 561 l 661 604 q 621 629 628 626 q 571 650 588 643 l 528 657 q 513 659 519 658 q 503 660 507 660 l 474 660 l 422 647 l 379 636 l 342 610 l 307 581 q 285 542 289 554 l 271 500 l 272 460 l 285 397 l 304 436 l 335 474 l 375 494 q 404 503 390 500 q 429 510 418 507 l 476 508 l 524 499 l 569 469 l 607 439 l 628 382 q 632 349 631 363 q 635 326 633 335 l 626 272 l 614 229 q 581 188 590 193 l 558 169 l 517 151 l 482 143 l 432 144 l 386 156 l 339 181 l 306 206 l 275 242 l 244 293 q 229 344 231 326 l 219 419 l 221 483 l 226 547 l 239 603 l 254 658 l 283 721 l 313 774 l 360 833 l 399 876 l 504 961 l 581 1006 l 651 1044 l 576 1036 l 490 1022 l 418 999 l 358 976 l 251 908 l 214 874 l 167 826 l 142 794 l 101 732 l 79 685 l 58 628 l 36 543 l 29 489 q 27 465 28 478 q 26 438 26 453 l 26 383 l 32 335 l 54 240 l 76 193 l 93 160 l 122 119 l 146 93 l 189 60 l 268 26 l 318 11 l 356 4 l 408 3 l 424 3 l 475 11 l 524 24 l 571 49 l 621 79 l 653 113 l 688 157 l 710 200 l 732 258 l 742 311 l 750 382 z "},"7":{"ha":699,"x_min":28,"x_max":674,"o":"m 674 821 l 536 838 l 413 832 l 306 817 l 203 797 l 168 789 l 131 788 l 101 790 l 74 799 l 54 814 l 36 836 l 28 775 l 28 732 l 36 689 l 51 651 l 74 624 l 100 600 l 126 588 q 157 583 135 583 l 186 588 l 215 601 l 265 649 l 326 700 l 375 724 l 431 746 l 513 763 q 597 767 533 767 l 529 671 l 454 549 l 396 439 l 332 310 l 282 201 l 239 93 l 197 -17 l 181 -60 l 144 -190 q 135 -246 135 -224 l 181 -232 l 224 -217 l 336 -169 q 368 -157 349 -161 q 390 -153 375 -156 q 428 -146 404 -150 l 422 -6 l 426 42 l 438 122 l 463 247 l 499 367 l 632 707 l 674 821 z "},"8":{"ha":793,"x_min":26,"x_max":767,"o":"m 765 271 l 767 325 l 763 379 l 744 428 l 719 481 l 682 525 l 636 567 l 579 597 l 514 625 l 563 656 l 603 693 l 628 742 l 646 790 l 646 821 l 647 851 l 647 868 l 646 890 l 626 929 q 617 944 624 935 q 601 964 611 953 l 540 1001 q 507 1019 521 1013 q 485 1029 493 1026 l 446 1035 l 418 1033 l 378 1019 l 356 1015 l 338 1017 l 303 1039 l 278 1064 l 278 1043 l 281 997 l 293 950 l 321 924 l 357 906 l 394 897 l 433 893 l 472 883 l 507 872 q 532 844 526 853 q 544 810 536 838 l 543 769 l 532 736 l 507 707 l 478 682 l 421 654 l 363 685 l 313 718 l 278 758 l 249 806 q 235 851 235 838 l 233 897 l 246 939 l 269 978 l 217 961 l 165 935 l 132 903 l 106 869 l 85 814 l 79 778 l 81 735 l 93 682 l 115 640 l 143 600 l 188 560 l 235 532 l 168 499 l 117 467 l 75 421 l 49 378 l 33 325 l 26 279 l 35 222 l 51 171 l 79 129 l 119 85 l 167 53 l 228 24 l 278 8 q 357 1 307 0 l 443 4 l 531 24 l 593 51 l 649 82 l 690 122 l 728 169 q 749 222 739 196 q 765 271 758 247 m 600 269 l 593 242 l 578 214 l 551 193 l 511 174 l 465 163 l 401 157 l 342 167 q 285 192 331 169 l 249 226 l 222 272 q 213 318 213 297 l 211 364 l 225 411 l 244 450 l 282 476 q 298 483 288 479 q 326 492 308 488 l 442 457 l 490 428 l 526 403 l 558 369 l 581 340 l 594 303 l 600 269 z "},"9":{"ha":790,"x_min":26,"x_max":764,"o":"m 764 315 q 760 390 764 342 l 756 438 l 736 506 l 721 553 l 689 611 l 663 651 l 615 699 l 578 731 l 517 763 l 467 783 l 400 793 l 332 801 l 265 790 l 219 776 l 169 746 l 122 707 l 83 656 l 51 601 l 35 539 l 26 471 l 36 383 l 51 318 l 82 256 l 117 210 l 163 172 l 207 149 l 261 135 q 292 132 275 132 l 317 132 l 358 143 l 407 165 l 440 197 l 474 244 q 494 314 490 293 l 504 367 l 499 365 l 443 331 l 400 310 l 361 303 q 348 301 354 301 q 336 300 342 300 l 301 300 l 260 311 l 221 326 l 181 363 l 160 388 l 146 425 l 142 474 l 147 532 l 156 561 l 182 597 l 208 622 l 249 642 l 285 654 l 324 654 l 349 653 l 382 649 q 418 632 413 638 l 464 604 l 494 567 q 526 515 519 531 l 543 458 l 558 382 l 556 310 l 546 226 l 513 101 l 476 26 l 451 -15 l 403 -76 l 367 -119 l 265 -196 q 222 -218 239 -210 q 194 -232 204 -226 l 131 -262 l 211 -257 l 297 -244 l 375 -218 l 442 -193 l 493 -161 q 527 -138 511 -150 q 558 -115 543 -126 l 599 -74 l 647 -15 q 666 7 658 -4 q 679 29 674 18 l 714 93 l 732 149 q 739 168 736 160 q 743 179 742 176 l 751 217 l 764 315 z "},"­":{"ha":694,"x_min":0,"x_max":0,"o":""},"²":{"ha":694,"x_min":0,"x_max":0,"o":""},"³":{"ha":694,"x_min":0,"x_max":0,"o":""},"µ":{"ha":694,"x_min":0,"x_max":0,"o":""},"‛":{"ha":694,"x_min":0,"x_max":0,"o":""},"‟":{"ha":694,"x_min":0,"x_max":0,"o":""},"\u001a":{"ha":968,"x_min":25,"x_max":944,"o":"m 857 914 l 849 950 q 840 969 846 957 q 826 997 835 982 l 785 1022 q 767 1028 779 1025 q 735 1038 754 1032 l 682 1022 l 644 997 l 622 957 l 614 914 l 624 868 l 644 829 l 683 803 l 735 790 l 785 803 l 826 829 l 849 872 l 857 914 m 944 50 l 894 54 l 878 63 l 865 78 l 858 103 l 856 721 l 757 704 l 635 664 l 579 636 l 528 606 l 575 600 l 606 576 l 614 549 l 617 143 l 608 92 l 593 61 l 556 49 l 497 49 l 497 50 l 424 54 q 393 78 406 64 l 386 103 l 382 642 l 503 642 l 501 736 l 385 736 l 378 785 l 368 824 l 335 871 l 324 894 l 315 929 l 319 958 q 336 982 324 969 l 367 990 l 393 992 q 410 975 404 981 q 417 968 415 969 q 424 955 419 965 q 435 929 428 944 l 450 893 l 471 868 l 500 854 l 528 853 l 554 863 l 579 876 l 590 897 q 593 914 593 908 l 593 929 l 569 978 l 546 1010 l 513 1028 l 464 1050 l 421 1056 l 356 1056 l 304 1043 l 250 1019 l 211 985 l 178 946 l 157 889 q 144 819 151 872 l 144 735 l 25 735 l 25 642 l 144 642 l 146 143 l 138 92 l 124 61 l 86 49 l 57 49 l 57 3 l 943 3 l 944 50 z "},"\u001b":{"ha":968,"x_min":25,"x_max":943,"o":"m 496 49 l 496 50 l 424 54 q 393 78 406 64 l 386 103 l 382 642 l 503 642 l 503 735 l 385 736 l 378 785 l 368 824 l 335 871 l 324 894 l 315 929 l 319 958 q 336 982 324 969 l 367 990 l 393 992 q 410 975 404 981 q 417 968 415 969 q 424 955 419 965 q 435 929 428 944 l 450 893 l 471 868 l 500 854 l 528 853 l 554 863 l 579 876 l 590 897 q 593 914 593 908 l 593 924 l 604 915 l 613 888 l 615 143 l 607 92 l 592 61 l 554 49 l 496 49 m 943 50 l 893 54 l 876 63 l 864 78 l 854 1061 l 756 1042 l 633 1006 l 579 979 l 571 974 l 569 978 l 546 1010 l 513 1028 l 464 1050 l 421 1056 l 356 1056 l 304 1043 l 250 1019 l 211 985 l 178 946 l 157 889 q 144 819 151 872 l 144 735 l 25 735 l 25 642 l 144 642 l 146 143 l 138 92 l 124 61 l 86 49 l 57 49 l 57 3 l 942 3 l 943 50 z "},"\u001c":{"ha":985,"x_min":0,"x_max":961,"o":"m 588 506 l 542 600 l 418 540 l 419 883 l 426 933 l 442 964 q 471 974 457 974 l 507 975 l 507 1019 l 60 1019 l 61 976 l 110 971 l 140 947 l 146 922 q 149 913 146 924 l 150 410 l 0 336 l 46 242 l 150 292 l 150 143 l 142 92 l 128 61 q 111 56 118 58 q 99 50 104 53 l 60 49 l 60 3 l 804 3 q 853 -4 832 3 q 874 -18 864 -11 q 896 -32 885 -25 l 961 303 l 929 335 l 907 276 l 885 238 l 849 197 l 801 157 l 750 128 l 696 101 q 663 89 681 94 q 625 78 646 83 l 563 64 l 486 51 q 468 49 478 50 q 447 49 458 49 l 417 49 l 418 422 l 588 506 z "},"\u001d":{"ha":589,"x_min":0,"x_max":588,"o":"m 588 499 l 542 593 l 414 531 l 408 1061 l 310 1042 l 188 1006 l 133 979 l 81 944 l 128 939 l 158 915 l 167 888 l 168 411 l 0 329 l 46 235 l 169 294 l 169 143 l 161 92 l 146 61 l 108 49 l 79 49 l 79 3 l 496 3 l 497 50 l 447 54 l 431 63 l 418 78 l 415 414 l 588 499 z "},"\u001e":{"ha":1026,"x_min":25,"x_max":1000,"o":"m 740 1385 l 560 1257 l 378 1385 l 514 1146 l 607 1146 l 740 1385 m 1000 319 l 981 342 l 949 297 l 921 268 q 867 258 897 258 l 357 257 l 969 1060 l 904 1028 l 861 1019 l 232 1019 l 200 1031 l 171 1060 l 60 704 l 82 704 l 135 750 q 151 758 142 754 q 175 765 161 763 l 653 765 l 25 -15 l 75 0 l 772 3 q 826 -3 806 3 l 865 -15 l 1000 319 z "},"\u001f":{"ha":826,"x_min":25,"x_max":800,"o":"m 671 1043 l 490 915 l 307 1043 l 443 803 l 536 803 l 671 1043 m 800 726 l 746 710 q 707 704 729 704 l 292 704 l 242 711 l 183 726 l 114 435 l 144 479 l 175 510 l 204 518 q 233 521 218 521 l 529 519 l 25 -15 l 131 1 l 622 3 q 656 -6 643 3 q 673 -24 665 -15 q 688 -40 681 -32 l 746 249 l 719 217 q 685 189 714 208 q 642 182 657 182 l 294 181 l 800 726 z "}," ":{"ha":806,"x_min":0,"x_max":0,"o":""},"!":{"ha":381,"x_min":26,"x_max":354,"o":"m 354 922 l 306 943 l 263 969 l 225 1011 l 192 1061 l 153 1008 l 114 967 l 71 940 l 26 922 l 68 851 l 100 765 l 126 654 l 147 542 l 171 357 l 203 358 l 210 446 l 221 542 l 242 654 l 254 710 l 271 765 l 286 808 l 306 851 q 333 896 319 882 l 354 922 m 324 140 l 313 189 l 290 236 q 244 265 258 261 q 208 276 222 272 q 188 281 194 279 l 132 265 l 89 239 l 64 192 l 54 143 l 64 93 l 89 49 l 126 24 q 189 4 144 13 l 244 18 q 290 46 268 28 l 314 92 l 324 140 z "},"\"":{"ha":554,"x_min":28,"x_max":526,"o":"m 526 943 l 513 982 l 496 1011 l 461 1028 q 426 1038 453 1033 l 393 1031 l 364 1018 l 347 996 l 335 972 l 329 939 q 326 897 325 911 l 331 849 l 340 800 l 354 753 l 372 700 l 397 638 l 426 578 l 486 721 l 507 793 l 521 847 l 526 888 l 526 943 m 229 943 l 215 982 l 199 1011 l 164 1028 q 129 1038 156 1033 l 96 1031 l 67 1018 l 47 996 l 35 972 l 29 938 l 28 897 l 32 856 l 43 800 l 57 753 l 75 700 l 100 638 l 129 578 l 190 721 l 207 782 l 224 847 l 229 888 l 229 943 z "},"#":{"ha":590,"x_min":25,"x_max":565,"o":"m 565 639 l 565 700 l 429 700 l 444 824 l 382 824 l 368 700 l 249 700 l 264 824 l 207 824 l 190 700 l 86 700 l 86 639 l 183 639 l 171 515 l 25 515 l 25 453 l 164 453 l 147 331 l 207 331 l 221 453 l 340 453 l 325 331 l 382 331 l 399 453 l 503 453 l 503 515 l 407 515 l 422 639 l 565 639 m 364 639 l 349 515 l 229 515 l 240 639 l 364 639 z "},"$":{"ha":1032,"x_min":26,"x_max":1006,"o":"m 1006 340 l 990 431 l 963 488 l 932 532 l 890 568 l 843 606 l 779 636 l 693 669 q 614 685 625 685 l 525 700 l 524 968 l 597 957 l 647 932 l 717 849 l 761 819 q 831 806 771 814 l 857 814 l 882 831 l 900 858 q 926 911 913 876 l 939 964 q 946 1032 946 975 l 944 1025 l 921 1001 l 878 979 l 817 971 l 776 982 l 647 1032 l 599 1043 q 573 1049 592 1046 q 525 1054 554 1051 l 524 1136 l 458 1136 l 458 1053 l 383 1043 l 310 1032 l 242 1008 l 194 986 l 146 953 l 111 921 l 82 879 l 65 842 l 57 785 l 57 744 l 71 704 l 94 658 l 126 622 l 172 581 l 221 550 l 293 517 l 364 494 l 460 474 l 458 104 l 393 119 l 333 139 l 281 176 l 235 226 q 217 267 224 250 q 208 290 210 283 l 190 374 l 158 343 l 113 294 l 81 247 l 56 199 l 38 144 q 32 124 35 138 q 26 92 29 111 l 26 60 l 28 28 l 33 -10 l 74 14 q 110 29 96 24 q 133 38 125 35 l 239 38 l 349 15 l 460 0 l 458 -86 l 524 -86 l 524 0 l 608 8 l 682 22 l 751 44 l 828 79 l 874 114 l 918 151 l 951 194 l 985 249 l 997 294 l 1006 340 m 460 715 l 393 747 l 340 783 l 313 824 q 303 865 307 829 l 317 903 l 344 938 q 394 957 379 956 q 458 968 404 961 l 460 715 m 744 257 l 732 222 l 713 185 l 681 158 l 642 133 l 582 115 l 525 107 l 524 449 l 592 424 l 657 397 l 694 364 l 724 333 q 739 292 738 301 l 744 257 z "},"%":{"ha":640,"x_min":28,"x_max":613,"o":"m 333 778 q 335 797 335 790 q 336 806 336 804 l 336 836 l 333 864 l 310 907 l 283 943 q 252 958 264 953 q 233 965 240 964 l 181 975 l 129 965 l 81 943 l 53 908 l 31 864 l 28 821 l 28 803 q 31 778 31 789 l 53 733 l 81 700 l 129 676 l 182 668 l 232 676 l 283 700 l 311 732 l 333 778 m 613 975 l 542 975 l 31 79 l 96 79 l 613 975 m 601 192 l 606 235 l 601 278 l 581 321 l 551 356 l 503 379 l 451 389 l 397 378 l 347 356 l 319 322 l 297 278 l 294 235 l 294 217 q 297 192 297 203 l 319 146 l 347 113 q 363 103 357 107 q 375 97 369 100 q 389 92 383 94 q 397 89 394 90 l 450 79 l 501 90 l 551 113 q 601 192 585 146 m 276 775 q 246 744 254 749 l 197 728 l 158 742 q 118 775 140 749 l 110 819 l 118 865 q 147 894 139 890 l 196 913 l 243 894 l 276 865 l 285 819 l 276 775 m 518 189 q 488 158 496 163 l 439 142 l 390 157 q 360 186 379 164 l 351 232 l 360 279 q 379 301 371 293 q 392 311 388 308 q 409 317 397 314 q 440 326 421 321 q 518 279 488 313 l 526 233 l 518 189 z "},"&":{"ha":1019,"x_min":28,"x_max":993,"o":"m 993 425 l 985 474 l 971 517 l 925 596 l 907 629 l 894 665 l 894 681 l 896 718 l 907 758 l 831 724 l 757 683 l 722 649 l 713 622 l 722 594 l 739 569 l 774 542 l 810 515 l 869 463 l 882 433 l 888 403 q 869 367 876 374 l 829 326 l 769 296 l 707 278 l 632 267 l 557 265 l 450 267 l 389 269 l 322 288 l 288 307 l 250 342 l 233 375 l 229 411 l 238 456 l 256 499 l 292 543 l 335 583 l 403 538 l 443 508 l 481 476 l 515 429 l 536 399 l 546 371 l 547 339 l 547 313 q 604 367 597 358 l 651 424 q 664 456 660 444 q 669 471 668 468 l 678 519 l 668 556 l 651 590 l 626 615 l 592 649 l 519 682 l 572 710 l 622 749 l 647 790 l 667 839 l 665 879 l 653 921 l 619 960 l 578 989 q 435 1021 513 1013 l 368 1013 l 306 996 l 261 968 l 222 939 l 190 894 q 164 800 164 860 l 164 760 l 181 713 l 197 681 l 238 642 l 281 614 l 160 551 l 111 511 l 71 472 l 42 424 l 28 375 q 32 303 28 325 l 42 250 l 57 197 l 82 153 l 118 113 l 157 79 l 207 53 l 258 29 l 325 13 l 372 4 l 390 4 l 433 3 l 497 3 l 558 13 l 619 25 l 675 44 l 732 69 l 774 97 l 829 139 l 888 208 l 960 310 l 982 369 q 988 390 985 376 q 993 425 990 404 m 538 863 l 536 821 l 526 783 l 501 753 l 472 726 l 429 747 l 393 778 l 367 814 l 349 850 l 346 876 l 354 915 l 383 933 q 428 944 392 938 l 468 942 l 503 928 l 526 888 l 538 863 z "},"'":{"ha":251,"x_min":28,"x_max":229,"o":"m 229 943 l 215 982 l 199 1011 l 164 1028 q 129 1038 156 1033 l 96 1031 l 67 1018 l 47 996 l 35 972 l 29 938 l 28 897 l 32 856 l 43 800 l 57 753 l 75 700 l 100 638 l 129 578 l 190 721 l 207 782 l 224 847 l 229 888 l 229 943 z "},"(":{"ha":1301,"x_min":26,"x_max":1279,"o":"m 1279 781 l 1279 826 l 1276 874 l 1264 917 l 1249 957 q 1225 979 1231 978 l 1193 999 l 1117 996 l 1054 990 l 908 969 l 763 938 l 624 897 l 496 850 l 386 799 l 301 746 l 269 718 l 246 694 l 213 649 l 185 606 l 157 549 l 135 496 l 93 372 l 61 239 l 47 153 l 38 88 l 26 -36 l 26 -151 l 38 -247 l 47 -281 l 60 -317 q 80 -329 69 -324 q 101 -340 90 -335 l 172 -349 l 246 -339 l 275 -322 l 303 -304 l 285 -82 l 218 -122 l 165 -137 l 133 -132 l 119 -119 l 110 -106 l 101 -58 l 104 -28 l 111 4 l 140 86 l 163 135 l 186 183 l 239 276 l 322 396 l 426 525 l 472 575 l 525 628 l 581 681 l 638 728 l 722 794 l 800 842 l 842 863 l 883 881 l 942 897 l 990 903 l 1033 893 l 1057 875 l 1067 849 l 1058 806 l 1038 764 l 1279 781 z "},")":{"ha":1318,"x_min":22,"x_max":1292,"o":"m 1292 774 l 1289 844 l 1283 918 l 1271 976 q 1228 996 1240 993 l 1203 1006 l 1157 1006 l 1113 1007 l 1074 992 l 1042 969 l 1040 728 l 1076 763 l 1115 779 l 1147 778 l 1178 760 l 1199 722 l 1204 682 l 1204 665 l 1193 590 l 1158 496 l 1140 456 l 1111 403 l 1024 272 l 978 214 l 904 124 l 764 0 l 621 -111 l 518 -179 l 417 -228 l 350 -246 l 299 -247 l 261 -231 q 249 -200 250 -214 l 250 -178 l 256 -156 l 267 -129 l 279 -108 l 29 -107 q 24 -144 26 -131 q 22 -160 22 -157 l 22 -196 l 32 -247 l 47 -294 l 69 -325 l 99 -347 l 215 -347 l 342 -332 l 469 -310 l 597 -276 l 738 -228 l 851 -178 l 950 -119 l 1033 -57 l 1063 -28 l 1094 6 l 1136 81 l 1175 171 l 1203 254 l 1232 357 l 1256 467 l 1274 574 l 1285 678 l 1292 774 z "},"*":{"ha":476,"x_min":26,"x_max":450,"o":"m 450 735 l 450 797 l 315 797 l 411 893 l 365 935 l 265 836 l 265 981 l 203 981 l 203 836 l 103 935 l 58 893 l 154 797 l 26 797 l 26 735 l 154 735 l 58 639 l 103 596 l 203 696 l 203 549 l 265 549 l 265 696 l 365 596 l 411 639 l 315 735 l 450 735 z "},"+":{"ha":761,"x_min":8,"x_max":753,"o":"m 433 374 l 753 374 l 753 478 l 433 478 l 433 811 l 328 811 l 328 478 l 8 478 l 8 374 l 328 374 l 328 43 l 433 43 l 433 374 z "},",":{"ha":353,"x_min":26,"x_max":326,"o":"m 326 56 l 324 107 l 311 171 l 289 214 l 258 250 l 207 272 l 160 281 l 106 269 q 61 249 76 258 l 36 213 l 26 176 l 36 138 l 61 101 q 104 78 93 81 l 161 67 q 172 1 172 25 l 164 -31 l 150 -67 l 126 -103 l 103 -133 l 35 -185 l 114 -169 l 194 -142 l 242 -100 l 285 -57 l 310 0 l 326 56 z "},"-":{"ha":599,"x_min":29,"x_max":569,"o":"m 569 379 l 569 453 l 31 453 l 29 379 l 569 379 z "},".":{"ha":326,"x_min":28,"x_max":299,"o":"m 299 140 l 288 189 l 265 236 q 218 265 232 261 q 182 276 196 272 q 161 281 168 279 l 106 265 l 63 239 l 38 192 l 28 143 l 38 93 l 63 49 l 100 24 q 163 4 118 13 l 219 18 q 265 46 243 28 l 289 92 l 299 140 z "},"/":{"ha":565,"x_min":22,"x_max":543,"o":"m 543 1204 l 468 1204 l 22 -140 l 96 -140 l 543 1204 z "},":":{"ha":326,"x_min":28,"x_max":299,"o":"m 299 690 l 288 736 l 265 779 l 221 806 q 187 816 201 813 q 163 821 172 819 l 114 807 q 91 797 104 804 q 63 779 78 790 l 42 746 q 28 690 35 735 l 39 642 l 63 599 q 106 572 96 574 l 161 557 l 219 571 q 265 599 243 581 q 289 640 288 629 l 299 690 m 299 140 l 288 189 l 265 236 q 218 265 232 261 q 182 276 196 272 q 161 281 168 279 l 106 265 l 63 239 l 38 192 l 28 143 l 38 93 l 63 49 l 100 24 q 163 4 118 13 l 219 18 q 265 46 243 28 l 289 92 l 299 140 z "},";":{"ha":353,"x_min":26,"x_max":326,"o":"m 297 690 l 286 736 l 264 779 l 219 806 q 185 816 200 813 q 161 821 171 819 l 113 807 q 90 797 103 804 q 61 779 76 790 l 40 746 q 26 690 33 735 l 38 642 l 61 599 q 104 572 94 574 l 160 557 l 218 571 q 264 599 242 581 q 288 640 286 629 l 297 690 m 326 57 l 324 108 l 311 172 l 289 215 l 258 250 l 207 272 l 160 281 l 106 269 q 61 249 76 258 l 36 213 l 26 176 l 36 138 l 61 101 q 104 78 93 81 l 161 67 q 175 36 175 44 l 181 7 l 172 -25 l 158 -61 l 104 -132 l 35 -185 l 114 -169 l 194 -142 l 242 -100 l 285 -57 l 310 1 l 326 57 z "},"<":{"ha":790,"x_min":54,"x_max":731,"o":"m 54 538 l 54 371 l 731 121 l 731 300 l 296 454 l 731 608 l 731 788 l 54 538 z "},"=":{"ha":832,"x_min":29,"x_max":807,"o":"m 807 503 l 807 581 l 29 581 l 29 503 l 807 503 m 807 272 l 807 350 l 29 350 l 29 272 l 807 272 z "},">":{"ha":790,"x_min":67,"x_max":743,"o":"m 743 371 l 743 538 l 67 788 l 67 608 l 501 454 l 67 300 l 67 121 l 743 371 z "},"?":{"ha":836,"x_min":25,"x_max":810,"o":"m 810 785 l 804 843 l 796 885 l 768 933 l 742 969 l 707 996 l 671 1018 l 618 1035 l 567 1049 l 468 1054 l 367 1046 l 256 1022 l 171 992 l 96 949 l 58 911 q 25 818 31 865 l 38 785 l 60 756 l 92 742 l 128 733 l 168 740 l 206 756 q 258 840 244 799 l 271 875 l 299 914 l 325 931 q 351 946 339 939 q 378 958 364 953 q 398 960 388 960 q 419 961 408 961 l 461 961 l 503 938 q 517 926 508 935 q 536 907 525 918 q 558 847 556 861 l 568 781 l 560 707 l 544 646 l 519 610 l 489 578 l 431 535 l 406 504 l 383 464 l 374 399 l 374 322 l 414 324 l 417 361 l 426 393 l 451 419 l 478 442 q 503 457 493 451 q 521 465 514 463 l 643 526 l 689 557 l 722 583 l 751 619 l 782 665 l 799 715 q 810 785 804 728 m 533 136 l 522 186 l 500 233 q 478 249 489 243 q 456 261 467 256 q 424 270 439 267 q 397 276 410 274 l 342 261 l 299 235 q 275 188 276 197 l 265 140 l 275 90 l 299 44 l 343 17 q 399 1 349 13 l 454 15 l 500 43 q 510 60 507 54 q 514 65 514 65 q 526 99 521 82 q 533 136 531 117 z "},"@":{"ha":1601,"x_min":28,"x_max":1574,"o":"m 1574 225 l 1571 354 l 1546 488 l 1507 615 l 1478 676 l 1446 736 l 1363 849 l 1319 889 l 1257 943 l 1128 1018 l 1054 1044 l 975 1065 l 889 1082 q 800 1086 865 1086 l 610 1065 l 540 1044 l 446 1013 l 375 972 l 313 933 l 254 883 l 203 832 l 160 774 l 122 714 l 92 649 l 64 585 l 33 446 l 31 389 q 28 349 29 361 q 28 344 28 338 l 28 307 l 36 232 l 47 169 l 65 103 l 90 38 l 119 -17 l 156 -75 l 199 -125 l 244 -175 l 297 -215 l 357 -254 l 421 -282 l 492 -306 l 568 -319 q 647 -324 606 -326 l 739 -318 q 792 -312 771 -315 q 825 -307 814 -310 l 747 -286 l 657 -257 l 586 -222 l 542 -199 l 476 -150 l 422 -104 l 344 -14 l 308 38 q 286 73 294 57 q 272 101 278 89 l 233 204 l 218 263 q 213 335 213 281 l 213 365 l 219 463 l 231 504 l 246 558 l 269 607 l 308 668 l 350 714 l 379 742 l 497 815 l 554 833 l 614 851 l 714 868 q 731 870 722 869 q 749 871 739 871 l 792 871 l 874 865 l 946 853 l 1013 829 l 1076 801 l 1168 736 l 1215 688 l 1257 638 l 1292 581 l 1321 524 l 1344 464 l 1363 404 l 1381 283 l 1376 225 l 1371 174 l 1356 125 l 1344 92 l 1317 53 l 1289 17 l 1249 -3 l 1207 -24 l 1167 -7 l 1139 14 l 1126 50 l 1119 92 l 1121 493 l 1113 525 l 1094 561 q 1075 576 1083 571 q 1061 585 1067 582 l 1032 604 l 936 633 l 822 646 l 717 639 l 669 631 l 613 617 l 583 608 q 542 601 581 606 l 461 610 l 432 625 l 403 647 l 415 578 l 439 525 l 474 490 l 514 468 l 553 465 l 603 471 l 650 503 l 682 532 l 699 553 l 725 578 l 763 592 l 803 601 l 839 594 l 876 579 l 897 542 q 903 524 900 536 q 908 492 906 511 l 910 406 l 768 408 l 707 399 l 656 389 l 597 367 l 554 347 l 517 319 l 476 288 l 451 253 l 432 218 q 424 187 426 200 q 421 165 422 174 l 417 132 l 422 101 l 431 72 l 444 50 l 467 19 l 500 -1 l 535 -19 l 576 -29 l 632 -37 q 700 -33 676 -37 l 749 -25 l 829 0 l 910 32 l 915 -32 l 932 -83 l 967 -133 l 1014 -179 l 1071 -206 l 1139 -224 l 1190 -236 q 1196 -237 1193 -237 q 1203 -239 1200 -237 l 1243 -239 l 1289 -233 l 1335 -222 l 1374 -199 q 1399 -182 1389 -189 q 1414 -172 1408 -175 l 1446 -137 l 1478 -99 l 1504 -53 l 1525 -4 l 1560 101 l 1574 225 m 910 340 l 908 96 l 829 67 l 769 51 q 707 56 724 51 l 675 67 l 647 89 l 625 119 l 621 158 l 625 201 l 644 235 l 674 272 l 713 297 q 746 315 732 308 q 768 325 760 322 l 829 336 q 910 340 851 340 z "},"A":{"ha":1183,"x_min":25,"x_max":1158,"o":"m 1158 3 l 1158 49 l 1103 74 l 1057 118 l 754 943 l 754 961 q 755 984 754 975 q 760 1001 756 993 q 771 1017 764 1008 q 790 1038 778 1025 l 690 1038 l 581 1018 l 483 981 l 444 956 l 417 929 l 471 922 l 483 900 l 489 869 l 165 119 l 139 93 l 110 69 l 68 56 l 25 49 l 25 3 l 325 3 l 326 50 l 272 56 q 239 82 250 67 l 242 106 l 257 142 l 279 203 l 692 379 l 775 143 q 782 103 783 118 l 781 82 l 764 65 l 744 56 q 712 51 726 53 q 683 49 697 49 l 683 3 l 1158 3 m 618 554 l 379 450 l 529 797 l 618 554 z "},"B":{"ha":1114,"x_min":26,"x_max":1086,"o":"m 1086 217 l 1086 263 q 1085 271 1086 265 q 1083 286 1085 276 l 1076 332 q 1054 378 1064 368 l 1024 428 l 983 464 l 929 500 l 871 519 l 794 536 q 860 557 838 547 l 921 588 l 951 621 l 983 664 l 990 700 q 994 743 994 722 l 971 828 l 947 864 l 922 894 l 889 933 l 851 967 l 806 989 l 754 1010 l 642 1031 l 517 1031 l 386 1013 l 256 978 l 135 928 l 26 865 l 93 864 l 124 858 l 151 849 l 167 831 l 176 803 l 178 143 l 169 93 l 156 61 l 128 51 l 88 49 l 88 3 l 864 4 l 929 22 l 976 44 l 1019 83 l 1053 121 l 1075 171 l 1086 217 m 729 790 l 724 721 l 715 681 q 703 658 708 668 q 694 642 699 649 l 669 611 l 629 590 l 583 576 l 526 568 l 472 567 l 447 567 l 446 803 q 458 851 453 843 q 504 896 475 876 l 418 915 l 319 921 l 182 897 l 263 926 l 358 954 l 419 963 l 489 967 l 558 958 l 600 950 l 638 931 l 674 908 l 714 856 l 725 821 l 729 790 m 806 304 l 794 235 l 775 178 q 733 125 744 136 l 681 85 l 617 61 l 536 50 l 446 49 l 446 503 l 557 511 l 607 507 l 656 501 l 731 469 q 761 438 760 443 l 785 406 l 799 353 l 806 304 z "},"C":{"ha":1103,"x_min":28,"x_max":1076,"o":"m 1076 340 l 1007 293 l 926 250 l 860 229 l 794 215 l 774 215 l 725 214 l 661 214 l 604 225 l 542 246 l 494 268 l 453 292 l 410 325 l 379 356 l 344 406 l 315 453 l 288 515 l 272 567 l 261 618 l 253 685 q 257 754 253 731 l 267 808 l 286 851 l 315 901 q 353 933 336 922 l 401 967 q 456 982 447 982 l 532 996 l 603 982 q 656 961 618 979 q 675 940 667 950 q 690 924 683 931 l 710 900 l 729 867 l 754 838 q 793 818 781 821 l 849 810 l 889 815 l 924 824 l 950 844 l 972 869 q 983 910 983 903 l 990 949 l 975 1064 l 971 1063 l 951 1047 l 928 1035 l 899 1028 q 876 1025 885 1025 l 860 1025 l 794 1033 l 740 1060 l 685 1082 l 624 1093 l 564 1099 l 500 1096 l 450 1090 l 397 1074 l 351 1056 l 288 1021 l 229 988 l 181 944 l 139 900 l 107 851 l 81 799 l 60 746 l 43 693 l 33 640 l 28 588 l 29 492 l 35 447 l 42 408 l 51 379 l 64 351 l 89 300 l 117 256 l 164 200 l 210 157 l 257 121 l 307 90 l 363 61 l 436 33 l 496 18 l 556 7 l 572 7 l 613 6 l 674 6 l 744 18 l 806 38 l 910 96 l 957 140 l 1011 206 l 1044 271 l 1076 340 z "},"D":{"ha":1194,"x_min":28,"x_max":1167,"o":"m 1167 431 l 1160 371 l 1151 308 l 1131 254 l 1110 208 l 1079 168 l 1046 135 l 964 79 l 917 58 l 869 40 l 817 26 l 717 8 l 92 3 l 92 49 l 132 51 l 160 61 q 176 93 174 83 q 179 110 178 97 q 183 143 181 122 l 182 803 l 172 828 l 156 849 l 136 854 q 93 864 122 861 l 28 868 l 31 865 l 69 903 l 131 957 l 186 989 l 246 1017 l 310 1035 l 351 1044 l 408 1050 q 483 1054 451 1054 l 618 1040 l 699 1017 l 747 1001 l 867 946 l 975 871 l 1049 797 l 1083 747 l 1114 694 l 1135 640 l 1150 583 l 1161 508 q 1163 503 1161 506 l 1167 481 l 1167 431 m 881 414 l 876 471 l 860 557 l 842 638 l 826 681 q 814 708 821 696 l 785 771 l 744 824 q 704 874 715 863 l 657 910 l 610 943 l 560 961 l 504 979 l 451 983 l 414 985 l 396 985 l 340 974 l 285 957 l 233 931 l 183 897 l 292 918 l 399 918 l 450 910 l 507 896 q 467 856 475 867 q 450 803 457 842 l 450 49 l 549 61 l 643 85 l 708 114 l 774 153 l 813 194 l 844 240 l 867 296 l 879 351 l 879 385 l 881 414 z "},"E":{"ha":990,"x_min":28,"x_max":961,"o":"m 961 294 l 928 326 l 896 271 l 868 233 l 826 194 l 775 156 l 728 129 l 667 101 l 594 78 l 531 64 l 454 51 q 436 49 446 50 q 415 49 426 49 l 385 49 l 388 397 l 431 443 l 475 481 l 514 496 l 551 503 l 579 492 l 606 474 l 618 439 l 625 396 l 807 575 l 769 642 l 739 669 l 706 692 l 665 701 l 626 701 l 583 681 l 540 650 l 385 464 l 388 976 l 508 965 l 615 940 l 672 918 l 717 897 l 768 869 l 814 839 l 879 776 l 904 735 l 925 696 l 961 726 l 896 1035 l 853 1022 q 841 1020 847 1021 q 826 1019 835 1019 l 28 1019 l 29 976 l 78 971 l 108 947 l 114 922 q 117 913 114 924 l 118 143 l 110 92 l 96 61 q 79 56 86 58 q 67 50 72 53 l 28 49 l 28 3 l 806 3 l 851 0 l 896 -10 l 961 294 z "},"F":{"ha":983,"x_min":28,"x_max":961,"o":"m 961 726 l 896 1035 l 853 1022 q 841 1020 847 1021 q 826 1019 835 1019 l 28 1019 l 29 976 l 78 971 l 108 947 l 114 922 q 117 913 114 924 l 118 143 l 113 -35 l 100 -112 l 85 -183 l 60 -236 l 28 -286 l 476 4 l 440 25 q 410 50 429 31 l 393 90 l 385 142 l 388 397 l 432 443 l 476 481 l 515 496 l 553 503 l 581 492 l 606 474 l 618 439 l 625 396 l 807 575 l 771 646 l 740 672 l 707 693 l 681 701 l 626 701 l 583 679 l 540 650 l 385 458 l 388 976 l 508 965 l 615 940 l 672 918 l 717 897 l 768 869 l 814 839 l 879 776 l 904 735 l 925 696 l 961 726 z "},"G":{"ha":1193,"x_min":26,"x_max":1168,"o":"m 1168 567 l 1158 604 l 1075 593 l 1021 593 l 968 594 l 890 606 l 772 631 l 665 657 l 571 671 l 526 667 l 488 661 l 451 640 l 419 614 l 396 578 l 365 517 l 514 418 l 524 475 l 544 526 l 568 550 q 615 579 581 563 l 651 582 l 694 578 l 735 551 l 767 521 l 788 464 l 797 406 l 794 188 q 790 187 793 188 q 779 185 786 186 l 708 185 l 668 186 l 600 199 l 554 213 l 500 239 l 450 269 l 404 310 l 358 358 l 329 394 l 307 431 l 289 479 l 276 532 l 269 593 l 269 647 l 275 714 l 288 776 l 311 838 l 333 881 l 365 919 l 408 958 l 453 978 l 515 999 l 596 985 l 663 961 l 707 924 l 749 882 l 783 840 l 822 801 q 854 785 851 786 q 905 772 885 776 q 936 767 925 768 l 971 772 l 1004 783 l 1026 804 l 1047 832 l 1058 867 l 1069 908 l 1074 1013 l 1021 975 l 985 961 l 947 953 l 913 960 q 893 969 901 965 q 878 976 885 974 l 774 1031 l 718 1050 l 660 1065 l 600 1069 q 572 1072 581 1071 q 568 1072 564 1072 l 536 1072 l 472 1060 l 408 1044 l 332 1013 l 272 982 l 213 938 l 168 897 l 126 846 l 93 797 l 65 736 l 43 672 q 33 614 33 635 q 29 578 31 593 q 26 556 28 564 l 29 493 l 36 440 q 46 406 42 421 q 53 381 50 392 l 69 335 l 125 240 l 165 188 l 200 151 l 235 118 l 272 92 l 315 64 l 369 39 l 413 25 l 463 15 l 563 7 l 638 10 l 686 18 l 750 33 l 817 51 l 886 78 l 975 114 l 1124 189 l 1074 193 q 1036 217 1044 208 l 1029 242 l 1025 282 l 1024 450 l 1029 488 l 1039 515 l 1063 532 l 1089 547 l 1168 567 z "},"H":{"ha":1129,"x_min":26,"x_max":1103,"o":"m 1103 50 q 1056 54 1074 50 q 1025 78 1038 64 l 1015 944 l 1025 971 l 1039 997 l 1067 1031 l 1103 1067 l 967 1051 l 907 1040 l 851 1029 l 799 1011 l 750 993 l 657 944 l 711 911 l 732 874 q 738 855 735 868 q 743 819 740 842 l 743 633 l 385 633 l 386 944 l 414 996 l 479 1067 l 354 1053 l 236 1032 l 128 997 l 76 971 l 32 944 l 72 926 l 104 890 l 113 846 q 115 832 114 839 q 115 819 115 825 l 117 143 l 108 92 l 94 61 q 78 56 85 58 q 64 50 71 53 l 26 49 l 26 3 l 474 3 l 475 50 l 450 50 l 426 54 q 396 78 408 64 l 389 103 l 385 142 l 385 500 l 743 500 l 744 146 l 736 93 l 722 61 l 685 49 l 656 49 l 656 3 l 1101 3 l 1103 50 z "},"I":{"ha":501,"x_min":26,"x_max":475,"o":"m 475 50 l 425 54 q 394 78 407 64 l 386 883 l 393 933 l 408 964 q 438 974 424 974 l 474 975 l 474 1019 l 26 1019 l 28 976 l 76 971 l 107 947 l 113 922 q 115 913 113 924 l 117 143 l 108 92 l 94 61 q 78 56 85 58 q 65 50 71 53 l 26 49 l 26 3 l 474 3 l 475 50 z "},"J":{"ha":663,"x_min":24,"x_max":638,"o":"m 638 1038 l 511 1021 l 393 997 l 283 961 l 233 938 l 186 914 l 235 908 l 265 885 l 274 -65 l 256 -104 q 208 -119 232 -117 l 183 -110 l 157 -92 l 131 -72 q 103 -61 126 -68 l 79 -62 q 47 -75 69 -62 l 32 -101 l 24 -139 l 35 -176 l 57 -214 l 107 -239 l 132 -247 l 171 -254 l 256 -244 l 335 -217 l 417 -164 l 450 -125 l 483 -85 l 506 -40 q 525 7 510 -37 l 540 76 q 542 91 542 83 q 543 110 543 99 l 543 943 q 576 992 565 981 q 638 1038 588 1003 z "},"K":{"ha":1129,"x_min":26,"x_max":1103,"o":"m 1103 54 l 1054 56 l 1024 79 l 1015 106 l 1014 143 l 1003 207 l 972 281 l 921 356 l 879 394 l 835 432 q 808 449 819 442 q 789 460 796 456 l 732 490 q 694 504 708 500 q 672 510 679 508 l 603 529 l 535 540 q 447 544 510 544 l 474 610 l 503 672 l 536 721 l 574 765 l 614 793 l 657 817 l 692 821 l 751 821 l 772 813 q 781 810 778 811 q 788 810 785 810 l 814 808 l 842 808 l 885 825 l 928 851 l 960 892 l 983 936 l 990 989 l 989 1011 l 983 1044 l 932 1021 l 892 1011 l 861 1015 l 825 1024 l 769 1033 l 718 1022 l 656 1001 l 611 964 l 569 926 l 531 875 l 497 824 l 464 761 l 436 699 l 383 546 l 386 886 l 393 936 l 408 967 q 438 976 424 976 l 474 978 l 474 1024 l 26 1024 l 28 979 l 76 975 q 107 950 94 965 l 113 925 q 115 915 113 926 l 117 146 l 106 90 l 94 65 l 61 53 l 26 51 l 26 3 l 474 3 l 475 54 l 425 56 l 394 79 l 388 104 l 383 142 l 386 482 l 451 474 l 508 456 l 550 432 l 592 397 l 626 357 l 656 314 l 678 271 l 694 231 l 704 201 l 710 171 l 714 151 l 704 100 l 690 69 q 674 64 681 67 q 661 58 667 61 l 624 57 l 624 3 l 1101 3 l 1103 54 z "},"L":{"ha":951,"x_min":26,"x_max":928,"o":"m 928 303 l 896 335 l 874 276 l 851 238 l 815 197 l 768 157 l 717 128 l 663 101 q 630 89 647 94 q 592 78 613 83 l 529 64 l 453 51 q 435 49 444 50 q 414 49 425 49 l 383 49 l 386 883 l 393 933 l 408 964 q 438 974 424 974 l 474 975 l 474 1019 l 26 1019 l 28 976 l 76 971 l 107 947 l 113 922 q 115 913 113 924 l 117 143 l 108 92 l 94 61 q 78 56 85 58 q 65 50 71 53 l 26 49 l 26 3 l 771 3 q 819 -4 799 3 q 841 -18 831 -11 q 863 -32 851 -25 l 928 303 z "},"M":{"ha":1250,"x_min":26,"x_max":1224,"o":"m 1224 50 l 1199 51 l 1174 54 q 1143 78 1156 64 l 1133 883 l 1140 932 l 1156 961 l 1190 968 l 1222 969 l 1222 1024 l 863 1024 l 863 913 l 651 565 l 389 939 l 385 982 q 401 1038 385 1000 l 296 1035 l 226 1014 l 160 988 l 104 944 l 58 890 q 110 860 100 869 q 147 799 138 819 l 144 578 l 139 407 l 133 276 l 125 183 l 111 113 l 96 76 l 76 57 l 53 50 l 26 49 l 26 3 l 326 3 l 328 50 l 307 50 l 285 54 l 269 61 l 256 76 l 243 104 l 238 118 l 225 192 l 214 358 l 208 781 l 524 249 l 863 803 l 864 143 l 856 92 l 842 61 l 810 50 l 774 49 l 774 3 l 1222 3 l 1224 50 z "},"N":{"ha":1038,"x_min":25,"x_max":1011,"o":"m 1011 226 q 942 256 956 246 l 894 304 l 894 525 l 897 692 l 906 811 l 918 892 l 935 939 l 954 965 l 981 975 l 1011 975 l 1011 1028 l 710 1028 l 713 976 l 736 975 l 757 971 l 771 964 l 788 946 l 800 917 l 811 874 l 819 811 l 824 728 l 829 640 l 831 350 l 390 935 q 372 974 379 958 q 363 997 365 989 l 354 1061 l 250 1050 l 150 1019 l 110 994 l 69 965 l 44 928 l 25 890 q 94 864 81 872 q 146 813 117 850 l 144 588 l 142 414 l 135 281 l 125 185 l 111 113 l 94 76 l 75 57 l 53 50 l 25 49 l 25 3 l 325 3 l 326 50 l 306 50 l 283 54 l 268 61 l 254 76 l 242 104 l 232 142 l 224 193 l 213 363 l 207 789 l 749 25 l 778 -18 q 801 -85 782 -24 l 819 -28 l 843 19 l 879 75 l 922 133 l 1011 226 z "},"O":{"ha":1119,"x_min":26,"x_max":1093,"o":"m 1093 529 l 1089 642 l 1076 707 l 1064 750 l 1004 871 l 974 908 l 932 954 l 889 986 l 836 1018 q 796 1033 797 1033 l 693 1063 l 549 1067 l 469 1039 l 403 1007 q 372 976 383 988 q 358 960 361 964 l 325 908 l 317 857 l 317 790 l 336 742 q 374 686 342 726 q 415 658 397 664 l 461 640 l 503 636 l 549 642 l 583 660 l 614 683 l 578 681 l 535 690 l 515 714 l 508 744 l 524 782 l 544 808 l 588 829 q 622 840 607 836 q 644 844 636 843 l 697 844 l 743 843 l 793 838 q 838 819 822 826 q 857 810 854 813 l 903 785 q 943 739 931 757 l 972 699 l 992 639 l 1004 590 l 1003 525 l 994 460 l 978 408 l 950 353 l 917 310 l 871 263 q 824 235 842 240 l 761 207 l 703 197 l 622 197 l 542 219 l 482 244 l 418 282 l 372 319 l 336 360 l 297 417 l 275 469 l 250 549 l 240 614 l 240 683 l 246 756 l 261 826 l 282 897 l 313 975 l 249 936 l 196 897 l 154 857 l 108 801 l 81 754 l 53 694 l 39 644 l 26 581 l 26 540 l 28 503 l 28 464 l 36 414 l 53 351 l 92 265 l 126 211 l 158 171 l 199 132 l 246 90 l 306 56 l 356 35 l 425 15 l 479 6 l 554 6 l 622 7 l 689 22 l 779 49 l 838 75 l 878 100 l 926 142 l 974 193 l 1000 231 l 1033 288 l 1074 393 l 1086 461 l 1093 529 z "},"P":{"ha":1032,"x_min":25,"x_max":1008,"o":"m 1008 651 l 1008 700 l 1001 767 q 971 835 982 815 l 942 886 l 906 922 l 871 954 l 821 983 l 779 1003 l 675 1033 l 560 1046 l 492 1043 q 479 1042 485 1042 q 469 1040 474 1042 l 424 1040 l 310 1018 l 199 981 l 103 929 l 60 897 l 25 868 l 85 865 l 115 858 l 147 849 l 164 824 q 174 789 169 817 l 175 143 l 167 92 l 153 61 l 121 50 l 85 49 l 85 3 l 532 3 l 533 50 l 483 54 q 453 78 465 64 l 444 104 l 443 797 l 457 850 q 503 897 467 869 l 415 915 l 358 922 l 317 922 l 253 913 l 179 897 l 243 928 l 317 957 l 375 969 l 433 976 l 494 974 l 550 965 l 597 947 l 646 924 l 713 864 l 740 821 l 757 783 q 765 710 765 733 l 765 679 l 751 638 l 729 600 l 692 569 l 667 553 l 619 539 l 575 531 l 518 535 l 468 544 l 521 490 l 576 451 l 632 429 q 653 424 639 426 q 692 415 668 421 l 744 417 l 801 425 l 851 447 l 899 472 l 936 511 l 971 551 l 993 600 q 1001 621 999 610 q 1006 637 1004 629 q 1008 651 1007 644 z "},"Q":{"ha":1215,"x_min":26,"x_max":1190,"o":"m 1190 267 l 1144 258 l 1107 257 l 1092 257 l 1049 264 l 1010 278 l 1035 328 l 1056 376 l 1079 492 l 1081 547 q 1082 560 1082 554 q 1083 569 1082 565 l 1083 614 l 1069 692 l 1060 735 l 1036 800 l 1004 864 l 971 908 l 926 958 l 882 992 l 819 1029 l 768 1046 q 738 1055 758 1050 q 683 1065 717 1060 l 667 1065 l 625 1064 l 515 1064 l 443 1039 l 382 1008 q 336 961 343 974 l 303 908 q 290 844 290 864 l 290 826 l 293 796 l 313 740 l 339 694 l 376 664 q 421 643 386 654 l 468 639 l 489 639 l 515 640 l 561 658 l 604 686 l 556 699 l 526 726 l 522 767 q 535 822 522 785 q 572 857 563 851 q 621 874 583 863 l 690 871 l 740 865 l 796 846 l 838 829 l 879 797 l 910 767 l 936 721 q 944 708 942 714 l 960 674 l 967 631 q 974 574 976 618 l 969 517 l 961 460 l 943 406 l 917 342 l 825 376 l 721 400 l 640 400 l 601 397 l 533 376 l 469 350 l 492 315 l 569 336 q 599 341 583 339 q 635 343 615 343 l 690 331 l 738 314 l 797 265 l 739 240 l 736 239 l 715 231 l 685 221 l 636 215 l 563 215 l 511 226 l 469 240 l 424 265 l 372 303 l 338 338 l 306 379 l 278 421 l 254 472 l 233 539 l 221 596 l 213 711 l 221 775 l 235 851 l 258 911 l 283 969 l 224 940 l 181 914 l 132 865 l 93 815 q 81 795 86 806 q 69 772 75 785 l 47 714 l 31 649 l 26 600 l 32 460 l 49 390 l 64 344 l 92 281 l 117 236 l 168 168 l 210 124 l 247 93 l 308 54 l 375 25 l 428 11 l 494 3 l 544 1 l 594 1 l 664 13 l 757 36 l 800 58 l 844 85 l 918 149 l 968 97 l 1013 43 l 1043 56 l 1072 71 l 1131 125 l 1154 158 l 1175 194 l 1185 231 l 1190 267 z "},"R":{"ha":1168,"x_min":25,"x_max":1142,"o":"m 1142 182 l 1090 158 q 1081 156 1092 158 l 1050 156 l 1019 168 l 993 193 l 968 232 l 904 367 l 879 407 l 851 443 l 814 469 q 792 482 804 476 q 765 493 781 488 l 828 503 l 893 525 l 936 553 l 981 590 l 1006 629 l 1025 671 l 1032 706 l 1032 769 l 1014 825 l 992 875 l 964 910 l 939 935 l 894 961 l 856 982 l 750 1017 l 628 1038 l 479 1040 l 347 1025 l 222 992 l 168 968 l 113 939 l 76 913 l 25 868 l 85 865 l 115 858 l 147 849 l 164 824 q 174 789 169 817 l 175 143 l 167 92 l 153 61 l 121 50 l 85 49 l 85 3 l 532 3 l 533 50 l 483 54 q 453 78 465 64 l 444 104 l 443 797 l 457 850 q 503 897 467 869 l 415 915 l 358 922 l 317 922 l 253 913 l 179 897 l 242 929 l 319 961 l 386 978 l 439 988 l 510 985 l 558 979 l 606 961 l 656 935 l 690 899 q 705 882 697 892 q 722 861 713 872 q 735 831 729 846 q 746 803 742 817 q 761 744 753 788 l 751 678 l 735 621 l 699 574 q 653 536 692 565 l 592 519 l 517 511 l 518 490 l 572 483 l 618 469 l 644 438 l 667 404 l 682 360 l 694 311 l 726 204 l 747 131 l 778 61 l 810 21 l 849 -8 l 894 -26 q 936 -32 904 -32 l 978 -22 l 1025 -3 l 1058 24 l 1093 61 l 1122 122 q 1142 182 1128 131 z "},"S":{"ha":1028,"x_min":26,"x_max":1001,"o":"m 1001 353 l 986 451 l 963 500 l 932 556 l 894 593 l 853 628 l 796 656 q 745 674 764 667 q 719 683 726 681 l 651 693 q 626 697 636 696 q 610 699 615 697 l 575 699 l 501 708 l 431 728 l 390 758 l 357 799 l 344 836 l 343 875 l 356 914 q 376 946 358 925 l 408 964 q 457 976 418 969 l 536 974 l 611 964 l 650 944 l 689 921 l 729 871 l 750 846 l 774 824 l 815 807 l 858 806 l 896 813 l 926 826 l 956 867 l 971 901 l 982 957 q 989 1032 989 968 l 939 999 l 903 985 l 864 976 l 821 981 l 774 999 l 724 1019 l 671 1039 l 550 1061 l 424 1061 l 300 1038 l 247 1014 l 206 988 l 164 946 l 135 908 l 113 857 q 107 840 110 851 q 101 813 104 829 l 101 779 l 104 742 l 113 700 l 136 656 l 178 607 l 228 569 l 304 533 q 371 515 343 522 q 417 506 399 508 l 497 493 l 563 482 l 624 461 l 665 428 l 703 393 l 731 342 q 737 325 733 336 q 746 294 740 314 l 746 265 l 743 232 l 735 193 l 707 151 l 675 117 l 621 92 q 576 80 594 85 q 547 72 558 75 l 467 86 l 418 101 l 368 132 l 325 171 l 290 226 l 269 269 l 256 328 q 253 389 253 342 l 199 353 l 150 315 l 110 268 l 75 218 l 50 163 q 43 142 47 156 q 32 108 39 128 q 29 89 31 97 q 26 74 28 81 l 26 4 l 79 33 l 146 58 l 199 57 l 249 51 l 375 24 l 464 8 q 553 4 486 4 l 569 4 q 653 8 625 4 l 715 18 l 803 54 l 847 76 l 889 111 l 928 150 l 957 196 l 985 256 l 996 304 l 1001 353 z "},"T":{"ha":1094,"x_min":25,"x_max":1069,"o":"m 1069 1035 l 1011 1024 l 144 1019 l 86 1024 l 25 1035 l 99 665 l 106 728 l 121 789 l 150 840 l 183 888 l 219 915 l 281 953 q 288 956 283 954 q 297 958 292 957 q 304 960 301 960 q 311 963 307 961 q 322 965 315 964 q 343 967 329 965 q 411 976 356 972 l 410 142 l 407 108 l 400 78 q 369 54 385 60 l 324 50 l 322 3 l 769 3 l 769 49 l 732 51 l 703 61 l 685 96 q 682 143 682 110 l 679 975 q 753 968 721 975 l 817 953 l 867 922 l 915 888 l 947 839 q 963 813 956 825 q 975 789 969 800 l 989 731 l 999 668 l 1069 1035 z "},"U":{"ha":983,"x_min":26,"x_max":957,"o":"m 957 599 l 956 700 l 949 779 l 938 851 l 919 924 l 899 971 l 872 1007 l 844 1019 l 685 900 l 708 885 l 738 863 l 760 838 l 782 808 l 806 765 l 824 724 l 850 617 l 854 496 l 836 344 l 814 290 l 781 240 q 751 217 761 225 q 738 208 740 210 q 694 186 722 197 l 636 172 l 585 171 l 532 181 l 481 199 l 443 225 l 411 261 l 390 317 q 386 372 386 335 l 385 925 q 418 985 407 971 q 472 1018 431 999 l 472 1071 l 26 925 l 26 879 l 60 878 l 93 871 q 107 843 104 854 l 115 803 l 114 308 l 126 236 l 143 183 l 176 132 l 210 92 l 260 58 l 306 33 l 368 15 q 419 6 379 10 l 475 6 l 511 7 l 558 11 l 613 24 l 678 46 l 726 71 l 786 111 q 810 135 797 122 q 835 163 822 147 l 868 203 l 894 253 l 921 322 l 938 407 l 951 511 l 957 599 z "},"V":{"ha":1119,"x_min":24,"x_max":1094,"o":"m 1094 876 l 1085 946 l 1064 992 l 1031 1033 l 997 1061 l 790 882 l 822 872 l 849 863 l 871 842 l 890 822 l 904 789 l 913 758 l 911 708 l 906 658 l 890 604 l 867 536 l 794 383 l 735 282 l 681 197 l 386 890 q 382 926 375 914 q 418 940 393 936 l 475 944 l 474 989 l 24 989 l 24 943 q 82 926 67 935 q 124 882 96 918 l 447 79 q 426 31 435 42 q 386 3 418 19 l 526 3 l 600 13 l 674 25 l 738 47 l 800 78 q 740 101 751 94 l 694 150 l 761 231 l 826 311 l 893 404 l 940 476 l 1011 597 l 1036 651 l 1064 717 l 1088 806 l 1094 876 z "},"W":{"ha":1749,"x_min":25,"x_max":1722,"o":"m 1722 844 l 1714 918 l 1690 979 l 1658 1029 l 1622 1071 l 1400 929 l 1435 918 l 1461 906 l 1490 882 l 1513 858 l 1532 822 l 1546 788 l 1551 744 l 1551 678 l 1539 621 l 1517 551 l 1486 482 l 1440 393 l 1385 308 l 1310 206 l 1018 903 l 1024 929 l 1038 947 l 1114 954 l 1113 1001 l 663 1001 l 663 953 q 719 932 704 943 q 764 885 732 924 l 882 597 l 882 556 q 880 539 881 546 q 879 529 879 532 l 878 504 l 861 457 l 839 410 l 806 358 l 772 311 l 681 206 l 382 903 l 390 929 l 411 947 l 478 954 l 476 1001 l 25 1001 l 25 953 q 81 933 67 943 l 128 885 l 451 88 l 421 29 l 382 -10 l 493 -3 l 603 7 l 660 21 l 707 36 l 754 61 l 800 89 l 772 90 l 751 96 l 733 103 l 721 113 l 711 122 l 707 131 l 706 135 l 707 139 l 803 236 l 846 293 l 888 351 l 917 411 l 944 476 l 1072 79 q 1046 29 1049 32 l 1015 3 l 1160 6 l 1226 14 l 1300 26 l 1364 47 l 1432 78 l 1388 83 l 1354 92 l 1336 118 l 1335 154 l 1421 257 l 1483 336 l 1592 494 l 1635 568 l 1664 628 l 1706 739 l 1717 794 l 1722 844 z "},"X":{"ha":1228,"x_min":25,"x_max":1201,"o":"m 1201 3 l 1201 49 q 1143 82 1157 71 q 1124 101 1136 88 q 1097 133 1113 114 l 699 619 l 1110 1061 l 932 1054 l 713 1038 l 747 1003 l 751 953 l 735 890 l 696 806 l 639 704 l 475 921 q 453 982 453 964 q 465 1038 453 997 l 335 1017 l 261 993 l 192 967 l 139 932 l 90 890 q 126 878 111 883 q 147 867 140 872 l 190 828 l 482 490 l 317 279 l 201 150 l 160 113 l 128 85 l 96 67 l 71 56 q 25 49 36 49 l 25 3 l 414 3 l 417 50 l 376 56 q 350 72 358 64 l 339 103 l 350 156 l 385 219 l 444 303 l 533 404 l 693 213 l 713 178 l 728 143 l 733 104 l 733 94 l 732 78 q 683 49 714 56 l 683 3 l 1201 3 z "},"Y":{"ha":1094,"x_min":25,"x_max":1071,"o":"m 1071 1038 l 974 1031 l 904 1018 l 846 1006 l 783 983 l 724 960 q 749 925 738 946 l 750 903 l 750 864 l 733 792 l 693 703 l 632 611 l 410 929 l 394 956 l 385 989 l 390 1019 l 407 1044 l 310 1043 l 199 1025 l 99 993 l 58 972 l 25 949 l 57 938 l 90 918 q 106 900 100 908 q 118 885 113 892 q 130 870 124 879 q 146 847 136 861 l 386 481 l 388 143 l 381 92 l 368 61 l 340 50 l 304 49 l 304 3 l 751 3 l 754 50 l 721 51 l 693 61 q 683 81 686 72 q 679 92 681 89 l 671 142 l 671 526 l 1071 1038 z "},"Z":{"ha":1028,"x_min":26,"x_max":1001,"o":"m 1001 319 l 982 342 l 950 297 l 922 268 q 868 258 899 258 l 358 257 l 971 1060 l 906 1028 l 863 1019 l 233 1019 l 201 1031 l 172 1060 l 61 704 l 83 704 l 136 750 q 153 758 143 754 q 176 765 163 763 l 654 765 l 26 -15 l 76 0 l 774 3 q 828 -3 807 3 l 867 -15 l 1001 319 z "},"[":{"ha":286,"x_min":28,"x_max":265,"o":"m 265 1208 l 28 1208 l 28 -236 l 264 -236 l 264 -160 l 101 -160 l 101 1131 l 264 1131 l 265 1208 z "},"\\":{"ha":618,"x_min":57,"x_max":593,"o":"m 144 819 l 146 143 l 138 92 l 124 61 l 86 49 l 57 49 l 57 3 l 472 3 l 474 50 l 424 54 q 393 78 406 64 l 386 103 l 385 736 l 378 785 l 368 824 l 335 871 l 324 894 l 315 929 l 319 958 q 336 982 324 969 l 367 990 l 393 992 q 410 975 404 981 q 417 968 415 969 q 424 955 419 965 q 435 929 428 944 l 450 893 l 471 868 l 500 854 l 528 853 l 554 863 l 579 876 l 590 897 q 593 914 593 908 l 593 929 l 569 978 l 546 1010 l 513 1028 l 464 1050 l 421 1056 l 356 1056 l 304 1043 l 250 1019 l 211 985 l 178 946 l 157 889 q 144 819 151 872 z "},"]":{"ha":289,"x_min":21,"x_max":261,"o":"m 261 -237 l 261 1208 l 24 1208 l 21 1131 l 183 1131 l 183 -160 l 21 -160 l 24 -237 l 261 -237 z "},"^":{"ha":413,"x_min":25,"x_max":388,"o":"m 388 858 l 251 1043 l 160 1043 l 25 858 l 201 950 l 388 858 z "},"_":{"ha":983,"x_min":28,"x_max":956,"o":"m 956 -171 l 956 -94 l 28 -94 l 28 -171 l 956 -171 z "},"`":{"ha":844,"x_min":118,"x_max":419,"o":"m 419 803 l 357 1043 l 118 1043 l 419 803 z "},"a":{"ha":846,"x_min":26,"x_max":821,"o":"m 821 4 l 783 25 l 753 56 l 736 97 l 729 142 l 731 482 q 726 531 731 511 l 713 589 l 685 622 l 653 657 q 621 674 633 668 q 603 683 608 681 l 556 701 q 496 711 518 711 l 439 718 l 329 711 l 268 696 l 222 682 q 179 672 193 672 l 135 671 l 90 683 l 51 704 l 60 639 l 78 581 l 107 546 l 142 522 l 181 518 l 219 522 l 257 549 l 293 583 l 310 604 l 336 629 l 372 643 l 413 651 l 450 646 l 486 631 l 507 593 q 513 575 510 588 q 518 543 515 563 l 519 456 l 378 458 l 317 449 l 265 439 l 207 417 l 164 397 l 125 369 l 86 336 l 63 301 l 42 268 q 34 237 36 250 q 31 215 32 224 l 26 182 l 32 151 l 40 122 l 78 69 l 111 44 l 146 26 l 192 14 q 243 7 231 7 l 299 10 l 358 19 l 439 47 l 518 79 q 556 28 539 40 q 614 3 565 19 l 821 4 m 519 389 l 518 144 l 450 124 l 400 118 l 351 125 l 314 139 l 286 161 l 264 192 l 256 224 l 256 265 l 274 303 l 294 331 l 329 353 l 381 376 l 469 389 l 519 389 z "},"b":{"ha":856,"x_min":26,"x_max":832,"o":"m 832 428 l 817 483 l 796 536 l 761 582 l 722 626 l 668 657 l 608 681 l 354 543 l 356 1061 l 257 1042 l 135 1006 l 81 979 l 28 944 l 75 939 q 106 914 93 931 l 114 888 l 117 143 l 108 92 l 93 61 l 56 49 l 26 49 l 26 3 l 510 4 l 572 13 l 633 32 l 682 64 l 729 100 l 769 153 l 796 197 l 815 253 l 831 311 l 831 368 l 832 408 l 832 428 m 622 325 l 618 267 l 610 217 l 589 168 l 563 125 l 524 96 l 478 75 l 415 76 l 356 89 l 354 481 q 464 531 401 510 l 507 522 l 547 504 l 571 474 l 600 428 l 614 378 l 622 325 z "},"c":{"ha":754,"x_min":26,"x_max":729,"o":"m 729 267 q 696 247 711 256 q 667 231 681 238 l 601 197 l 547 182 l 496 174 l 446 174 l 394 182 l 353 200 l 311 221 l 279 249 l 251 279 l 225 328 l 210 363 l 196 422 q 194 442 194 429 q 193 476 193 456 l 200 521 l 214 564 l 239 593 l 274 621 l 321 638 q 376 649 331 640 l 450 633 l 507 601 q 525 563 518 578 q 533 540 532 547 q 538 478 538 528 l 581 503 l 618 533 l 646 578 l 669 629 q 672 649 671 642 q 672 658 672 656 l 672 700 l 671 739 l 635 714 l 599 699 l 565 699 l 524 703 l 436 718 l 421 718 l 382 717 l 325 717 l 253 699 l 204 681 l 153 644 l 114 610 l 79 558 l 56 515 l 38 457 l 26 407 l 26 369 l 28 324 l 31 279 l 44 232 l 68 174 l 103 124 l 135 88 l 175 57 l 233 26 q 265 17 251 21 q 290 13 279 14 l 364 4 l 435 10 l 493 22 l 544 46 l 600 76 l 642 114 l 681 160 l 707 213 l 729 267 z "},"d":{"ha":879,"x_min":24,"x_max":853,"o":"m 853 50 l 803 54 l 786 63 l 774 78 l 764 1061 l 665 1042 l 543 1006 l 489 979 l 436 944 l 483 939 l 514 915 l 522 888 l 525 668 q 478 685 499 679 l 449 693 q 388 701 414 699 l 319 690 l 267 675 l 208 640 l 164 607 l 126 563 q 56 438 76 504 l 33 368 l 25 326 q 24 290 24 322 l 24 246 l 35 194 l 56 135 l 86 92 l 131 49 q 181 25 167 29 l 257 3 l 524 142 l 524 3 l 851 3 l 853 50 m 525 606 l 524 203 l 456 168 q 406 151 439 160 l 356 153 l 321 161 l 289 188 l 269 215 l 256 258 l 247 299 l 247 317 l 249 350 l 257 410 l 269 453 l 292 504 l 324 547 l 350 578 q 389 601 375 596 l 428 617 l 451 617 l 483 613 l 525 606 z "},"e":{"ha":822,"x_min":26,"x_max":797,"o":"m 797 258 l 757 281 l 689 243 l 622 208 l 564 188 l 500 174 l 404 174 l 357 185 l 322 199 l 292 222 l 269 250 l 393 300 l 510 361 l 606 421 l 651 456 l 685 485 l 717 515 l 739 543 l 700 592 l 664 629 l 617 656 l 563 682 l 501 697 l 449 706 l 426 706 l 382 704 l 332 700 l 267 681 l 207 658 l 164 632 l 117 593 l 85 553 l 54 499 l 39 449 l 26 379 q 31 317 26 333 l 50 236 l 82 174 l 114 119 l 156 78 l 203 44 l 256 24 q 271 18 263 21 q 286 14 279 15 q 324 6 317 7 l 386 6 l 425 7 l 485 19 l 540 36 l 593 60 l 646 90 l 693 126 l 735 165 l 765 207 l 797 258 m 511 503 l 499 476 l 481 450 l 453 424 l 422 399 l 378 372 l 333 351 l 231 319 l 211 372 l 196 425 l 196 519 l 206 556 l 219 590 l 236 611 l 257 629 l 315 638 l 336 636 l 361 636 l 410 615 l 453 593 l 497 547 l 508 531 q 511 503 511 519 z "},"f":{"ha":618,"x_min":25,"x_max":593,"o":"m 593 929 l 569 978 l 546 1010 l 513 1028 l 464 1050 l 421 1056 l 356 1056 l 304 1043 l 250 1019 l 211 985 l 178 946 l 157 889 q 144 819 151 872 l 144 735 l 25 735 l 25 642 l 144 642 l 146 143 l 138 92 l 124 61 l 86 49 l 57 49 l 57 3 l 472 3 l 474 50 l 424 54 q 393 78 406 64 l 386 103 l 382 642 l 503 642 l 503 735 l 385 736 l 378 785 l 368 824 l 335 871 l 324 894 l 315 929 l 319 958 q 336 982 324 969 l 367 990 l 393 992 q 410 975 404 981 q 417 968 415 969 q 424 955 419 965 q 435 929 428 944 l 450 893 l 471 868 l 500 854 l 528 853 l 554 863 l 579 876 l 590 897 q 593 914 593 908 l 593 929 z "},"g":{"ha":771,"x_min":25,"x_max":747,"o":"m 747 -47 l 738 0 l 722 39 l 690 76 l 657 104 l 593 125 l 529 135 l 386 128 l 268 119 l 235 132 l 215 156 l 217 181 l 236 204 l 286 192 l 340 185 l 435 193 l 499 217 l 529 229 l 568 257 l 607 290 l 633 325 l 656 363 l 669 414 l 676 460 l 668 511 l 657 563 l 635 599 l 606 636 l 535 679 l 489 690 l 446 696 q 393 692 426 696 l 349 686 q 333 717 333 706 l 340 742 q 378 753 371 753 l 418 744 l 468 754 l 497 769 l 513 800 l 514 833 l 494 865 q 465 894 488 875 q 404 904 435 904 l 349 906 l 310 886 l 281 865 q 270 842 274 851 q 265 825 267 832 l 258 778 l 268 725 l 288 668 l 221 638 l 158 597 l 124 549 l 94 490 q 85 436 85 460 l 83 382 l 99 325 l 117 278 l 151 238 l 186 213 l 131 200 l 81 178 l 51 147 l 28 108 l 25 71 l 28 33 l 50 -3 l 79 -32 q 128 -53 113 -47 q 185 -62 139 -56 l 321 -61 l 419 -67 l 456 -71 l 493 -81 l 532 -99 q 549 -119 544 -110 l 540 -140 l 508 -160 l 456 -172 l 383 -178 q 325 -182 347 -181 q 296 -185 303 -183 l 244 -201 l 211 -232 q 182 -294 199 -247 l 329 -376 q 333 -324 329 -339 l 353 -278 l 390 -249 l 440 -231 q 551 -221 511 -231 l 625 -204 l 676 -172 l 722 -133 l 739 -92 l 747 -47 m 493 379 l 476 331 l 456 278 l 415 247 q 375 236 407 242 l 333 250 l 294 278 l 271 322 l 254 379 l 254 490 l 271 546 l 294 593 l 333 621 q 374 633 349 626 l 415 621 l 454 593 q 476 539 472 564 l 492 490 l 492 439 l 493 397 l 493 379 z "},"h":{"ha":881,"x_min":25,"x_max":857,"o":"m 857 347 l 853 401 l 847 453 l 831 501 l 811 546 l 782 586 l 742 629 l 693 658 l 631 689 l 353 543 l 354 1056 l 256 1040 l 199 1024 l 133 1003 l 79 978 l 26 944 l 74 939 l 104 915 l 113 888 l 115 143 l 107 92 l 92 61 l 54 49 l 25 49 l 25 3 l 442 3 l 443 50 l 393 54 l 376 63 l 364 78 l 357 103 l 353 142 l 353 481 l 519 536 l 579 486 q 628 436 599 469 q 638 413 633 425 q 647 385 642 400 l 657 333 l 650 299 l 633 231 l 579 125 l 519 22 q 504 -4 510 7 q 496 -25 499 -15 l 478 -79 l 474 -131 l 478 -183 l 506 -233 l 547 -285 l 542 -253 q 539 -222 538 -228 l 543 -172 l 558 -139 q 592 -90 575 -111 l 746 46 l 788 107 l 831 193 l 850 261 l 857 347 z "},"i":{"ha":468,"x_min":25,"x_max":443,"o":"m 356 914 l 347 950 q 339 969 344 957 q 325 997 333 982 l 283 1022 q 265 1028 278 1025 q 233 1038 253 1032 l 181 1022 l 143 997 l 121 957 l 113 914 l 122 868 l 143 829 l 182 803 l 233 790 l 283 803 l 325 829 l 347 872 l 356 914 m 443 50 l 393 54 l 376 63 l 364 78 l 357 103 l 354 721 l 256 704 l 133 664 l 78 636 l 26 606 l 74 600 l 104 576 l 113 549 l 115 143 l 107 92 l 92 61 l 54 49 l 25 49 l 25 3 l 442 3 l 443 50 z "},"j":{"ha":413,"x_min":22,"x_max":386,"o":"m 386 914 l 376 958 q 356 997 375 969 l 317 1022 q 267 1038 311 1026 l 214 1022 q 174 997 201 1018 l 153 958 l 143 914 l 153 868 l 174 829 l 214 803 l 267 790 l 315 803 q 356 829 329 808 l 378 869 l 386 914 m 385 721 l 288 704 l 164 664 l 108 636 l 57 606 l 106 600 l 135 576 l 143 549 l 146 -3 l 139 -60 l 129 -107 l 86 -201 l 57 -239 l 22 -278 l 172 -247 l 233 -222 l 286 -194 l 325 -151 l 357 -104 l 374 -37 q 383 33 383 -3 l 385 721 z "},"k":{"ha":861,"x_min":25,"x_max":838,"o":"m 838 157 l 817 239 l 794 276 l 767 318 l 696 378 l 644 403 l 593 419 l 656 472 q 683 503 672 490 q 700 522 694 515 q 718 590 718 564 l 718 626 l 696 669 l 664 718 l 474 606 l 517 583 q 531 546 526 569 l 524 522 l 513 499 l 456 425 l 353 325 l 354 1061 l 256 1042 l 133 1006 l 79 979 l 26 944 l 74 939 l 104 915 l 113 888 l 115 143 l 107 92 l 92 61 l 54 49 l 25 49 l 25 3 l 442 3 l 443 50 l 393 54 l 376 63 l 364 78 l 357 103 l 353 142 l 353 265 l 400 313 l 433 299 l 475 281 l 518 249 l 560 214 l 579 178 l 581 143 l 571 94 l 561 51 l 544 -1 l 536 -43 l 539 -90 l 554 -136 q 611 -181 597 -172 l 665 -207 l 642 -164 q 639 -131 639 -153 l 653 -99 l 676 -68 l 742 -12 l 779 19 l 803 44 l 818 63 l 833 92 l 838 136 l 838 157 z "},"l":{"ha":468,"x_min":25,"x_max":443,"o":"m 443 50 l 393 54 l 376 63 l 364 78 l 354 1061 l 256 1042 l 133 1006 l 79 979 l 26 944 l 74 939 l 104 915 l 113 888 l 115 143 l 107 92 l 92 61 l 54 49 l 25 49 l 25 3 l 442 3 l 443 50 z "},"m":{"ha":1372,"x_min":24,"x_max":1346,"o":"m 1346 347 l 1335 453 l 1318 501 l 1299 546 l 1269 586 l 1229 629 l 1181 658 l 1118 689 l 842 544 l 804 593 l 757 642 l 696 671 q 632 685 688 676 l 357 543 l 358 690 l 254 679 l 193 661 l 132 640 l 79 611 l 24 575 l 75 569 q 107 546 96 557 l 113 521 q 115 511 113 522 l 117 143 l 108 92 l 94 61 q 78 56 85 58 q 65 50 71 53 l 28 49 l 28 3 l 444 3 l 446 50 l 399 54 q 367 78 375 65 l 360 103 l 356 142 l 357 467 l 375 489 q 404 508 376 493 l 442 518 l 482 524 l 521 518 l 557 511 l 583 492 l 601 469 l 603 143 l 592 93 l 579 61 q 563 56 569 58 q 549 50 556 53 l 511 49 l 511 3 l 929 3 l 931 50 l 881 54 l 864 63 l 851 78 l 843 103 l 839 142 l 839 472 l 1003 542 q 1025 519 1014 531 q 1047 497 1036 508 q 1056 488 1051 492 q 1065 478 1060 483 l 1099 436 l 1115 382 l 1122 332 l 1114 279 l 1100 226 l 996 19 l 978 -21 l 960 -79 l 960 -121 l 961 -149 l 965 -182 l 994 -233 l 1035 -285 q 1026 -243 1029 -258 q 1025 -221 1024 -228 l 1029 -172 l 1050 -131 l 1081 -90 l 1115 -57 l 1204 17 l 1235 46 l 1271 99 l 1300 151 l 1319 193 l 1336 261 l 1346 347 z "},"n":{"ha":882,"x_min":24,"x_max":857,"o":"m 857 347 l 846 453 l 831 496 l 808 546 l 779 586 l 740 629 l 692 658 l 629 689 l 351 543 l 353 690 l 256 672 l 190 651 l 132 632 l 78 603 l 25 569 l 74 568 q 103 544 93 558 l 111 515 l 114 143 l 106 92 l 90 61 l 53 49 l 24 49 l 24 3 l 440 3 l 442 50 l 417 50 l 393 54 q 363 78 375 64 l 356 103 l 351 142 l 351 481 l 519 536 q 614 432 578 482 l 631 385 l 639 329 l 629 275 l 614 225 l 563 121 l 533 69 l 508 18 l 486 -31 l 471 -82 l 471 -122 l 472 -150 l 476 -183 l 506 -235 l 546 -285 l 540 -253 q 538 -222 536 -228 l 542 -172 l 561 -131 q 572 -112 564 -122 q 590 -90 585 -94 l 625 -57 l 744 46 l 779 97 l 808 151 l 829 193 l 847 261 l 857 347 z "},"o":{"ha":776,"x_min":26,"x_max":750,"o":"m 750 364 l 743 418 l 736 463 l 713 513 l 685 569 l 613 646 l 564 674 l 496 703 l 447 713 l 371 721 l 294 693 l 251 674 l 211 643 l 182 611 q 167 563 167 572 l 167 536 l 179 497 l 196 461 l 222 436 l 251 417 l 282 411 q 295 409 289 410 q 306 408 301 408 l 324 408 l 364 421 l 407 443 l 368 453 l 340 468 l 329 499 l 333 524 l 358 549 q 401 575 368 558 l 463 575 l 553 565 q 596 539 592 544 l 633 506 l 654 456 q 658 427 657 439 q 661 408 660 415 l 650 356 l 631 304 l 596 264 l 557 231 l 518 214 q 506 210 511 211 q 494 207 500 208 q 432 197 479 201 q 375 201 389 197 l 317 218 l 271 243 l 233 271 l 193 311 l 165 353 l 147 390 q 135 427 140 413 q 128 451 131 442 l 125 489 l 126 544 l 143 596 l 161 642 l 135 626 l 113 610 l 89 578 l 69 549 l 51 506 l 40 468 l 26 375 l 28 313 l 35 263 l 51 215 l 71 169 l 92 139 l 135 90 l 174 61 l 231 32 q 303 13 281 14 l 363 4 l 435 10 l 497 22 l 567 51 l 617 81 l 656 117 l 689 156 l 714 203 l 739 263 l 749 313 l 750 364 z "},"p":{"ha":876,"x_min":26,"x_max":853,"o":"m 853 376 l 844 425 l 831 482 l 808 526 l 779 575 l 747 608 l 706 643 q 664 660 688 653 q 613 674 640 667 l 354 543 l 356 699 l 257 682 l 203 667 l 135 646 l 90 621 l 28 575 l 76 569 l 107 546 l 113 521 q 115 511 113 522 l 117 -207 l 108 -251 l 94 -283 l 65 -293 l 26 -294 l 26 -340 l 446 -340 l 447 -292 l 408 -290 l 378 -283 l 361 -253 l 354 -210 l 356 4 l 467 6 l 549 15 l 631 40 l 690 67 l 744 108 l 785 149 l 818 203 l 838 250 l 850 313 q 852 328 851 319 q 853 349 853 338 l 853 376 m 656 326 l 646 268 l 636 217 l 618 179 l 593 139 l 563 108 l 536 88 l 501 69 l 468 60 l 440 56 l 411 56 l 369 67 q 356 93 361 74 l 354 481 l 406 500 l 457 513 l 513 510 l 556 503 q 592 478 583 488 l 625 443 l 644 390 q 650 367 647 383 q 656 326 653 351 z "},"q":{"ha":893,"x_min":24,"x_max":867,"o":"m 867 -292 l 831 -290 l 803 -283 q 785 -254 788 -264 l 776 -210 l 776 557 q 810 618 796 601 q 864 650 821 631 l 864 696 l 539 699 l 451 690 l 347 675 l 263 644 l 203 617 l 143 571 l 101 531 q 77 493 86 507 q 65 475 68 479 l 43 428 l 31 376 q 24 301 24 344 l 31 253 l 46 196 l 69 151 l 106 103 l 143 69 l 196 36 l 246 18 l 318 3 l 538 142 l 539 -207 l 529 -253 l 514 -283 l 482 -293 l 449 -294 l 449 -340 l 864 -340 l 867 -292 m 539 606 l 538 203 l 472 176 l 422 164 l 375 167 l 335 182 l 300 211 l 278 240 l 260 283 l 249 325 l 249 436 l 260 479 l 279 526 q 294 546 288 538 q 303 558 300 554 l 339 596 l 374 611 q 408 622 396 618 q 425 626 421 625 q 469 622 450 626 l 539 606 z "},"r":{"ha":750,"x_min":26,"x_max":726,"o":"m 726 589 l 711 628 l 700 650 l 678 671 l 647 689 l 576 696 l 522 683 l 476 671 l 414 639 l 354 604 l 356 690 l 257 672 l 190 651 l 135 632 l 81 603 l 28 569 l 75 568 q 106 544 94 560 l 114 515 l 117 143 l 108 92 l 93 61 l 56 49 l 26 49 l 26 3 l 443 3 l 444 50 l 394 54 l 378 63 l 365 78 l 358 103 l 354 142 l 356 544 q 457 568 411 568 q 510 542 497 553 l 563 499 l 597 483 l 632 478 l 665 485 l 697 503 l 715 539 q 721 557 718 544 q 726 589 724 569 z "},"s":{"ha":783,"x_min":25,"x_max":758,"o":"m 758 208 l 756 249 l 743 289 l 715 325 l 681 364 l 629 397 l 567 428 l 475 454 q 462 459 468 457 q 449 464 456 461 l 403 474 l 354 500 l 319 531 l 307 571 l 313 604 l 342 625 q 360 631 347 628 q 392 636 372 633 q 481 626 460 636 l 524 607 l 567 581 q 622 567 572 575 q 647 576 636 571 q 667 586 657 581 q 681 611 674 594 l 692 643 q 694 660 693 651 q 694 679 694 669 l 694 721 l 656 697 l 614 679 l 572 674 l 525 682 l 440 694 l 321 690 l 264 675 l 214 660 l 168 633 l 126 599 l 106 561 l 93 521 l 100 481 l 118 440 l 165 396 l 221 361 l 311 325 l 414 297 l 465 275 l 504 247 q 524 210 522 221 l 532 174 l 521 138 l 499 107 l 460 86 q 414 78 453 82 l 346 79 l 281 86 l 249 94 l 204 113 l 183 133 l 168 161 l 158 210 l 157 236 l 114 207 q 100 194 108 204 q 78 169 92 185 l 51 119 l 31 67 l 25 31 l 25 -22 l 76 4 q 97 13 82 8 l 122 19 l 185 17 l 240 13 l 299 7 q 303 6 300 7 q 314 4 307 6 l 406 4 l 486 10 l 551 22 l 610 44 l 661 68 l 700 99 l 731 132 l 749 168 q 758 208 754 176 z "},"t":{"ha":611,"x_min":24,"x_max":588,"o":"m 588 244 q 554 208 567 219 l 518 186 l 483 183 q 449 191 464 189 q 428 194 435 193 q 396 226 401 217 l 381 265 l 381 674 l 501 674 l 501 765 l 381 765 l 383 1061 l 283 1035 l 157 993 l 108 971 l 57 944 l 103 939 l 133 915 l 142 888 l 143 850 l 143 765 l 24 765 l 24 674 l 143 674 l 144 267 l 150 193 l 172 121 l 200 75 l 233 38 l 282 11 l 328 3 q 386 10 365 3 l 431 26 l 474 58 l 517 101 q 544 147 535 129 q 557 171 554 164 l 588 244 z "},"u":{"ha":883,"x_min":26,"x_max":857,"o":"m 857 50 l 807 54 l 790 63 l 778 78 l 769 103 l 768 699 l 669 675 l 547 632 l 493 603 l 440 569 q 476 565 464 569 l 506 558 q 521 531 519 539 q 528 481 528 503 l 529 213 q 483 178 500 188 l 450 160 q 428 156 439 157 q 408 153 418 154 l 382 151 l 354 151 l 318 164 l 289 182 l 257 214 l 239 256 l 240 292 l 251 332 l 293 424 l 311 467 l 326 519 l 326 546 l 322 575 l 315 608 l 275 658 l 222 704 l 117 606 l 150 588 l 175 569 l 185 542 l 186 513 l 174 476 l 158 440 l 101 358 l 69 322 l 42 282 q 36 261 39 271 q 31 244 33 251 l 26 207 l 33 167 l 47 129 l 72 96 l 107 64 l 161 35 l 197 22 l 263 10 l 331 3 l 528 142 l 528 3 l 856 3 l 857 50 z "},"v":{"ha":825,"x_min":24,"x_max":801,"o":"m 801 728 l 724 689 l 651 663 l 597 649 q 578 645 586 646 q 565 643 571 644 l 525 643 l 551 625 l 568 607 l 578 578 l 582 547 l 574 464 l 547 371 l 513 282 l 490 228 l 471 189 l 442 211 l 417 246 l 404 288 l 392 336 l 372 456 l 363 510 l 350 569 l 332 614 l 311 653 l 274 682 l 235 696 l 24 589 l 75 579 l 111 564 l 140 526 l 163 489 l 181 431 l 222 246 l 239 192 l 261 132 q 290 89 275 107 l 329 46 l 376 21 l 442 3 l 603 165 l 553 151 q 515 164 533 151 l 801 728 z "},"w":{"ha":1275,"x_min":25,"x_max":1250,"o":"m 1250 728 l 1172 696 l 1099 668 q 1070 659 1085 663 q 1039 653 1056 656 l 976 643 l 999 629 l 1018 607 l 1025 579 l 1031 547 l 1022 464 l 997 371 l 961 282 l 918 189 l 889 211 l 864 246 l 851 288 l 839 336 l 819 457 l 810 514 l 797 574 l 779 618 l 758 658 q 714 690 729 685 q 681 704 708 696 l 471 589 l 517 583 l 554 558 l 579 531 l 597 496 l 606 471 l 590 376 l 572 335 l 547 282 l 511 229 l 479 189 l 446 210 l 417 246 l 400 289 l 388 336 l 367 457 l 343 574 l 325 617 l 304 657 q 260 689 275 683 q 226 703 254 694 l 25 604 q 69 599 54 604 l 101 588 l 125 560 l 147 529 l 176 438 l 197 329 l 221 217 l 238 169 l 258 117 l 289 74 l 322 40 l 367 17 q 419 3 375 11 l 589 142 l 549 143 l 515 156 l 649 358 l 663 247 l 676 190 l 700 135 l 731 88 l 769 49 q 804 32 794 33 l 825 25 q 890 11 835 19 l 1050 143 l 996 142 q 961 164 974 150 l 1250 728 z "},"x":{"ha":904,"x_min":26,"x_max":878,"o":"m 878 3 l 878 49 l 822 78 l 778 118 l 531 426 l 814 710 l 726 700 l 560 675 l 585 654 l 596 636 q 589 594 596 615 l 576 563 l 546 518 l 504 469 l 407 597 l 388 631 q 382 645 385 636 q 376 668 379 654 l 376 694 l 386 721 l 261 693 l 204 675 l 154 654 l 117 633 l 83 611 q 140 594 124 601 q 189 557 153 589 l 360 326 l 272 231 l 189 142 l 147 106 l 107 76 l 67 57 l 26 49 l 26 3 l 318 3 l 319 50 q 299 53 308 51 q 283 57 290 54 l 267 72 l 269 104 l 292 149 l 331 197 l 397 265 l 478 157 l 500 124 l 518 89 q 515 61 518 75 q 474 49 496 49 l 474 3 l 878 3 z "},"y":{"ha":825,"x_min":25,"x_max":803,"o":"m 803 728 l 725 689 l 653 663 l 599 649 q 580 645 588 646 q 567 643 572 644 l 526 643 l 549 628 l 574 604 l 594 542 l 596 453 l 575 353 l 542 260 l 515 207 l 490 165 l 454 197 l 431 229 l 410 274 l 396 315 l 372 414 l 353 522 l 331 607 l 293 669 q 277 680 283 676 q 268 685 271 683 l 236 696 l 25 589 l 76 579 l 113 564 l 142 526 l 164 489 l 182 431 l 224 246 l 238 192 l 261 132 l 286 89 l 329 46 l 375 22 l 440 4 l 407 -53 q 364 -96 397 -67 l 297 -118 q 280 -123 286 -121 q 271 -126 274 -125 q 252 -129 263 -128 q 231 -133 242 -131 l 107 -140 l 108 -339 q 174 -335 149 -339 l 225 -326 l 269 -304 l 315 -278 l 347 -246 q 393 -190 369 -224 l 461 -56 l 803 728 z "},"z":{"ha":826,"x_min":25,"x_max":800,"o":"m 800 726 l 746 710 q 707 704 729 704 l 292 704 l 242 711 l 183 726 l 114 435 l 144 479 l 175 510 l 204 518 q 233 521 218 521 l 529 519 l 25 -15 l 131 1 l 622 3 q 656 -6 643 3 q 673 -24 665 -15 q 688 -40 681 -32 l 746 249 l 719 217 q 685 189 714 208 q 642 182 657 182 l 294 181 l 800 726 z "},"{":{"ha":535,"x_min":24,"x_max":510,"o":"m 508 1218 q 410 1214 435 1218 l 328 1200 l 260 1172 l 217 1147 q 178 1107 179 1110 l 156 1069 l 140 1017 l 133 972 l 132 911 l 132 850 l 138 739 l 136 690 l 132 636 l 119 592 l 100 543 l 69 507 l 26 471 l 136 476 l 208 489 l 278 514 q 296 523 285 517 q 322 540 307 529 l 360 579 l 382 615 q 391 643 388 631 q 397 665 394 656 q 407 710 403 675 l 404 831 l 399 940 l 399 956 l 400 990 l 404 1046 l 414 1090 l 435 1140 l 464 1178 l 508 1218 m 510 -257 l 472 -222 l 429 -174 l 411 -121 l 400 -65 l 400 50 l 407 174 l 394 288 l 376 328 q 365 349 374 335 q 344 382 357 363 l 293 417 l 232 447 l 140 465 q 100 469 126 468 q 33 471 74 471 l 24 469 l 71 429 l 106 386 l 124 333 q 135 278 126 324 l 136 157 l 131 99 l 129 35 l 140 -75 l 163 -124 l 193 -169 l 242 -203 l 308 -235 l 400 -253 q 490 -257 421 -257 l 510 -257 z "},"|":{"ha":132,"x_min":28,"x_max":104,"o":"m 104 -257 l 104 1211 l 28 1211 l 31 -258 l 104 -257 z "},"}":{"ha":544,"x_min":25,"x_max":521,"o":"m 521 471 l 481 506 l 439 554 l 419 606 q 414 627 417 613 q 408 664 411 642 l 408 788 l 413 913 l 408 975 l 401 1029 q 387 1067 393 1051 q 375 1089 381 1082 l 351 1126 q 236 1193 289 1169 l 144 1213 q 35 1218 121 1218 l 81 1176 l 115 1129 l 133 1075 l 144 1018 l 146 893 l 140 769 l 142 711 l 151 654 l 171 610 l 204 558 l 246 528 l 319 493 l 411 475 q 501 471 432 471 l 521 471 m 444 397 l 468 425 q 499 453 486 442 q 518 469 511 464 q 396 461 446 469 l 338 451 l 281 429 l 225 400 l 188 361 l 165 325 l 147 274 l 142 231 l 140 171 l 140 113 l 144 4 l 136 -94 l 121 -136 l 101 -185 l 72 -218 l 25 -256 q 80 -253 53 -256 q 131 -249 107 -251 l 208 -237 l 275 -212 l 324 -189 l 361 -149 l 385 -114 l 399 -64 l 408 -19 l 410 97 l 406 204 l 411 307 q 428 358 417 332 l 444 397 z "},"~":{"ha":465,"x_min":25,"x_max":440,"o":"m 378 421 l 411 467 q 440 526 418 475 l 399 510 q 336 506 383 506 l 285 518 l 240 531 l 160 556 l 119 553 l 85 540 l 51 493 l 25 436 l 65 449 q 129 453 79 453 l 181 439 l 224 428 l 268 413 l 303 404 l 340 406 l 378 421 z "},"‚":{"ha":349,"x_min":26,"x_max":324,"o":"m 324 57 l 322 113 l 310 172 l 288 214 l 257 251 l 203 276 q 160 282 192 282 q 103 269 110 274 l 60 247 l 36 213 l 26 176 l 36 136 l 60 103 l 104 79 q 160 65 113 75 q 171 0 171 24 l 161 -33 l 149 -68 l 100 -135 l 65 -162 l 32 -186 l 113 -172 l 193 -144 l 242 -103 l 283 -58 l 310 0 q 324 57 315 6 z "},"ƒ":{"ha":540,"x_min":-29,"x_max":542,"o":"m 153 467 l 154 467 q 150 432 154 446 q 146 376 146 413 l 146 361 l 138 361 l 143 361 q 146 358 143 356 l 140 329 l 140 297 q 136 244 136 251 q 144 167 136 217 q 152 123 150 142 q 156 93 154 104 q 193 25 161 76 q 222 -36 222 -21 q 215 -93 219 -89 l 217 -92 q 144 -150 172 -150 q 82 -122 114 -150 q 74 -103 76 -112 q 68 -83 71 -93 l 69 -47 l 64 -21 q 35 19 51 14 q -1 17 7 19 q -19 -1 -10 14 q -29 -24 -29 -15 q 3 -106 -29 -61 l 21 -125 l 54 -149 q 96 -165 76 -161 q 123 -169 113 -168 q 138 -172 133 -171 q 204 -158 183 -169 q 300 -65 275 -118 q 321 17 304 -40 q 338 103 335 68 q 356 288 356 163 q 359 307 358 299 q 361 321 360 315 l 360 349 l 365 407 l 365 453 l 371 519 q 447 522 419 521 q 482 521 475 522 q 488 538 488 521 q 481 553 488 553 l 375 553 l 374 594 q 370 630 372 613 q 364 667 368 647 q 349 703 357 686 q 333 739 342 721 q 323 755 328 749 q 315 767 318 761 q 290 825 296 818 l 290 833 l 286 833 q 314 900 286 869 q 375 935 340 935 q 431 903 406 935 q 443 842 443 879 q 458 772 451 786 q 476 757 474 757 q 522 765 494 758 q 542 817 542 788 q 510 890 542 846 q 457 933 490 915 q 364 958 411 958 q 313 947 342 958 q 251 910 264 928 q 188 768 217 897 q 161 592 161 658 l 157 554 l 83 554 q 72 539 69 554 q 79 521 74 521 l 153 521 l 153 469 l 153 467 z "},"„":{"ha":714,"x_min":26,"x_max":688,"o":"m 688 53 l 686 108 l 675 168 l 653 210 l 622 246 q 606 255 613 251 q 594 261 600 258 q 581 266 586 264 q 572 269 575 268 l 524 282 q 467 269 474 274 l 424 247 l 400 213 l 390 176 l 400 136 l 424 103 l 468 79 q 524 65 476 75 q 535 0 535 24 l 525 -33 l 513 -68 l 464 -135 l 429 -162 l 396 -186 l 478 -172 l 558 -144 l 607 -104 q 626 -86 615 -97 q 647 -60 636 -75 l 674 -1 q 688 53 676 3 m 326 54 l 324 107 l 311 168 l 289 211 l 258 247 l 207 272 l 161 282 q 104 269 111 274 l 61 247 l 36 211 l 26 176 l 36 136 l 61 103 l 106 79 q 161 65 114 75 q 172 0 172 24 l 164 -33 l 150 -68 l 126 -104 l 103 -135 l 68 -162 l 35 -186 l 115 -174 l 194 -144 l 243 -104 l 285 -60 l 310 0 l 326 54 z "},"…":{"ha":1221,"x_min":28,"x_max":1193,"o":"m 1193 140 l 1182 189 l 1160 236 q 1113 265 1126 261 q 1076 276 1090 272 q 1056 281 1063 279 l 1000 265 l 957 239 l 932 192 l 922 143 l 932 93 l 957 49 l 994 24 q 1057 4 1013 13 l 1114 18 q 1160 46 1138 28 l 1183 92 l 1193 140 m 299 140 l 288 189 l 265 236 q 218 265 232 261 q 182 276 196 272 q 161 281 168 279 l 106 265 l 63 239 l 38 192 l 28 143 l 38 93 l 63 49 l 100 24 q 163 4 118 13 l 219 18 q 265 46 243 28 l 289 92 l 299 140 m 746 140 l 735 189 l 713 236 q 665 265 679 261 q 629 276 643 272 q 608 281 615 279 l 553 265 l 510 239 l 485 192 l 475 143 l 485 93 l 510 49 l 547 24 q 610 4 565 13 l 667 18 q 713 46 690 28 l 736 92 l 746 140 z "},"†":{"ha":799,"x_min":13,"x_max":785,"o":"m 465 681 l 785 681 l 785 813 l 465 813 l 465 1075 l 332 1075 l 332 813 l 13 813 l 13 681 l 332 681 l 332 -146 l 465 -146 l 465 681 z "},"‡":{"ha":563,"x_min":21,"x_max":542,"o":"m 542 -101 l 94 1221 l 21 1219 l 467 -101 l 542 -101 z "},"ˆ":{"ha":844,"x_min":228,"x_max":589,"o":"m 589 803 l 454 1043 l 363 1043 l 228 803 l 408 932 l 589 803 z "},"Š":{"ha":1025,"x_min":25,"x_max":1000,"o":"m 718 1385 l 538 1257 l 356 1385 l 492 1146 l 585 1146 l 718 1385 m 1000 353 l 985 451 l 961 500 l 931 556 l 893 593 l 851 628 l 794 656 q 744 674 763 667 q 718 683 725 681 l 650 693 q 624 697 635 696 q 608 699 614 697 l 574 699 l 500 708 l 429 728 l 389 758 l 356 799 l 343 836 l 342 875 l 354 914 q 375 946 357 925 l 407 964 q 456 976 417 969 l 535 974 l 610 964 l 649 944 l 688 921 l 728 871 l 749 846 l 772 824 l 814 807 l 857 806 l 894 813 l 925 826 l 954 867 l 969 901 l 981 957 q 988 1032 988 968 l 938 999 l 901 985 l 863 976 l 819 981 l 772 999 l 722 1019 l 669 1039 l 549 1061 l 422 1061 l 299 1038 l 246 1014 l 204 988 l 163 946 l 133 908 l 111 857 q 106 840 108 851 q 100 813 103 829 l 100 779 l 103 742 l 111 700 l 135 656 l 176 607 l 226 569 l 303 533 q 369 515 342 522 q 415 506 397 508 l 496 493 l 561 482 l 622 461 l 664 428 l 701 393 l 729 342 q 735 325 732 336 q 744 294 739 314 l 744 265 l 742 232 l 733 193 l 706 151 l 674 117 l 619 92 q 575 80 593 85 q 546 72 557 75 l 465 86 l 417 101 l 367 132 l 324 171 l 289 226 l 268 269 l 254 328 q 251 389 251 342 l 197 353 l 149 315 l 108 268 l 74 218 l 49 163 q 42 142 46 156 q 31 108 38 128 q 28 89 29 97 q 25 74 26 81 l 25 4 l 78 33 l 144 58 l 197 57 l 247 51 l 374 24 l 463 8 q 551 4 485 4 l 568 4 q 651 8 624 4 l 714 18 l 801 54 l 846 76 l 888 111 l 926 150 l 956 196 l 983 256 l 994 304 l 1000 353 z "},"‹":{"ha":314,"x_min":19,"x_max":286,"o":"m 286 118 l 199 489 l 286 858 l 19 485 l 286 118 z "},"Œ":{"ha":1694,"x_min":26,"x_max":1668,"o":"m 1668 292 l 1635 324 l 1603 268 l 1575 231 l 1533 192 l 1482 153 l 1435 126 l 1374 99 l 1301 75 l 1238 61 l 1161 49 q 1143 47 1153 47 q 1122 46 1133 46 l 1092 46 l 1094 394 l 1138 440 l 1182 478 l 1221 493 l 1258 500 l 1286 489 l 1313 471 l 1325 436 l 1332 393 l 1514 572 l 1476 639 l 1446 667 l 1413 689 l 1372 699 l 1333 699 l 1290 678 l 1247 647 l 1092 461 l 1094 974 l 1215 963 l 1322 938 l 1379 915 l 1424 894 l 1475 867 l 1521 836 l 1586 774 l 1611 732 l 1632 693 l 1668 724 l 1603 1032 l 1560 1019 q 1548 1017 1554 1018 q 1533 1017 1542 1017 l 839 1017 l 836 1018 q 796 1033 797 1033 l 693 1063 l 549 1067 l 469 1039 l 403 1007 q 372 976 383 988 q 358 960 361 964 l 325 908 l 317 857 l 317 790 l 336 742 q 374 686 342 726 q 415 658 397 664 l 461 640 l 503 636 l 549 642 l 583 660 l 614 683 l 578 681 l 535 690 l 515 714 l 508 744 l 524 782 l 544 808 l 588 829 q 622 840 607 836 q 644 844 636 843 l 697 844 l 743 843 l 793 838 q 809 831 801 835 q 824 825 817 828 l 825 235 l 761 207 l 703 197 l 622 197 l 542 219 l 482 244 l 418 282 l 372 319 l 336 360 l 297 417 l 275 469 l 250 549 l 240 614 l 240 683 l 246 756 l 261 826 l 282 897 l 313 975 l 249 936 l 196 897 l 154 857 l 108 801 l 81 754 l 53 694 l 39 644 l 26 581 l 26 540 l 28 503 l 28 464 l 36 414 l 53 351 l 92 265 l 126 211 l 158 171 l 199 132 l 246 90 l 306 56 l 356 35 l 425 15 l 479 6 l 554 6 l 622 7 l 689 22 l 735 36 l 735 0 l 1513 0 l 1558 0 l 1603 -12 l 1668 292 z "},"‘":{"ha":349,"x_min":25,"x_max":322,"o":"m 322 675 l 307 718 l 289 749 l 246 771 q 213 781 226 778 q 193 786 200 785 q 178 821 182 803 l 189 876 l 217 936 l 261 996 l 290 1022 l 319 1042 l 236 1026 l 156 999 l 107 957 l 67 914 l 40 851 q 25 796 36 844 l 26 738 l 39 679 l 61 636 l 93 600 l 142 576 q 192 568 150 572 l 246 579 l 289 601 l 311 635 q 317 650 314 640 q 322 675 319 660 z "},"’":{"ha":347,"x_min":25,"x_max":322,"o":"m 322 824 l 321 879 l 308 939 l 286 981 l 256 1018 l 201 1043 q 158 1049 190 1049 q 101 1036 108 1040 l 58 1014 l 35 979 l 25 943 l 35 903 l 58 869 l 103 846 q 158 832 111 842 q 169 767 169 790 l 160 731 l 147 696 l 99 629 l 64 601 l 31 578 l 111 592 l 192 619 l 240 661 l 282 706 l 308 765 q 322 824 314 772 z "},"“":{"ha":704,"x_min":26,"x_max":678,"o":"m 678 679 l 667 717 l 646 753 l 601 776 q 549 790 593 782 q 536 826 539 807 l 540 851 l 547 881 l 575 939 l 619 999 l 647 1025 l 676 1044 l 593 1028 l 514 1000 l 465 958 l 424 915 l 397 854 l 385 799 l 385 781 l 386 735 l 397 683 l 419 640 l 450 606 l 499 582 l 547 574 l 603 585 l 646 607 l 667 642 l 678 679 m 321 675 l 310 711 l 289 749 l 244 772 q 190 786 236 778 q 178 821 179 801 l 181 846 l 189 876 l 217 936 l 261 996 l 290 1022 l 319 1042 l 236 1026 l 156 999 l 107 958 l 67 915 l 39 854 l 26 799 l 26 781 l 28 733 l 39 682 l 61 640 l 92 604 l 140 579 l 189 568 l 244 579 l 289 601 l 310 636 q 321 675 314 642 z "},"”":{"ha":714,"x_min":26,"x_max":688,"o":"m 688 819 l 686 875 l 675 935 l 653 976 l 622 1013 q 606 1022 613 1018 q 594 1028 600 1025 q 581 1033 586 1031 q 572 1036 575 1035 l 524 1049 q 467 1036 474 1040 l 424 1014 l 400 979 l 390 943 l 400 903 l 424 869 l 468 846 q 524 832 476 842 q 535 767 535 790 l 525 731 l 513 696 l 464 629 l 429 601 l 396 578 l 478 592 l 558 619 l 607 660 q 626 678 615 667 q 647 704 636 689 l 674 763 q 688 819 679 771 m 326 821 l 324 874 l 311 935 l 289 978 l 258 1014 l 207 1039 l 161 1049 q 104 1036 111 1040 l 61 1014 l 36 978 l 26 943 l 36 903 l 61 869 l 106 846 q 161 832 114 842 q 172 767 172 790 l 164 731 l 150 696 l 126 660 l 103 629 l 68 601 l 35 578 l 115 590 l 194 619 l 243 660 l 285 704 l 310 764 l 326 821 z "},"•":{"ha":465,"x_min":26,"x_max":439,"o":"m 439 557 l 432 606 l 415 660 l 388 697 l 353 731 l 306 750 q 236 763 274 763 l 176 751 l 117 731 l 81 697 l 51 660 l 33 606 l 26 557 l 38 497 l 51 457 l 81 419 l 117 385 q 142 374 128 379 q 175 361 156 368 l 238 353 l 294 363 l 353 385 l 386 418 l 415 457 l 432 511 l 439 557 z "},"–":{"ha":1389,"x_min":0,"x_max":0,"o":""},"—":{"ha":1389,"x_min":0,"x_max":0,"o":""},"˜":{"ha":844,"x_min":179,"x_max":593,"o":"m 543 879 l 569 932 q 578 954 576 947 l 593 997 l 550 968 q 506 954 544 963 l 467 957 l 429 971 l 388 992 l 353 1014 l 318 1031 l 283 1043 l 256 1038 l 228 1022 l 200 971 l 179 906 l 221 931 q 268 946 232 938 l 307 938 l 343 926 l 418 882 l 450 867 l 486 854 l 514 861 l 543 879 z "},"™":{"ha":1142,"x_min":153,"x_max":968,"o":"m 161 986 l 153 856 l 175 856 q 261 958 186 958 l 268 958 l 268 674 q 244 639 268 642 l 224 636 l 224 614 l 404 614 l 404 636 l 383 639 q 360 674 360 642 l 360 958 l 364 958 q 453 856 442 958 l 475 856 l 467 986 l 161 986 m 514 986 l 514 964 l 538 961 q 563 926 563 958 l 563 674 q 538 639 563 640 l 514 636 l 514 614 l 647 614 l 647 636 l 624 639 q 599 674 599 640 l 599 926 l 711 613 l 736 613 l 842 921 l 842 674 q 817 639 842 640 l 796 636 l 796 614 l 968 614 l 968 636 l 950 639 q 925 674 925 643 l 925 931 q 950 965 925 961 l 968 968 l 968 986 l 833 986 l 746 736 l 657 986 l 514 986 z "},"š":{"ha":783,"x_min":25,"x_max":758,"o":"m 589 1043 l 408 915 l 226 1043 l 363 803 l 456 803 l 589 1043 m 758 208 l 756 249 l 743 289 l 715 325 l 681 364 l 629 397 l 567 428 l 475 454 q 462 459 468 457 q 449 464 456 461 l 403 474 l 354 500 l 319 531 l 307 571 l 313 604 l 342 625 q 360 631 347 628 q 392 636 372 633 q 481 626 460 636 l 524 607 l 567 581 q 622 567 572 575 q 647 576 636 571 q 667 586 657 581 q 681 611 674 594 l 692 643 q 694 660 693 651 q 694 679 694 669 l 694 721 l 656 697 l 614 679 l 572 674 l 525 682 l 440 694 l 321 690 l 264 675 l 214 660 l 168 633 l 126 599 l 106 561 l 93 521 l 100 481 l 118 440 l 165 396 l 221 361 l 311 325 l 414 297 l 465 275 l 504 247 q 524 210 522 221 l 532 174 l 521 138 l 499 107 l 460 86 q 414 78 453 82 l 346 79 l 281 86 l 249 94 l 204 113 l 183 133 l 168 161 l 158 210 l 157 236 l 114 207 q 100 194 108 204 q 78 169 92 185 l 51 119 l 31 67 l 25 31 l 25 -22 l 76 4 q 97 13 82 8 l 122 19 l 185 17 l 240 13 l 299 7 q 303 6 300 7 q 314 4 307 6 l 406 4 l 486 10 l 551 22 l 610 44 l 661 68 l 700 99 l 731 132 l 749 168 q 758 208 754 176 z "},"›":{"ha":315,"x_min":26,"x_max":296,"o":"m 296 489 l 26 858 l 118 489 l 26 118 l 296 489 z "},"œ":{"ha":1369,"x_min":26,"x_max":1343,"o":"m 1343 258 l 1303 281 l 1235 243 l 1168 208 l 1110 188 l 1046 174 l 950 174 l 903 185 l 868 199 l 838 222 l 815 250 l 939 300 l 1056 361 l 1151 421 l 1197 456 l 1231 485 l 1263 515 l 1285 543 l 1246 592 l 1210 629 l 1163 656 l 1108 682 l 1047 697 l 994 706 l 972 706 l 928 704 l 878 700 l 813 681 l 753 658 l 710 632 l 663 593 l 613 646 l 564 674 l 496 703 l 447 713 l 371 721 l 294 693 l 251 674 l 211 643 l 182 611 q 167 563 167 572 l 167 536 l 179 497 l 196 461 l 222 436 l 251 417 l 282 411 q 295 409 289 410 q 306 408 301 408 l 324 408 l 364 421 l 407 443 l 368 453 l 340 468 l 329 499 l 333 524 l 358 549 q 401 575 368 558 l 463 575 l 553 565 q 596 539 592 544 l 614 524 l 600 499 l 585 449 l 572 379 q 576 317 572 333 l 590 260 l 557 231 l 518 214 q 506 210 511 211 q 494 207 500 208 q 432 197 479 201 q 375 201 389 197 l 317 218 l 271 243 l 233 271 l 193 311 l 165 353 l 147 390 q 135 427 140 413 q 128 451 131 442 l 125 489 l 126 544 l 143 596 l 161 642 l 135 626 l 113 610 l 89 578 l 69 549 l 51 506 l 40 468 l 26 375 l 28 313 l 35 263 l 51 215 l 71 169 l 92 139 l 135 90 l 174 61 l 231 32 q 303 13 281 14 l 363 4 l 435 10 l 497 22 l 567 51 l 617 81 l 656 117 l 658 121 l 701 78 l 749 44 l 801 24 q 817 18 808 21 q 832 14 825 15 q 869 6 863 7 l 932 6 l 971 7 l 1031 19 l 1086 36 l 1139 60 l 1192 90 l 1239 126 l 1281 165 l 1311 207 l 1343 258 m 1057 503 l 1044 476 l 1026 450 l 999 424 l 968 399 l 924 372 l 879 351 l 776 319 l 757 372 l 742 422 l 742 519 l 751 556 l 765 590 l 782 611 l 803 629 l 861 638 l 882 636 l 907 636 l 956 615 l 999 593 l 1043 547 l 1054 531 q 1057 503 1057 519 z "},"Ÿ":{"ha":1093,"x_min":24,"x_max":1069,"o":"m 888 1267 l 876 1307 l 856 1349 l 815 1374 q 765 1388 808 1379 l 713 1374 l 672 1349 l 651 1308 l 642 1267 l 650 1229 l 672 1183 l 713 1160 l 765 1147 l 815 1160 l 856 1183 l 876 1224 q 882 1240 879 1229 q 888 1267 885 1250 m 549 1267 l 539 1308 l 519 1349 q 479 1372 489 1371 q 450 1383 463 1379 q 429 1388 438 1386 l 376 1374 l 338 1349 l 314 1307 l 308 1267 l 317 1222 l 338 1183 l 376 1160 l 429 1147 l 479 1160 l 519 1183 l 543 1232 l 549 1267 m 1069 1038 l 972 1031 l 903 1018 l 844 1006 l 782 983 l 722 960 q 747 925 736 946 l 749 903 l 749 864 l 732 792 l 692 703 l 631 611 l 408 929 l 393 956 l 383 989 l 389 1019 l 406 1044 l 308 1043 l 197 1025 l 97 993 l 57 972 l 24 949 l 56 938 l 89 918 q 105 900 99 908 q 117 885 111 892 q 128 870 122 879 q 144 847 135 861 l 385 481 l 386 143 l 379 92 l 367 61 l 339 50 l 303 49 l 303 3 l 750 3 l 753 50 l 719 51 l 692 61 q 682 81 685 72 q 678 92 679 89 l 669 142 l 669 526 l 1069 1038 z "},"¡":{"ha":378,"x_min":25,"x_max":353,"o":"m 322 578 l 311 625 l 289 672 l 244 700 q 188 717 229 706 l 132 701 q 88 672 118 697 l 63 625 l 53 578 l 63 526 l 88 482 l 131 453 q 186 438 174 439 l 243 453 q 289 482 257 458 l 310 522 q 322 578 315 532 m 353 -196 l 328 -165 q 315 -145 321 -154 q 304 -128 310 -136 l 285 -85 l 268 -37 l 251 13 l 239 67 l 228 124 l 219 178 l 208 274 l 201 363 l 169 361 l 146 178 l 125 65 l 99 -42 l 67 -128 l 43 -167 l 25 -196 l 69 -215 l 113 -243 l 150 -285 l 188 -339 l 232 -275 l 261 -243 l 306 -215 q 325 -206 313 -210 q 353 -196 338 -201 z "},"¢":{"ha":747,"x_min":25,"x_max":724,"o":"m 724 265 l 664 229 l 596 197 l 542 182 l 490 174 l 439 174 l 389 182 l 346 199 l 304 221 l 274 249 l 247 279 l 221 328 l 206 363 l 190 422 q 188 476 188 436 l 194 521 l 208 564 l 235 593 l 269 621 q 331 640 301 635 l 369 649 l 446 633 l 503 601 q 528 543 524 561 q 532 478 532 526 l 574 503 l 611 533 l 639 578 l 663 629 l 667 668 l 668 693 l 668 742 l 626 711 q 585 696 621 706 l 549 697 l 496 706 l 443 721 l 453 876 l 379 871 l 340 856 l 304 840 q 340 831 335 835 q 354 803 346 828 l 346 724 l 278 708 l 221 690 l 167 654 l 128 622 l 96 583 l 63 533 l 40 476 l 28 429 l 25 399 l 25 304 l 33 258 l 51 201 l 74 157 l 108 110 l 143 75 l 193 40 l 232 24 q 243 20 233 24 q 260 15 253 17 l 304 4 l 292 -154 l 393 -136 l 400 3 l 458 14 l 514 32 l 561 58 l 607 88 l 643 124 l 676 165 l 703 214 l 724 265 z "},"£":{"ha":1096,"x_min":25,"x_max":1069,"o":"m 1069 197 l 1058 240 l 1036 278 l 999 301 l 953 319 l 910 319 l 875 318 l 844 314 q 778 285 799 297 l 733 258 l 783 246 l 819 226 q 832 186 832 197 l 832 175 l 829 157 l 797 131 l 747 111 l 682 119 l 632 129 l 569 149 l 496 174 l 557 271 q 576 326 572 308 l 590 386 q 586 438 590 421 l 569 504 l 860 503 l 860 581 l 532 581 l 440 786 l 425 836 l 419 885 l 435 922 l 465 953 l 524 940 q 569 914 542 933 l 647 819 l 697 786 l 769 767 l 836 776 l 886 799 l 917 840 q 932 871 926 860 q 940 888 938 882 l 949 926 l 950 978 l 950 997 l 928 988 q 903 981 925 985 l 832 978 l 779 981 l 731 988 l 600 1014 l 550 1014 l 519 1015 l 472 1013 q 401 997 415 1003 l 342 975 l 304 947 q 261 904 288 935 q 232 846 242 872 l 219 808 l 214 758 l 218 706 l 236 642 l 261 583 l 113 581 l 113 503 l 294 503 l 322 451 l 383 363 l 413 313 l 425 260 l 426 213 l 426 189 l 335 206 l 244 217 l 176 213 l 121 204 l 85 186 l 54 167 l 35 139 l 25 111 l 28 81 l 40 54 l 68 28 l 107 7 l 156 3 l 193 3 l 238 13 l 282 25 l 328 44 l 374 68 l 457 119 l 556 72 l 610 50 l 669 31 l 743 13 q 799 5 775 7 q 840 3 824 3 l 854 3 q 910 7 894 3 l 956 19 l 988 35 l 1019 60 l 1035 79 q 1058 119 1047 96 l 1065 153 l 1069 197 z "},"¤":{"ha":926,"x_min":74,"x_max":854,"o":"m 464 585 q 567 542 526 585 q 608 432 608 499 q 567 321 608 365 q 464 276 526 276 q 362 320 401 276 q 322 432 322 364 q 362 542 322 499 q 464 585 401 585 m 74 133 l 165 42 l 301 178 q 464 132 376 132 q 626 178 557 132 l 763 42 l 854 133 l 718 269 q 764 432 764 338 q 718 592 764 522 l 854 728 l 763 819 l 626 683 q 464 729 557 729 q 301 683 376 729 l 165 819 l 74 728 l 210 592 q 167 432 167 524 q 210 269 167 338 l 74 133 z "},"¦":{"ha":694,"x_min":278,"x_max":418,"o":"m 278 971 l 278 457 l 418 457 l 418 971 l 278 971 m 278 276 l 278 -235 l 418 -235 l 418 276 l 278 276 z "},"§":{"ha":801,"x_min":26,"x_max":775,"o":"m 775 231 l 765 271 l 750 308 l 708 347 l 663 382 l 713 422 l 756 469 q 771 517 769 499 l 775 551 l 761 596 l 739 633 l 701 668 l 653 704 l 546 753 l 408 783 l 360 810 l 325 839 q 314 881 314 869 l 318 913 l 346 933 q 365 939 353 936 q 394 944 376 942 l 472 933 q 529 913 501 929 l 572 886 l 626 875 l 646 881 l 671 894 l 686 922 l 697 953 l 700 981 l 699 1000 l 699 1028 l 663 1007 l 626 989 l 586 983 l 539 990 l 458 1007 q 389 1011 438 1011 l 315 1001 l 261 993 l 204 972 l 163 949 l 128 913 l 99 875 l 86 836 l 86 797 l 99 760 l 124 717 q 163 681 142 693 l 218 643 l 169 626 l 125 599 l 100 565 l 88 525 l 96 485 l 115 446 l 164 399 l 221 357 l 315 318 l 419 289 l 469 268 l 508 240 q 526 208 518 225 q 539 169 533 190 l 529 132 l 508 101 q 467 82 479 85 l 414 72 l 342 75 l 272 88 l 226 110 l 192 142 l 172 182 l 160 236 l 115 207 q 101 196 110 204 q 81 174 92 188 l 54 124 l 33 72 l 29 44 l 26 19 l 26 0 q 29 -22 29 -8 l 81 4 q 101 13 86 8 l 126 19 l 188 17 l 243 13 l 301 7 q 306 6 303 7 q 317 4 310 6 l 411 4 l 493 10 l 565 24 l 622 46 l 674 71 l 710 101 l 750 146 l 765 183 q 775 231 771 196 m 531 513 l 522 485 l 511 460 l 436 471 l 386 483 l 339 504 l 314 543 q 310 597 310 556 l 314 596 l 371 593 l 438 586 l 476 571 l 508 557 l 524 535 l 531 513 z "},"¨":{"ha":846,"x_min":113,"x_max":693,"o":"m 693 925 l 682 965 l 661 1007 q 619 1031 628 1029 l 568 1043 l 515 1031 l 476 1007 l 456 967 l 446 925 l 454 888 l 476 842 l 517 818 l 569 806 l 621 818 l 661 842 l 682 882 q 688 898 685 888 q 693 925 690 908 m 354 925 l 344 967 l 324 1007 q 285 1031 293 1029 l 232 1043 l 181 1029 l 143 1007 l 121 965 q 113 925 117 960 l 122 881 q 143 842 124 869 q 182 818 168 824 l 233 806 l 283 818 l 324 842 l 346 882 l 354 925 z "},"©":{"ha":1142,"x_min":75,"x_max":1068,"o":"m 572 958 q 219 813 365 958 q 75 460 75 668 q 219 110 75 254 q 571 -33 363 -33 q 922 110 779 -33 q 1068 460 1068 253 q 922 811 1068 665 q 572 958 779 958 m 572 888 q 872 763 749 888 q 994 460 994 639 q 871 158 994 285 q 571 35 747 35 q 269 158 393 35 q 147 460 147 281 q 271 763 147 636 q 572 888 393 888 m 764 747 q 725 706 756 706 q 665 728 719 706 q 567 750 611 750 q 358 664 440 750 q 278 450 278 579 q 361 243 278 324 q 571 161 447 161 q 807 307 721 161 l 776 326 q 592 208 700 208 q 425 464 425 208 q 583 711 425 711 q 763 526 719 711 l 794 526 l 794 747 l 764 747 z "},"¬":{"ha":926,"x_min":114,"x_max":814,"o":"m 658 150 l 814 150 l 814 576 l 114 576 l 114 421 l 658 421 l 658 150 z "},"®":{"ha":1142,"x_min":75,"x_max":1067,"o":"m 572 958 q 219 813 365 958 q 75 460 75 668 q 133 225 75 333 q 299 46 190 117 q 571 -33 421 -33 q 919 107 772 -33 q 1067 451 1067 249 q 925 811 1067 663 q 572 958 783 958 m 572 888 q 871 761 749 888 q 994 460 994 633 q 871 158 994 285 q 571 35 747 35 q 269 158 393 35 q 147 460 147 281 q 271 763 147 636 q 572 888 393 888 m 315 744 l 315 708 q 370 693 353 706 q 388 644 388 681 l 388 290 q 315 228 388 229 l 315 193 l 582 193 l 582 228 q 529 246 543 233 q 515 290 515 258 l 515 457 l 528 457 q 640 353 621 457 q 644 311 643 329 q 646 282 644 293 q 761 179 654 179 q 878 301 878 179 l 878 317 l 843 317 l 843 308 q 804 229 843 229 q 775 264 779 229 l 767 336 q 618 468 743 439 q 763 517 718 485 q 807 610 807 550 q 748 706 807 668 q 589 744 689 744 l 315 744 m 515 490 l 515 665 q 574 710 515 710 q 646 681 617 710 q 675 611 675 651 q 544 489 675 489 q 515 490 519 489 z "},"¯":{"ha":694,"x_min":167,"x_max":528,"o":"m 190 901 l 504 901 q 528 929 528 901 l 528 993 q 504 1019 528 1019 l 190 1019 q 167 993 167 1019 l 167 929 q 190 901 167 901 z "},"°":{"ha":394,"x_min":26,"x_max":368,"o":"m 368 861 l 368 901 q 366 916 367 910 q 365 925 365 922 l 364 950 l 338 996 l 306 1032 l 250 1056 q 196 1064 239 1060 q 133 1039 139 1043 q 94 986 118 1029 l 94 956 q 149 989 136 986 l 213 1006 l 257 994 l 293 976 l 310 946 l 318 913 l 310 878 l 294 847 l 264 828 l 228 818 l 161 829 l 115 851 l 89 894 q 81 920 85 908 q 75 943 78 932 l 76 988 l 89 1038 l 86 1035 l 69 1024 l 51 1006 l 39 979 l 29 953 l 26 915 l 26 882 l 33 846 l 50 813 l 74 788 l 104 765 l 156 747 q 169 745 163 746 q 182 744 175 744 l 208 744 l 264 756 l 317 778 l 344 814 q 368 861 349 818 z "},"±":{"ha":926,"x_min":122,"x_max":803,"o":"m 388 611 l 122 611 l 122 460 l 388 460 l 388 246 l 539 246 l 539 460 l 803 460 l 803 611 l 539 611 l 539 825 l 388 825 l 388 611 m 122 0 l 803 0 l 803 151 l 122 151 l 122 0 z "},"´":{"ha":843,"x_min":385,"x_max":682,"o":"m 682 1043 l 442 1043 l 385 803 l 682 1043 z "},"¶":{"ha":1032,"x_min":25,"x_max":1006,"o":"m 1006 911 l 1003 908 l 954 940 l 903 967 l 831 992 l 769 1011 l 649 1029 l 506 1029 l 389 1013 l 279 981 l 226 957 l 171 926 l 96 864 l 68 825 l 42 776 l 31 733 l 25 690 l 31 626 l 50 540 l 82 489 q 102 467 89 482 q 138 431 115 453 l 194 406 l 269 394 l 268 -217 q 240 -267 249 -261 q 183 -297 228 -279 l 183 -343 l 506 -343 l 506 -297 q 469 -281 483 -287 q 449 -268 456 -274 q 421 -217 435 -257 l 421 585 l 428 643 l 444 701 l 467 744 l 497 788 l 565 840 l 606 860 l 643 872 l 715 883 l 714 -206 q 685 -264 693 -256 q 629 -297 674 -279 l 629 -343 l 954 -343 l 954 -297 q 915 -284 929 -290 q 894 -275 900 -278 q 869 -225 886 -269 l 869 824 l 881 871 l 896 889 l 921 903 l 953 908 q 974 910 961 910 q 1006 911 988 911 z "},"¿":{"ha":828,"x_min":25,"x_max":804,"o":"m 544 578 l 533 626 l 511 674 l 465 703 q 408 717 458 708 l 363 706 q 340 694 353 703 q 310 674 328 686 l 286 628 l 276 578 l 286 526 l 310 481 q 410 438 349 450 l 465 451 l 511 481 l 532 522 q 544 578 539 535 m 804 -93 l 799 -61 l 788 -33 l 763 -10 l 738 3 q 723 5 731 4 q 707 6 715 6 l 672 6 l 639 -8 l 617 -26 l 593 -69 l 576 -121 l 553 -162 l 522 -206 l 485 -226 q 442 -246 481 -231 l 401 -244 l 364 -239 l 325 -214 l 299 -186 l 279 -135 l 271 -82 l 274 -18 l 289 46 l 307 79 l 332 111 l 378 157 l 401 196 l 421 238 l 436 311 q 438 328 438 318 q 439 353 439 339 l 439 394 l 392 396 l 382 343 l 363 293 l 332 263 l 300 236 l 208 188 l 163 161 l 118 129 l 83 92 l 54 44 l 33 -26 l 25 -101 l 31 -156 l 46 -199 l 75 -236 l 107 -269 l 149 -296 l 197 -319 l 251 -333 l 308 -342 l 368 -340 l 429 -340 l 553 -311 l 611 -285 l 671 -256 l 722 -215 l 774 -171 l 792 -133 l 804 -93 z "},"À":{"ha":1181,"x_min":24,"x_max":1157,"o":"m 639 1146 l 576 1385 l 338 1385 l 639 1146 m 1157 3 l 1157 49 l 1101 74 l 1056 118 l 753 943 l 753 961 q 753 984 753 975 q 758 1001 754 993 q 769 1017 763 1008 q 789 1038 776 1025 l 689 1038 l 579 1018 l 482 981 l 443 956 l 415 929 l 469 922 l 482 900 l 488 869 l 164 119 l 138 93 l 108 69 l 67 56 l 24 49 l 24 3 l 324 3 l 325 50 l 271 56 q 238 82 249 67 l 240 106 l 256 142 l 278 203 l 690 379 l 774 143 q 781 103 782 118 l 779 82 l 763 65 l 743 56 q 710 51 725 53 q 682 49 696 49 l 682 3 l 1157 3 m 617 554 l 378 450 l 528 797 l 617 554 z "},"Á":{"ha":1179,"x_min":22,"x_max":1156,"o":"m 863 1385 l 624 1385 l 565 1146 l 863 1385 m 1156 3 l 1156 49 l 1100 74 l 1054 118 l 751 943 l 751 961 q 752 984 751 975 q 757 1001 753 993 q 768 1017 761 1008 q 788 1038 775 1025 l 688 1038 l 578 1018 l 481 981 l 442 956 l 414 929 l 468 922 l 481 900 l 486 869 l 163 119 l 136 93 l 107 69 l 65 56 l 22 49 l 22 3 l 322 3 l 324 50 l 269 56 q 236 82 247 67 l 239 106 l 254 142 l 276 203 l 689 379 l 772 143 q 779 103 781 118 l 778 82 l 761 65 l 742 56 q 709 51 724 53 q 681 49 694 49 l 681 3 l 1156 3 m 615 554 l 376 450 l 526 797 l 615 554 z "},"Â":{"ha":1181,"x_min":24,"x_max":1157,"o":"m 778 1146 l 643 1385 l 551 1385 l 417 1146 l 597 1274 l 778 1146 m 1157 3 l 1157 49 l 1101 74 l 1056 118 l 753 943 l 753 961 q 753 984 753 975 q 758 1001 754 993 q 769 1017 763 1008 q 789 1038 776 1025 l 689 1038 l 579 1018 l 482 981 l 443 956 l 415 929 l 469 922 l 482 900 l 488 869 l 164 119 l 138 93 l 108 69 l 67 56 l 24 49 l 24 3 l 324 3 l 325 50 l 271 56 q 238 82 249 67 l 240 106 l 256 142 l 278 203 l 690 379 l 774 143 q 781 103 782 118 l 779 82 l 763 65 l 743 56 q 710 51 725 53 q 682 49 696 49 l 682 3 l 1157 3 m 617 554 l 378 450 l 528 797 l 617 554 z "},"Ã":{"ha":1179,"x_min":22,"x_max":1156,"o":"m 763 1221 l 789 1274 q 797 1296 796 1289 l 813 1339 l 769 1310 q 725 1296 764 1304 l 689 1299 l 649 1314 l 607 1335 l 572 1357 l 538 1374 l 503 1385 l 476 1382 l 447 1365 l 419 1311 l 399 1247 l 440 1272 q 488 1288 451 1279 l 526 1279 l 563 1268 l 638 1224 l 669 1208 l 706 1197 l 733 1204 q 763 1221 743 1206 m 1156 3 l 1156 49 l 1100 74 l 1054 118 l 751 943 l 751 961 q 752 984 751 975 q 757 1001 753 993 q 768 1017 761 1008 q 788 1038 775 1025 l 688 1038 l 578 1018 l 481 981 l 442 956 l 414 929 l 468 922 l 481 900 l 486 869 l 163 119 l 136 93 l 107 69 l 65 56 l 22 49 l 22 3 l 322 3 l 324 50 l 269 56 q 236 82 247 67 l 239 106 l 254 142 l 276 203 l 689 379 l 772 143 q 779 103 781 118 l 778 82 l 761 65 l 742 56 q 709 51 724 53 q 681 49 694 49 l 681 3 l 1156 3 m 615 554 l 376 450 l 526 797 l 615 554 z "},"Ä":{"ha":1183,"x_min":25,"x_max":1158,"o":"m 889 1267 l 878 1307 l 857 1349 l 817 1374 q 767 1388 810 1379 l 714 1374 l 674 1349 l 653 1308 l 643 1267 l 651 1229 l 674 1183 l 714 1160 l 767 1147 l 817 1160 l 857 1183 l 878 1224 q 883 1240 881 1229 q 889 1267 886 1250 m 550 1267 l 540 1308 l 521 1349 q 481 1372 490 1371 q 451 1383 464 1379 q 431 1388 439 1386 l 378 1374 l 339 1349 l 315 1307 l 310 1267 l 318 1222 l 339 1183 l 378 1160 l 431 1147 l 481 1160 l 521 1183 l 544 1232 l 550 1267 m 1158 3 l 1158 49 l 1103 74 l 1057 118 l 754 943 l 754 961 q 755 984 754 975 q 760 1001 756 993 q 771 1017 764 1008 q 790 1038 778 1025 l 690 1038 l 581 1018 l 483 981 l 444 956 l 417 929 l 471 922 l 483 900 l 489 869 l 165 119 l 139 93 l 110 69 l 68 56 l 25 49 l 25 3 l 325 3 l 326 50 l 272 56 q 239 82 250 67 l 242 106 l 257 142 l 279 203 l 692 379 l 775 143 q 782 103 783 118 l 781 82 l 764 65 l 744 56 q 712 51 726 53 q 683 49 697 49 l 683 3 l 1158 3 m 618 554 l 379 450 l 529 797 l 618 554 z "},"Å":{"ha":1181,"x_min":24,"x_max":1157,"o":"m 724 1267 l 713 1307 l 692 1349 l 649 1374 q 616 1383 629 1381 q 597 1388 603 1386 l 543 1374 l 501 1349 l 479 1308 l 469 1267 l 479 1224 q 490 1203 485 1213 q 501 1183 494 1193 q 528 1168 521 1171 l 543 1160 l 597 1147 l 650 1160 l 692 1183 l 713 1224 q 718 1240 715 1229 q 724 1267 721 1250 m 1157 3 l 1157 49 l 1101 74 l 1056 118 l 753 943 l 753 961 q 753 984 753 975 q 758 1001 754 993 q 769 1017 763 1008 q 789 1038 776 1025 l 689 1038 l 579 1018 l 482 981 l 443 956 l 415 929 l 469 922 l 482 900 l 488 869 l 164 119 l 138 93 l 108 69 l 67 56 l 24 49 l 24 3 l 324 3 l 325 50 l 271 56 q 238 82 249 67 l 240 106 l 256 142 l 278 203 l 690 379 l 774 143 q 781 103 782 118 l 779 82 l 763 65 l 743 56 q 710 51 725 53 q 682 49 696 49 l 682 3 l 1157 3 m 658 1236 q 633 1217 642 1219 l 597 1207 l 558 1217 l 535 1236 l 529 1267 l 529 1278 l 535 1297 l 560 1315 q 597 1329 565 1321 l 632 1315 l 658 1297 l 664 1267 l 658 1236 m 617 554 l 378 450 l 528 797 l 617 554 z "},"Æ":{"ha":1921,"x_min":25,"x_max":1893,"o":"m 618 554 l 379 450 l 529 797 l 618 554 m 1893 292 l 1860 324 l 1828 268 l 1800 231 l 1758 192 l 1707 153 l 1660 126 l 1599 99 l 1526 75 l 1463 61 l 1386 49 q 1368 47 1378 47 q 1347 46 1358 46 l 1317 46 l 1319 394 l 1363 440 l 1407 478 l 1446 493 l 1483 500 l 1511 489 l 1538 471 l 1550 436 l 1557 393 l 1739 572 l 1701 639 l 1671 667 l 1638 689 l 1597 699 l 1558 699 l 1515 678 l 1472 647 l 1317 461 l 1319 974 l 1440 963 l 1547 938 l 1604 915 l 1649 894 l 1700 867 l 1746 836 l 1811 774 l 1836 732 l 1857 693 l 1893 724 l 1828 1032 l 1785 1019 q 1773 1017 1779 1018 q 1758 1017 1767 1017 l 960 1017 l 961 974 l 1010 968 l 1040 944 l 1046 919 q 1049 910 1046 921 l 1050 140 l 754 943 l 754 961 q 755 984 754 975 q 760 1001 756 993 q 771 1017 764 1008 q 790 1038 778 1025 l 690 1038 l 581 1018 l 483 981 l 444 956 l 417 929 l 471 922 l 483 900 l 489 869 l 165 119 l 139 93 l 110 69 l 68 56 l 25 49 l 25 3 l 325 3 l 326 50 l 272 56 q 239 82 250 67 l 242 106 l 257 142 l 279 203 l 692 379 l 775 143 q 782 103 783 118 l 781 82 l 764 65 l 744 56 q 712 51 726 53 q 683 49 697 49 l 683 3 l 960 3 l 960 0 l 1738 0 l 1783 0 l 1828 -12 l 1893 292 z "},"Ç":{"ha":1099,"x_min":25,"x_max":1074,"o":"m 1074 340 l 1004 293 l 924 250 l 857 229 l 792 215 l 771 215 l 722 214 l 658 214 l 601 225 l 539 246 l 492 268 l 450 292 l 407 325 l 376 356 l 342 406 l 313 453 l 285 515 l 269 567 l 258 618 l 250 685 q 254 754 250 731 l 264 808 l 283 851 l 313 901 q 350 933 333 922 l 399 967 q 453 982 444 982 l 529 996 l 600 982 q 653 961 615 979 q 672 940 664 950 q 688 924 681 931 l 707 900 l 726 867 l 751 838 q 790 818 778 821 l 846 810 l 886 815 l 921 824 l 947 844 l 969 869 q 981 910 981 903 l 988 949 l 972 1064 l 968 1063 l 949 1047 l 925 1035 l 896 1028 q 874 1025 882 1025 l 857 1025 l 792 1033 l 738 1060 l 682 1082 l 621 1093 l 561 1099 l 497 1096 l 447 1090 l 394 1074 l 349 1056 l 285 1021 l 226 988 l 178 944 l 136 900 l 104 851 l 78 799 l 57 746 l 40 693 l 31 640 l 25 588 l 26 492 l 32 447 l 39 408 l 49 379 l 61 351 l 86 300 l 114 256 l 161 200 l 207 157 l 254 121 l 304 90 l 360 61 l 433 33 l 493 18 l 553 7 l 569 7 l 610 6 l 671 6 l 742 18 l 803 38 l 907 96 l 954 140 l 1008 206 l 1042 271 l 1074 340 m 719 -126 l 718 -78 l 706 -36 q 668 -7 676 -10 l 619 7 l 549 6 l 588 -19 l 618 -54 l 629 -90 l 635 -128 l 624 -160 l 611 -192 l 583 -211 q 554 -226 582 -215 l 617 -224 l 669 -206 l 699 -168 q 719 -126 708 -158 z "},"È":{"ha":983,"x_min":25,"x_max":958,"o":"m 554 1146 l 492 1385 l 253 1385 l 554 1146 m 958 294 l 925 326 l 893 271 l 865 233 l 824 194 l 772 156 l 725 129 l 664 101 l 592 78 l 528 64 l 451 51 q 433 49 443 50 q 413 49 424 49 l 382 49 l 385 397 l 428 443 l 472 481 l 511 496 l 549 503 l 576 492 l 603 474 l 615 439 l 622 396 l 804 575 l 767 642 l 736 669 l 703 692 l 663 701 l 624 701 l 581 681 l 538 650 l 382 464 l 385 976 l 506 965 l 613 940 l 669 918 l 714 897 l 765 869 l 811 839 l 876 776 l 901 735 l 922 696 l 958 726 l 893 1035 l 850 1022 q 838 1020 844 1021 q 824 1019 832 1019 l 25 1019 l 26 976 l 75 971 l 106 947 l 111 922 q 114 913 111 924 l 115 143 l 107 92 l 93 61 q 76 56 83 58 q 64 50 69 53 l 25 49 l 25 3 l 803 3 l 849 0 l 893 -10 l 958 294 z "},"É":{"ha":983,"x_min":25,"x_max":958,"o":"m 779 1385 l 539 1385 l 482 1146 l 779 1385 m 958 294 l 925 326 l 893 271 l 865 233 l 824 194 l 772 156 l 725 129 l 664 101 l 592 78 l 528 64 l 451 51 q 433 49 443 50 q 413 49 424 49 l 382 49 l 385 397 l 428 443 l 472 481 l 511 496 l 549 503 l 576 492 l 603 474 l 615 439 l 622 396 l 804 575 l 767 642 l 736 669 l 703 692 l 663 701 l 624 701 l 581 681 l 538 650 l 382 464 l 385 976 l 506 965 l 613 940 l 669 918 l 714 897 l 765 869 l 811 839 l 876 776 l 901 735 l 922 696 l 958 726 l 893 1035 l 850 1022 q 838 1020 844 1021 q 824 1019 832 1019 l 25 1019 l 26 976 l 75 971 l 106 947 l 111 922 q 114 913 111 924 l 115 143 l 107 92 l 93 61 q 76 56 83 58 q 64 50 69 53 l 25 49 l 25 3 l 803 3 l 849 0 l 893 -10 l 958 294 z "},"Ê":{"ha":983,"x_min":25,"x_max":958,"o":"m 693 1146 l 558 1385 l 465 1385 l 332 1146 l 513 1274 l 693 1146 m 958 294 l 925 326 l 893 271 l 865 233 l 824 194 l 772 156 l 725 129 l 664 101 l 592 78 l 528 64 l 451 51 q 433 49 443 50 q 413 49 424 49 l 382 49 l 385 397 l 428 443 l 472 481 l 511 496 l 549 503 l 576 492 l 603 474 l 615 439 l 622 396 l 804 575 l 767 642 l 736 669 l 703 692 l 663 701 l 624 701 l 581 681 l 538 650 l 382 464 l 385 976 l 506 965 l 613 940 l 669 918 l 714 897 l 765 869 l 811 839 l 876 776 l 901 735 l 922 696 l 958 726 l 893 1035 l 850 1022 q 838 1020 844 1021 q 824 1019 832 1019 l 25 1019 l 26 976 l 75 971 l 106 947 l 111 922 q 114 913 111 924 l 115 143 l 107 92 l 93 61 q 76 56 83 58 q 64 50 69 53 l 25 49 l 25 3 l 803 3 l 849 0 l 893 -10 l 958 294 z "},"Ë":{"ha":985,"x_min":25,"x_max":958,"o":"m 803 1267 l 792 1307 l 771 1349 l 729 1374 q 679 1388 722 1379 l 628 1374 l 588 1349 l 567 1308 l 557 1267 l 565 1229 l 588 1183 l 626 1160 l 679 1147 l 731 1160 l 771 1183 l 792 1224 q 797 1240 794 1229 q 803 1267 800 1250 m 464 1267 l 454 1308 l 433 1349 l 394 1374 q 344 1388 389 1379 l 292 1374 l 253 1349 l 231 1307 q 222 1267 226 1301 l 232 1222 q 253 1183 233 1211 l 292 1160 l 344 1147 l 393 1160 l 433 1183 l 456 1224 l 464 1267 m 958 294 l 925 326 l 893 271 l 865 233 l 824 194 l 772 156 l 725 129 l 664 101 l 592 78 l 528 64 l 451 51 q 433 49 443 50 q 413 49 424 49 l 382 49 l 385 397 l 428 443 l 472 481 l 511 496 l 549 503 l 576 492 l 603 474 l 615 439 l 622 396 l 804 575 l 767 642 l 736 669 l 703 692 l 663 701 l 624 701 l 581 681 l 538 650 l 382 464 l 385 976 l 506 965 l 613 940 l 669 918 l 714 897 l 765 869 l 811 839 l 876 776 l 901 735 l 922 696 l 958 726 l 893 1035 l 850 1022 q 838 1020 844 1021 q 824 1019 832 1019 l 25 1019 l 26 976 l 75 971 l 106 947 l 111 922 q 114 913 111 924 l 115 143 l 107 92 l 93 61 q 76 56 83 58 q 64 50 69 53 l 25 49 l 25 3 l 803 3 l 849 0 l 893 -10 l 958 294 z "},"Ì":{"ha":497,"x_min":25,"x_max":474,"o":"m 332 1146 l 269 1385 l 31 1385 l 332 1146 m 474 50 l 424 54 q 393 78 406 64 l 385 883 l 392 933 l 407 964 q 436 974 422 974 l 472 975 l 472 1019 l 25 1019 l 26 976 l 75 971 l 106 947 l 111 922 q 114 913 111 924 l 115 143 l 107 92 l 93 61 q 76 56 83 58 q 64 50 69 53 l 25 49 l 25 3 l 472 3 l 474 50 z "},"Í":{"ha":579,"x_min":24,"x_max":556,"o":"m 556 1385 l 315 1385 l 258 1146 l 556 1385 m 472 50 l 422 54 q 392 78 404 64 l 383 883 l 390 933 l 406 964 q 435 974 421 974 l 471 975 l 471 1019 l 24 1019 l 25 976 l 74 971 l 104 947 l 110 922 q 113 913 110 924 l 114 143 l 106 92 l 92 61 q 75 56 82 58 q 63 50 68 53 l 24 49 l 24 3 l 471 3 l 472 50 z "},"Î":{"ha":499,"x_min":25,"x_max":474,"o":"m 422 1146 l 288 1385 l 196 1385 l 61 1146 l 242 1274 l 422 1146 m 474 50 l 424 54 q 393 78 406 64 l 385 883 l 392 933 l 407 964 q 436 974 422 974 l 472 975 l 472 1019 l 25 1019 l 26 976 l 75 971 l 106 947 l 111 922 q 114 913 111 924 l 115 143 l 107 92 l 93 61 q 76 56 83 58 q 64 50 69 53 l 25 49 l 25 3 l 472 3 l 474 50 z "},"Ï":{"ha":628,"x_min":25,"x_max":603,"o":"m 603 1267 l 592 1307 l 571 1349 l 529 1374 q 479 1388 522 1379 l 428 1374 l 388 1349 l 367 1308 l 357 1267 l 365 1229 l 388 1183 l 426 1160 l 479 1147 l 531 1160 l 571 1183 l 592 1224 q 597 1240 594 1229 q 603 1267 600 1250 m 264 1267 l 254 1308 l 233 1349 l 194 1374 q 144 1388 189 1379 l 92 1374 l 56 1349 l 33 1307 q 25 1267 29 1301 l 35 1222 q 56 1183 36 1211 q 93 1160 76 1167 l 144 1147 l 193 1160 l 233 1183 l 256 1224 l 264 1267 m 528 50 l 478 54 q 447 78 460 64 l 439 883 l 446 933 l 461 964 q 490 974 476 974 l 526 975 l 526 1019 l 79 1019 l 81 976 l 129 971 l 160 947 l 165 922 q 168 913 165 924 l 169 143 l 161 92 l 147 61 q 131 56 138 58 q 118 50 124 53 l 79 49 l 79 3 l 526 3 l 528 50 z "},"Ð":{"ha":1194,"x_min":28,"x_max":1167,"o":"m 1167 431 l 1167 481 q 1161 508 1163 507 l 1150 583 l 1135 640 l 1114 694 l 1083 747 l 1049 797 l 975 871 l 867 946 l 747 1001 l 699 1017 l 618 1040 l 483 1054 q 408 1050 451 1054 l 351 1044 l 310 1035 l 246 1017 l 186 989 l 131 957 l 69 903 l 33 868 l 28 868 l 31 865 l 33 868 l 93 864 q 136 854 122 861 l 156 849 l 172 828 l 182 803 l 182 485 l 46 485 l 46 385 l 183 385 l 183 143 q 179 110 181 122 q 176 93 178 97 q 160 61 174 83 l 132 51 l 92 49 l 92 3 l 717 8 l 817 26 l 869 40 l 917 58 l 964 79 l 1046 135 l 1079 168 l 1110 208 l 1131 254 l 1151 308 l 1160 371 l 1167 431 m 881 414 l 879 385 l 879 351 l 867 296 l 844 240 l 813 194 l 774 153 l 708 114 l 643 85 l 549 61 l 450 49 l 450 385 l 751 385 l 751 485 l 450 485 l 450 803 q 467 856 457 842 q 507 896 475 867 l 450 910 l 399 918 l 292 918 l 183 897 l 233 931 l 285 957 l 340 974 l 396 985 l 414 985 l 451 983 l 504 979 l 560 961 l 610 943 l 657 910 l 704 874 q 744 824 715 863 l 785 771 l 814 708 q 826 681 821 696 l 842 638 l 860 557 l 876 471 l 881 414 z "},"Ñ":{"ha":1035,"x_min":24,"x_max":1010,"o":"m 800 1339 l 757 1310 q 713 1296 751 1304 l 675 1299 l 635 1314 l 593 1335 l 558 1357 l 524 1374 q 501 1381 510 1379 q 490 1385 493 1383 l 463 1382 l 433 1365 l 407 1313 l 386 1247 l 426 1272 q 474 1288 439 1279 l 513 1279 l 549 1268 l 624 1224 l 657 1208 l 693 1197 l 721 1204 q 749 1221 729 1206 l 775 1274 l 800 1339 m 1010 226 q 940 256 954 246 l 893 304 l 893 525 l 896 692 l 904 811 l 917 892 l 933 939 l 953 965 l 979 975 l 1010 975 l 1010 1028 l 708 1028 l 711 976 l 735 975 l 756 971 l 769 964 l 786 946 l 799 917 l 810 874 l 818 811 l 822 728 l 828 640 l 829 350 l 389 935 q 371 974 378 958 q 361 997 364 989 l 353 1061 l 249 1050 l 149 1019 l 108 994 l 68 965 l 43 928 l 24 890 q 93 864 79 872 q 144 813 115 850 l 143 588 l 140 414 l 133 281 l 124 185 l 110 113 l 93 76 l 74 57 l 51 50 l 24 49 l 24 3 l 324 3 l 325 50 l 304 50 l 282 54 l 267 61 l 253 76 l 240 104 l 231 142 l 222 193 l 211 363 l 206 789 l 747 25 l 776 -18 q 800 -85 781 -24 l 818 -28 l 842 19 l 878 75 l 921 133 l 1010 226 z "},"Ò":{"ha":1117,"x_min":25,"x_max":1092,"o":"m 642 1146 l 579 1385 l 340 1385 l 642 1146 m 1092 529 l 1088 642 l 1075 707 l 1063 750 l 1003 871 l 972 908 l 931 954 l 888 986 l 835 1018 q 794 1033 796 1033 l 692 1063 l 547 1067 l 468 1039 l 401 1007 q 371 976 382 988 q 357 960 360 964 l 324 908 l 315 857 l 315 790 l 335 742 q 372 686 340 726 q 414 658 396 664 l 460 640 l 501 636 l 547 642 l 582 660 l 613 683 l 576 681 l 533 690 l 514 714 l 507 744 l 522 782 l 543 808 l 586 829 q 620 840 606 836 q 643 844 635 843 l 696 844 l 742 843 l 792 838 q 837 819 821 826 q 856 810 853 813 l 901 785 q 942 739 929 757 l 971 699 l 990 639 l 1003 590 l 1001 525 l 993 460 l 976 408 l 949 353 l 915 310 l 869 263 q 822 235 840 240 l 760 207 l 701 197 l 621 197 l 540 219 l 481 244 l 417 282 l 371 319 l 335 360 l 296 417 l 274 469 l 249 549 l 239 614 l 239 683 l 244 756 l 260 826 l 281 897 l 311 975 l 247 936 l 194 897 l 153 857 l 107 801 l 79 754 l 51 694 l 38 644 l 25 581 l 25 540 l 26 503 l 26 464 l 35 414 l 51 351 l 90 265 l 125 211 l 157 171 l 197 132 l 244 90 l 304 56 l 354 35 l 424 15 l 478 6 l 553 6 l 621 7 l 688 22 l 778 49 l 836 75 l 876 100 l 925 142 l 972 193 l 999 231 l 1032 288 l 1072 393 l 1085 461 l 1092 529 z "},"Ó":{"ha":1115,"x_min":24,"x_max":1090,"o":"m 865 1385 l 626 1385 l 568 1146 l 865 1385 m 1090 529 l 1086 642 l 1074 707 l 1061 750 l 1001 871 l 971 908 l 929 954 l 886 986 l 833 1018 q 793 1033 794 1033 l 690 1063 l 546 1067 l 467 1039 l 400 1007 q 369 976 381 988 q 356 960 358 964 l 322 908 l 314 857 l 314 790 l 333 742 q 371 686 339 726 q 413 658 394 664 l 458 640 l 500 636 l 546 642 l 581 660 l 611 683 l 575 681 l 532 690 l 513 714 l 506 744 l 521 782 l 542 808 l 585 829 q 619 840 604 836 q 642 844 633 843 l 694 844 l 740 843 l 790 838 q 835 819 819 826 q 854 810 851 813 l 900 785 q 940 739 928 757 l 969 699 l 989 639 l 1001 590 l 1000 525 l 992 460 l 975 408 l 947 353 l 914 310 l 868 263 q 821 235 839 240 l 758 207 l 700 197 l 619 197 l 539 219 l 479 244 l 415 282 l 369 319 l 333 360 l 294 417 l 272 469 l 247 549 l 238 614 l 238 683 l 243 756 l 258 826 l 279 897 l 310 975 l 246 936 l 193 897 l 151 857 l 106 801 l 78 754 l 50 694 l 36 644 l 24 581 l 24 540 l 25 503 l 25 464 l 33 414 l 50 351 l 89 265 l 124 211 l 156 171 l 196 132 l 243 90 l 303 56 l 353 35 l 422 15 l 476 6 l 551 6 l 619 7 l 686 22 l 776 49 l 835 75 l 875 100 l 924 142 l 971 193 l 997 231 l 1031 288 l 1071 393 l 1083 461 l 1090 529 z "},"Ô":{"ha":1117,"x_min":25,"x_max":1092,"o":"m 757 1146 l 622 1385 l 529 1385 l 396 1146 l 576 1274 l 757 1146 m 1092 529 l 1088 642 l 1075 707 l 1063 750 l 1003 871 l 972 908 l 931 954 l 888 986 l 835 1018 q 794 1033 796 1033 l 692 1063 l 547 1067 l 468 1039 l 401 1007 q 371 976 382 988 q 357 960 360 964 l 324 908 l 315 857 l 315 790 l 335 742 q 372 686 340 726 q 414 658 396 664 l 460 640 l 501 636 l 547 642 l 582 660 l 613 683 l 576 681 l 533 690 l 514 714 l 507 744 l 522 782 l 543 808 l 586 829 q 620 840 606 836 q 643 844 635 843 l 696 844 l 742 843 l 792 838 q 837 819 821 826 q 856 810 853 813 l 901 785 q 942 739 929 757 l 971 699 l 990 639 l 1003 590 l 1001 525 l 993 460 l 976 408 l 949 353 l 915 310 l 869 263 q 822 235 840 240 l 760 207 l 701 197 l 621 197 l 540 219 l 481 244 l 417 282 l 371 319 l 335 360 l 296 417 l 274 469 l 249 549 l 239 614 l 239 683 l 244 756 l 260 826 l 281 897 l 311 975 l 247 936 l 194 897 l 153 857 l 107 801 l 79 754 l 51 694 l 38 644 l 25 581 l 25 540 l 26 503 l 26 464 l 35 414 l 51 351 l 90 265 l 125 211 l 157 171 l 197 132 l 244 90 l 304 56 l 354 35 l 424 15 l 478 6 l 553 6 l 621 7 l 688 22 l 778 49 l 836 75 l 876 100 l 925 142 l 972 193 l 999 231 l 1032 288 l 1072 393 l 1085 461 l 1092 529 z "},"Õ":{"ha":1117,"x_min":25,"x_max":1092,"o":"m 801 1339 l 758 1310 q 714 1296 753 1304 l 676 1299 l 636 1314 l 594 1335 l 560 1357 l 525 1374 q 503 1381 511 1379 q 492 1385 494 1383 l 464 1382 l 435 1365 l 408 1313 l 388 1247 l 428 1272 q 475 1288 440 1279 l 514 1279 l 550 1268 l 625 1224 l 658 1208 l 694 1197 l 722 1204 q 750 1221 731 1206 l 776 1274 l 801 1339 m 1092 529 l 1088 642 l 1075 707 l 1063 750 l 1003 871 l 972 908 l 931 954 l 888 986 l 835 1018 q 794 1033 796 1033 l 692 1063 l 547 1067 l 468 1039 l 401 1007 q 371 976 382 988 q 357 960 360 964 l 324 908 l 315 857 l 315 790 l 335 742 q 372 686 340 726 q 414 658 396 664 l 460 640 l 501 636 l 547 642 l 582 660 l 613 683 l 576 681 l 533 690 l 514 714 l 507 744 l 522 782 l 543 808 l 586 829 q 620 840 606 836 q 643 844 635 843 l 696 844 l 742 843 l 792 838 q 837 819 821 826 q 856 810 853 813 l 901 785 q 942 739 929 757 l 971 699 l 990 639 l 1003 590 l 1001 525 l 993 460 l 976 408 l 949 353 l 915 310 l 869 263 q 822 235 840 240 l 760 207 l 701 197 l 621 197 l 540 219 l 481 244 l 417 282 l 371 319 l 335 360 l 296 417 l 274 469 l 249 549 l 239 614 l 239 683 l 244 756 l 260 826 l 281 897 l 311 975 l 247 936 l 194 897 l 153 857 l 107 801 l 79 754 l 51 694 l 38 644 l 25 581 l 25 540 l 26 503 l 26 464 l 35 414 l 51 351 l 90 265 l 125 211 l 157 171 l 197 132 l 244 90 l 304 56 l 354 35 l 424 15 l 478 6 l 553 6 l 621 7 l 688 22 l 778 49 l 836 75 l 876 100 l 925 142 l 972 193 l 999 231 l 1032 288 l 1072 393 l 1085 461 l 1092 529 z "},"Ö":{"ha":1118,"x_min":25,"x_max":1092,"o":"m 890 1267 l 879 1307 l 858 1349 l 818 1374 q 768 1388 811 1379 l 715 1374 l 675 1349 l 654 1308 l 644 1267 l 653 1229 l 675 1183 l 715 1160 l 768 1147 l 818 1160 l 858 1183 l 879 1224 q 885 1240 882 1229 q 890 1267 888 1250 m 551 1267 l 542 1308 l 522 1349 q 482 1372 492 1371 q 453 1383 465 1379 q 432 1388 440 1386 l 379 1374 l 340 1349 l 317 1307 l 311 1267 l 319 1222 l 340 1183 l 379 1160 l 432 1147 l 482 1160 l 522 1183 l 546 1232 l 551 1267 m 1092 529 l 1088 642 l 1075 707 l 1063 750 l 1003 871 l 972 908 l 931 954 l 888 986 l 835 1018 q 794 1033 796 1033 l 692 1063 l 547 1067 l 468 1039 l 401 1007 q 371 976 382 988 q 357 960 360 964 l 324 908 l 315 857 l 315 790 l 335 742 q 372 686 340 726 q 414 658 396 664 l 460 640 l 501 636 l 547 642 l 582 660 l 613 683 l 576 681 l 533 690 l 514 714 l 507 744 l 522 782 l 543 808 l 586 829 q 620 840 606 836 q 643 844 635 843 l 696 844 l 742 843 l 792 838 q 837 819 821 826 q 856 810 853 813 l 901 785 q 942 739 929 757 l 971 699 l 990 639 l 1003 590 l 1001 525 l 993 460 l 976 408 l 949 353 l 915 310 l 869 263 q 822 235 840 240 l 760 207 l 701 197 l 621 197 l 540 219 l 481 244 l 417 282 l 371 319 l 335 360 l 296 417 l 274 469 l 249 549 l 239 614 l 239 683 l 244 756 l 260 826 l 281 897 l 311 975 l 247 936 l 194 897 l 153 857 l 107 801 l 79 754 l 51 694 l 38 644 l 25 581 l 25 540 l 26 503 l 26 464 l 35 414 l 51 351 l 90 265 l 125 211 l 157 171 l 197 132 l 244 90 l 304 56 l 354 35 l 424 15 l 478 6 l 553 6 l 621 7 l 688 22 l 778 49 l 836 75 l 876 100 l 925 142 l 972 193 l 999 231 l 1032 288 l 1072 393 l 1085 461 l 1092 529 z "},"×":{"ha":1072,"x_min":138,"x_max":944,"o":"m 139 682 l 374 447 l 138 211 l 304 44 l 540 282 l 774 49 l 942 215 l 708 450 l 944 685 l 778 851 l 542 615 l 307 850 l 139 682 z "},"Ø":{"ha":1171,"x_min":26,"x_max":1176,"o":"m 911 776 q 928 756 921 765 q 943 739 936 747 l 972 699 l 992 639 l 1004 590 l 1003 525 l 994 460 l 978 408 l 950 353 l 917 310 l 871 263 q 824 235 842 240 l 761 207 l 703 197 l 622 197 l 542 219 l 482 244 l 444 267 l 911 776 m 196 -3 l 269 76 l 306 56 l 356 35 l 425 15 l 479 6 l 554 6 l 622 7 l 689 22 l 779 49 l 838 75 l 878 100 l 926 142 l 974 193 l 1000 231 l 1033 288 l 1074 393 l 1086 461 l 1093 529 l 1089 642 l 1076 707 l 1064 750 l 1004 871 l 1001 875 l 1176 1067 l 1044 1068 l 936 949 l 932 954 l 889 986 l 836 1018 q 796 1033 797 1033 l 693 1063 l 549 1067 l 469 1039 l 403 1007 q 372 976 383 988 q 358 960 361 964 l 325 908 l 317 857 l 317 790 l 336 742 q 374 686 342 726 q 415 658 397 664 l 461 640 l 503 636 l 549 642 l 583 660 l 614 683 l 578 681 l 535 690 l 515 714 l 508 744 l 524 782 l 544 808 l 588 829 q 622 840 607 836 q 644 844 636 843 l 697 844 l 743 843 l 793 838 l 824 825 l 367 325 l 336 360 l 297 417 l 275 469 l 250 549 l 240 614 l 240 683 l 246 756 l 261 826 l 282 897 l 313 975 l 249 936 l 196 897 l 154 857 l 108 801 l 81 754 l 53 694 l 39 644 l 26 581 l 26 540 l 28 503 l 28 464 l 36 414 l 53 351 l 92 265 l 126 211 l 158 171 l 194 136 l 65 -3 l 196 -3 z "},"Ù":{"ha":981,"x_min":25,"x_max":956,"o":"m 639 1146 l 576 1385 l 338 1385 l 639 1146 m 956 599 l 954 700 l 947 779 l 936 851 l 918 924 l 897 971 l 871 1007 l 843 1019 l 683 900 l 707 885 l 736 863 l 758 838 l 781 808 l 804 765 l 822 724 l 849 617 l 853 496 l 835 344 l 813 290 l 779 240 q 749 217 760 225 q 736 208 739 210 q 693 186 721 197 l 635 172 l 583 171 l 531 181 l 479 199 l 442 225 l 410 261 l 389 317 q 385 372 385 335 l 383 925 q 417 985 406 971 q 471 1018 429 999 l 471 1071 l 25 925 l 25 879 l 58 878 l 92 871 q 106 843 103 854 l 114 803 l 113 308 l 125 236 l 142 183 l 175 132 l 208 92 l 258 58 l 304 33 l 367 15 q 418 6 378 10 l 474 6 l 510 7 l 557 11 l 611 24 l 676 46 l 725 71 l 785 111 q 808 135 796 122 q 833 163 821 147 l 867 203 l 893 253 l 919 322 l 936 407 l 950 511 l 956 599 z "},"Ú":{"ha":981,"x_min":24,"x_max":954,"o":"m 863 1385 l 624 1385 l 565 1146 l 863 1385 m 954 599 l 953 700 l 946 779 l 935 851 l 917 924 l 896 971 l 869 1007 l 842 1019 l 682 900 l 706 885 l 735 863 l 757 838 l 779 808 l 803 765 l 821 724 l 847 617 l 851 496 l 833 344 l 811 290 l 778 240 q 748 217 758 225 q 735 208 738 210 q 692 186 719 197 l 633 172 l 582 171 l 529 181 l 478 199 l 440 225 l 408 261 l 388 317 q 383 372 383 335 l 382 925 q 415 985 404 971 q 469 1018 428 999 l 469 1071 l 24 925 l 24 879 l 57 878 l 90 871 q 104 843 101 854 l 113 803 l 111 308 l 124 236 l 140 183 l 174 132 l 207 92 l 257 58 l 303 33 l 365 15 q 417 6 376 10 l 472 6 l 508 7 l 556 11 l 610 24 l 675 46 l 724 71 l 783 111 q 807 135 794 122 q 832 163 819 147 l 865 203 l 892 253 l 918 322 l 935 407 l 949 511 l 954 599 z "},"Û":{"ha":981,"x_min":25,"x_max":956,"o":"m 722 1146 l 588 1385 l 494 1385 l 361 1146 l 542 1274 l 722 1146 m 956 599 l 954 700 l 947 779 l 936 851 l 918 924 l 897 971 l 871 1007 l 843 1019 l 683 900 l 707 885 l 736 863 l 758 838 l 781 808 l 804 765 l 822 724 l 849 617 l 853 496 l 835 344 l 813 290 l 779 240 q 749 217 760 225 q 736 208 739 210 q 693 186 721 197 l 635 172 l 583 171 l 531 181 l 479 199 l 442 225 l 410 261 l 389 317 q 385 372 385 335 l 383 925 q 417 985 406 971 q 471 1018 429 999 l 471 1071 l 25 925 l 25 879 l 58 878 l 92 871 q 106 843 103 854 l 114 803 l 113 308 l 125 236 l 142 183 l 175 132 l 208 92 l 258 58 l 304 33 l 367 15 q 418 6 378 10 l 474 6 l 510 7 l 557 11 l 611 24 l 676 46 l 725 71 l 785 111 q 808 135 796 122 q 833 163 821 147 l 867 203 l 893 253 l 919 322 l 936 407 l 950 511 l 956 599 z "},"Ü":{"ha":982,"x_min":25,"x_max":956,"o":"m 872 1267 l 861 1307 l 840 1349 l 799 1374 q 749 1388 792 1379 l 697 1374 l 657 1349 l 636 1308 l 626 1267 l 635 1229 l 657 1183 l 696 1160 l 749 1147 l 800 1160 l 840 1183 l 861 1224 q 867 1240 864 1229 q 872 1267 869 1250 m 533 1267 l 524 1308 l 503 1349 q 464 1372 472 1371 l 411 1385 l 414 1388 l 361 1374 l 322 1349 l 300 1307 q 292 1267 296 1301 l 301 1222 q 322 1183 303 1211 l 361 1160 l 414 1147 l 463 1160 l 503 1183 l 525 1224 l 533 1267 m 956 599 l 954 700 l 947 779 l 936 851 l 918 924 l 897 971 l 871 1007 l 843 1019 l 683 900 l 707 885 l 736 863 l 758 838 l 781 808 l 804 765 l 822 724 l 849 617 l 853 496 l 835 344 l 813 290 l 779 240 q 749 217 760 225 q 736 208 739 210 q 693 186 721 197 l 635 172 l 583 171 l 531 181 l 479 199 l 442 225 l 410 261 l 389 317 q 385 372 385 335 l 383 925 q 417 985 406 971 q 471 1018 429 999 l 471 1071 l 25 925 l 25 879 l 58 878 l 92 871 q 106 843 103 854 l 114 803 l 113 308 l 125 236 l 142 183 l 175 132 l 208 92 l 258 58 l 304 33 l 367 15 q 418 6 378 10 l 474 6 l 510 7 l 557 11 l 611 24 l 676 46 l 725 71 l 785 111 q 808 135 796 122 q 833 163 821 147 l 867 203 l 893 253 l 919 322 l 936 407 l 950 511 l 956 599 z "},"Ý":{"ha":1090,"x_min":22,"x_max":1068,"o":"m 863 1385 l 624 1385 l 565 1146 l 863 1385 m 1068 1038 l 971 1031 l 901 1018 l 843 1006 l 781 983 l 721 960 q 746 925 735 946 l 747 903 l 747 864 l 731 792 l 690 703 l 629 611 l 407 929 l 392 956 l 382 989 l 388 1019 l 404 1044 l 307 1043 l 196 1025 l 96 993 l 56 972 l 22 949 l 54 938 l 88 918 q 103 900 97 908 q 115 885 110 892 q 127 870 121 879 q 143 847 133 861 l 383 481 l 385 143 l 378 92 l 365 61 l 338 50 l 301 49 l 301 3 l 749 3 l 751 50 l 718 51 l 690 61 q 681 81 683 72 q 676 92 678 89 l 668 142 l 668 526 l 1068 1038 z "},"Þ":{"ha":1068,"x_min":25,"x_max":1044,"o":"m 533 50 l 483 54 q 453 78 463 65 q 442 246 444 89 q 442 544 439 357 q 443 711 443 663 q 443 742 443 761 q 551 735 515 738 q 586 733 586 733 q 633 715 597 731 q 801 478 801 643 q 765 368 801 417 q 611 299 685 299 q 463 333 540 299 q 728 183 643 183 q 838 193 804 183 q 854 200 842 194 q 886 215 867 206 q 935 240 929 235 q 1004 319 969 267 q 1044 419 1044 381 q 1042 478 1044 449 q 1038 535 1040 507 q 1007 603 1036 550 q 764 788 931 739 q 444 817 649 821 q 497 926 450 893 q 478 930 493 928 q 440 936 464 932 q 408 940 422 939 q 383 942 394 942 q 229 942 265 942 q 243 943 194 942 q 107 926 158 940 q 25 868 56 899 q 147 849 85 869 q 174 789 174 810 l 175 143 q 153 61 175 93 q 85 49 122 44 l 85 3 l 532 3 l 533 50 z "},"ß":{"ha":889,"x_min":25,"x_max":864,"o":"m 864 400 l 851 456 l 831 513 l 792 565 l 744 617 q 676 664 693 656 l 597 706 q 649 735 629 724 q 676 753 668 746 q 739 817 701 771 q 747 856 744 840 q 750 881 750 872 l 744 929 l 715 964 l 685 993 l 640 1015 l 599 1032 l 492 1044 l 433 1040 q 419 1039 426 1039 q 410 1038 414 1039 l 360 1038 l 243 1014 l 136 979 l 92 957 l 49 935 q 92 889 82 904 q 101 867 96 882 q 114 828 107 851 l 115 143 l 107 92 l 92 61 l 54 49 l 25 49 l 25 3 l 442 3 l 443 50 q 365 81 388 50 q 353 150 353 118 l 354 860 q 358 904 354 893 l 371 939 l 389 957 l 413 969 l 460 957 l 483 932 l 501 904 q 514 857 514 868 l 519 813 l 511 747 l 494 689 l 457 635 l 406 583 q 483 563 471 568 l 531 542 l 574 493 q 588 474 579 488 q 610 436 596 460 q 625 375 624 399 q 635 304 635 351 l 622 242 l 604 181 l 550 68 l 504 -31 l 497 -61 q 493 -93 493 -78 l 492 -147 q 508 -194 501 -175 q 521 -225 515 -214 l 547 -276 l 557 -208 l 576 -140 l 601 -89 l 631 -42 l 704 46 l 739 82 l 776 128 l 831 203 l 849 251 q 858 297 856 269 l 864 368 l 864 400 z "},"à":{"ha":844,"x_min":26,"x_max":821,"o":"m 419 803 l 357 1043 l 118 1043 l 419 803 m 821 4 l 783 25 l 753 56 l 736 97 l 729 142 l 731 482 q 726 531 731 511 l 713 589 l 685 622 l 653 657 q 621 674 633 668 q 603 683 608 681 l 556 701 q 496 711 518 711 l 439 718 l 329 711 l 268 696 l 222 682 q 179 672 193 672 l 135 671 l 90 683 l 51 704 l 60 639 l 78 581 l 107 546 l 142 522 l 181 518 l 219 522 l 257 549 l 293 583 l 310 604 l 336 629 l 372 643 l 413 651 l 450 646 l 486 631 l 507 593 q 513 575 510 588 q 518 543 515 563 l 519 456 l 378 458 l 317 449 l 265 439 l 207 417 l 164 397 l 125 369 l 86 336 l 63 301 l 42 268 q 34 237 36 250 q 31 215 32 224 l 26 182 l 32 151 l 40 122 l 78 69 l 111 44 l 146 26 l 192 14 q 243 7 231 7 l 299 10 l 358 19 l 439 47 l 518 79 q 556 28 539 40 q 614 3 565 19 l 821 4 m 519 389 l 518 144 l 450 124 l 400 118 l 351 125 l 314 139 l 286 161 l 264 192 l 256 224 l 256 265 l 274 303 l 294 331 l 329 353 l 381 376 l 469 389 l 519 389 z "},"á":{"ha":843,"x_min":24,"x_max":818,"o":"m 682 1043 l 442 1043 l 385 803 l 682 1043 m 818 4 l 781 25 l 750 56 l 733 97 l 726 142 l 728 482 q 724 531 728 511 l 710 589 l 682 622 l 650 657 q 618 674 631 668 q 600 683 606 681 l 553 701 q 493 711 515 711 l 436 718 l 326 711 l 265 696 l 219 682 q 176 672 190 672 l 132 671 l 88 683 l 49 704 l 57 639 l 75 581 l 104 546 l 139 522 l 178 518 l 217 522 l 254 549 l 290 583 l 307 604 l 333 629 l 369 643 l 410 651 l 447 646 l 483 631 l 504 593 q 510 575 507 588 q 515 543 513 563 l 517 456 l 375 458 l 314 449 l 263 439 l 204 417 l 161 397 l 122 369 l 83 336 l 60 301 l 39 268 q 31 237 33 250 q 28 215 29 224 l 24 182 l 29 151 l 38 122 l 75 69 l 108 44 l 143 26 l 189 14 q 240 7 228 7 l 296 10 l 356 19 l 436 47 l 515 79 q 553 28 536 40 q 611 3 563 19 l 818 4 m 517 389 l 515 144 l 447 124 l 397 118 l 349 125 l 311 139 l 283 161 l 261 192 l 253 224 l 253 265 l 271 303 l 292 331 l 326 353 l 378 376 l 467 389 l 517 389 z "},"â":{"ha":844,"x_min":25,"x_max":819,"o":"m 589 803 l 454 1043 l 363 1043 l 228 803 l 408 932 l 589 803 m 819 4 l 782 25 l 751 56 l 735 97 l 728 142 l 729 482 q 725 531 729 511 l 711 589 l 683 622 l 651 657 q 619 674 632 668 q 601 683 607 681 l 554 701 q 494 711 517 711 l 438 718 l 328 711 l 267 696 l 221 682 q 178 672 192 672 l 133 671 l 89 683 l 50 704 l 58 639 l 76 581 l 106 546 l 140 522 l 179 518 l 218 522 l 256 549 l 292 583 l 308 604 l 335 629 l 371 643 l 411 651 l 449 646 l 485 631 l 506 593 q 511 575 508 588 q 517 543 514 563 l 518 456 l 376 458 l 315 449 l 264 439 l 206 417 l 163 397 l 124 369 l 85 336 l 61 301 l 40 268 q 33 237 35 250 q 29 215 31 224 l 25 182 l 31 151 l 39 122 l 76 69 l 110 44 l 144 26 l 190 14 q 242 7 229 7 l 297 10 l 357 19 l 438 47 l 517 79 q 554 28 538 40 q 613 3 564 19 l 819 4 m 518 389 l 517 144 l 449 124 l 399 118 l 350 125 l 313 139 l 285 161 l 263 192 l 254 224 l 254 265 l 272 303 l 293 331 l 328 353 l 379 376 l 468 389 l 518 389 z "},"ã":{"ha":844,"x_min":25,"x_max":819,"o":"m 543 879 l 569 932 q 578 954 576 947 l 593 997 l 550 968 q 506 954 544 963 l 467 957 l 429 971 l 388 992 l 353 1014 l 318 1031 l 283 1043 l 256 1038 l 228 1022 l 200 971 l 179 906 l 221 931 q 268 946 232 938 l 307 938 l 343 926 l 418 882 l 450 867 l 486 854 l 514 861 l 543 879 m 819 4 l 782 25 l 751 56 l 735 97 l 728 142 l 729 482 q 725 531 729 511 l 711 589 l 683 622 l 651 657 q 619 674 632 668 q 601 683 607 681 l 554 701 q 494 711 517 711 l 438 718 l 328 711 l 267 696 l 221 682 q 178 672 192 672 l 133 671 l 89 683 l 50 704 l 58 639 l 76 581 l 106 546 l 140 522 l 179 518 l 218 522 l 256 549 l 292 583 l 308 604 l 335 629 l 371 643 l 411 651 l 449 646 l 485 631 l 506 593 q 511 575 508 588 q 517 543 514 563 l 518 456 l 376 458 l 315 449 l 264 439 l 206 417 l 163 397 l 124 369 l 85 336 l 61 301 l 40 268 q 33 237 35 250 q 29 215 31 224 l 25 182 l 31 151 l 39 122 l 76 69 l 110 44 l 144 26 l 190 14 q 242 7 229 7 l 297 10 l 357 19 l 438 47 l 517 79 q 554 28 538 40 q 613 3 564 19 l 819 4 m 518 389 l 517 144 l 449 124 l 399 118 l 350 125 l 313 139 l 285 161 l 263 192 l 254 224 l 254 265 l 272 303 l 293 331 l 328 353 l 379 376 l 468 389 l 518 389 z "},"ä":{"ha":846,"x_min":26,"x_max":821,"o":"m 693 925 l 682 965 l 661 1007 q 619 1031 628 1029 l 568 1043 l 515 1031 l 476 1007 l 456 967 l 446 925 l 454 888 l 476 842 l 517 818 l 569 806 l 621 818 l 661 842 l 682 882 q 688 898 685 888 q 693 925 690 908 m 354 925 l 344 967 l 324 1007 q 285 1031 293 1029 l 232 1043 l 181 1029 l 143 1007 l 121 965 q 113 925 117 960 l 122 881 q 143 842 124 869 q 182 818 168 824 l 233 806 l 283 818 l 324 842 l 346 882 l 354 925 m 821 4 l 783 25 l 753 56 l 736 97 l 729 142 l 731 482 q 726 531 731 511 l 713 589 l 685 622 l 653 657 q 621 674 633 668 q 603 683 608 681 l 556 701 q 496 711 518 711 l 439 718 l 329 711 l 268 696 l 222 682 q 179 672 193 672 l 135 671 l 90 683 l 51 704 l 60 639 l 78 581 l 107 546 l 142 522 l 181 518 l 219 522 l 257 549 l 293 583 l 310 604 l 336 629 l 372 643 l 413 651 l 450 646 l 486 631 l 507 593 q 513 575 510 588 q 518 543 515 563 l 519 456 l 378 458 l 317 449 l 265 439 l 207 417 l 164 397 l 125 369 l 86 336 l 63 301 l 42 268 q 34 237 36 250 q 31 215 32 224 l 26 182 l 32 151 l 40 122 l 78 69 l 111 44 l 146 26 l 192 14 q 243 7 231 7 l 299 10 l 358 19 l 439 47 l 518 79 q 556 28 539 40 q 614 3 565 19 l 821 4 m 519 389 l 518 144 l 450 124 l 400 118 l 351 125 l 314 139 l 286 161 l 264 192 l 256 224 l 256 265 l 274 303 l 294 331 l 329 353 l 381 376 l 469 389 l 519 389 z "},"å":{"ha":844,"x_min":25,"x_max":819,"o":"m 535 925 l 524 965 l 503 1007 q 460 1031 460 1031 l 407 1043 l 353 1031 l 313 1007 l 290 967 l 281 925 l 290 882 q 301 861 296 871 q 313 842 306 851 q 339 826 332 829 l 354 818 l 408 806 l 461 818 l 503 842 l 524 882 q 529 898 526 888 q 535 925 532 908 m 819 4 l 782 25 l 751 56 l 735 97 l 728 142 l 729 482 q 725 531 729 511 l 711 589 l 683 622 l 651 657 q 619 674 632 668 q 601 683 607 681 l 554 701 q 494 711 517 711 l 438 718 l 328 711 l 267 696 l 221 682 q 178 672 192 672 l 133 671 l 89 683 l 50 704 l 58 639 l 76 581 l 106 546 l 140 522 l 179 518 l 218 522 l 256 549 l 292 583 l 308 604 l 335 629 l 371 643 l 411 651 l 449 646 l 485 631 l 506 593 q 511 575 508 588 q 517 543 514 563 l 518 456 l 376 458 l 315 449 l 264 439 l 206 417 l 163 397 l 124 369 l 85 336 l 61 301 l 40 268 q 33 237 35 250 q 29 215 31 224 l 25 182 l 31 151 l 39 122 l 76 69 l 110 44 l 144 26 l 190 14 q 242 7 229 7 l 297 10 l 357 19 l 438 47 l 517 79 q 554 28 538 40 q 613 3 564 19 l 819 4 m 469 894 l 443 875 l 407 863 l 369 874 l 346 894 l 340 925 l 340 936 l 346 956 l 372 975 l 408 988 l 443 974 l 469 956 l 475 925 l 469 894 m 518 389 l 517 144 l 449 124 l 399 118 l 350 125 l 313 139 l 285 161 l 263 192 l 254 224 l 254 265 l 272 303 l 293 331 l 328 353 l 379 376 l 468 389 l 518 389 z "},"æ":{"ha":1321,"x_min":28,"x_max":1294,"o":"m 521 389 l 519 144 l 451 124 l 401 118 l 353 125 l 315 139 l 288 161 l 265 192 l 257 224 l 257 265 l 275 303 l 296 331 l 331 353 l 382 376 l 471 389 l 521 389 m 1294 258 l 1254 281 l 1186 243 l 1119 208 l 1061 188 l 997 174 l 901 174 l 854 185 l 819 199 l 789 222 l 767 250 l 890 300 l 1007 361 l 1103 421 l 1149 456 l 1182 485 l 1214 515 l 1236 543 l 1197 592 l 1161 629 l 1114 656 l 1060 682 l 999 697 l 946 706 l 924 706 l 879 704 l 829 700 l 764 681 l 704 658 l 661 632 l 660 631 l 654 657 q 622 674 635 668 q 604 683 610 681 l 557 701 q 497 711 519 711 l 440 718 l 331 711 l 269 696 l 224 682 q 181 672 194 672 l 136 671 l 92 683 l 53 704 l 61 639 l 79 581 l 108 546 l 143 522 l 182 518 l 221 522 l 258 549 l 294 583 l 311 604 l 338 629 l 374 643 l 414 651 l 451 646 l 488 631 l 508 593 q 514 575 511 588 q 519 543 517 563 l 521 456 l 379 458 l 318 449 l 267 439 l 208 417 l 165 397 l 126 369 l 88 336 l 64 301 l 43 268 l 35 239 q 33 224 33 231 q 32 215 33 218 l 28 182 l 33 151 l 42 122 l 79 69 l 113 44 l 147 26 l 193 14 q 244 7 232 7 l 300 10 l 360 19 l 440 47 l 519 79 q 557 28 540 40 q 615 3 567 19 l 822 4 l 818 6 l 883 6 l 922 7 l 982 19 l 1038 36 l 1090 60 l 1143 90 l 1190 126 l 1232 165 l 1263 207 l 1294 258 m 1008 503 l 996 476 l 978 450 l 950 424 l 919 399 l 875 372 l 831 351 l 728 319 l 708 372 l 693 425 l 693 519 l 703 556 l 717 590 l 733 611 l 754 629 l 813 638 l 833 636 l 858 636 l 907 615 l 950 593 l 994 547 l 1006 531 q 1008 503 1008 519 z "},"ç":{"ha":753,"x_min":25,"x_max":728,"o":"m 728 267 q 694 247 710 256 q 665 231 679 238 l 600 197 l 546 182 l 494 174 l 444 174 l 393 182 l 351 200 l 310 221 l 278 249 l 250 279 l 224 328 l 208 363 l 194 422 q 192 442 193 429 q 192 476 192 456 l 199 521 l 213 564 l 238 593 l 272 621 l 319 638 q 375 649 329 640 l 449 633 l 506 601 q 524 563 517 578 q 532 540 531 547 q 536 478 536 528 l 579 503 l 617 533 l 644 578 l 668 629 q 670 649 669 642 q 671 658 671 656 l 671 700 l 669 739 l 633 714 l 597 699 l 564 699 l 522 703 l 435 718 l 419 718 l 381 717 l 324 717 l 251 699 l 203 681 l 151 644 l 113 610 l 78 558 l 54 515 l 36 457 l 25 407 l 25 369 l 26 324 l 29 279 l 43 232 l 67 174 l 101 124 l 133 88 l 174 57 l 232 26 q 264 17 250 21 q 289 13 278 14 l 363 4 l 433 10 l 492 22 l 543 46 l 599 76 l 640 114 l 679 160 l 706 213 l 728 267 m 500 -126 l 497 -81 l 485 -36 q 447 -7 456 -10 l 399 7 l 329 6 l 368 -19 l 397 -54 q 410 -92 410 -83 l 415 -128 l 404 -161 l 390 -192 l 363 -211 q 333 -226 361 -215 l 396 -224 l 449 -206 l 479 -168 q 500 -126 488 -158 z "},"è":{"ha":819,"x_min":25,"x_max":796,"o":"m 422 803 l 360 1043 l 121 1043 l 422 803 m 796 258 l 756 281 l 688 243 l 621 208 l 563 188 l 499 174 l 403 174 l 356 185 l 321 199 l 290 222 l 268 250 l 392 300 l 508 361 l 604 421 l 650 456 l 683 485 l 715 515 l 738 543 l 699 592 l 663 629 l 615 656 l 561 682 l 500 697 l 447 706 l 425 706 l 381 704 l 331 700 l 265 681 l 206 658 l 163 632 l 115 593 l 83 553 l 53 499 l 38 449 l 25 379 q 29 317 25 333 l 49 236 l 81 174 l 113 119 l 154 78 l 201 44 l 254 24 q 269 18 261 21 q 285 14 278 15 q 322 6 315 7 l 385 6 l 424 7 l 483 19 l 539 36 l 592 60 l 644 90 l 692 126 l 733 165 l 764 207 l 796 258 m 510 503 l 497 476 l 479 450 l 451 424 l 421 399 l 376 372 l 332 351 l 229 319 l 210 372 l 194 425 l 194 519 l 204 556 l 218 590 l 235 611 l 256 629 l 314 638 l 335 636 l 360 636 l 408 615 l 451 593 l 496 547 l 507 531 q 510 503 510 519 z "},"é":{"ha":818,"x_min":24,"x_max":794,"o":"m 646 1043 l 407 1043 l 349 803 l 646 1043 m 794 258 l 754 281 l 686 243 l 619 208 l 561 188 l 497 174 l 401 174 l 354 185 l 319 199 l 289 222 l 267 250 l 390 300 l 507 361 l 603 421 l 649 456 l 682 485 l 714 515 l 736 543 l 697 592 l 661 629 l 614 656 l 560 682 l 499 697 l 446 706 l 424 706 l 379 704 l 329 700 l 264 681 l 204 658 l 161 632 l 114 593 l 82 553 l 51 499 l 36 449 l 24 379 q 28 317 24 333 l 47 236 l 79 174 l 111 119 l 153 78 l 200 44 l 253 24 q 268 18 260 21 q 283 14 276 15 q 321 6 314 7 l 383 6 l 422 7 l 482 19 l 538 36 l 590 60 l 643 90 l 690 126 l 732 165 l 763 207 l 794 258 m 508 503 l 496 476 l 478 450 l 450 424 l 419 399 l 375 372 l 331 351 l 228 319 l 208 372 l 193 425 l 193 519 l 203 556 l 217 590 l 233 611 l 254 629 l 313 638 l 333 636 l 358 636 l 407 615 l 450 593 l 494 547 l 506 531 q 508 503 508 519 z "},"ê":{"ha":819,"x_min":25,"x_max":796,"o":"m 561 803 l 426 1043 l 335 1043 l 200 803 l 381 932 l 561 803 m 796 258 l 756 281 l 688 243 l 621 208 l 563 188 l 499 174 l 403 174 l 356 185 l 321 199 l 290 222 l 268 250 l 392 300 l 508 361 l 604 421 l 650 456 l 683 485 l 715 515 l 738 543 l 699 592 l 663 629 l 615 656 l 561 682 l 500 697 l 447 706 l 425 706 l 381 704 l 331 700 l 265 681 l 206 658 l 163 632 l 115 593 l 83 553 l 53 499 l 38 449 l 25 379 q 29 317 25 333 l 49 236 l 81 174 l 113 119 l 154 78 l 201 44 l 254 24 q 269 18 261 21 q 285 14 278 15 q 322 6 315 7 l 385 6 l 424 7 l 483 19 l 539 36 l 592 60 l 644 90 l 692 126 l 733 165 l 764 207 l 796 258 m 510 503 l 497 476 l 479 450 l 451 424 l 421 399 l 376 372 l 332 351 l 229 319 l 210 372 l 194 425 l 194 519 l 204 556 l 218 590 l 235 611 l 256 629 l 314 638 l 335 636 l 360 636 l 408 615 l 451 593 l 496 547 l 507 531 q 510 503 510 519 z "},"ë":{"ha":822,"x_min":26,"x_max":797,"o":"m 672 925 l 661 965 l 640 1007 q 600 1032 601 1031 l 549 1043 l 496 1031 l 457 1007 l 436 967 l 426 925 l 435 888 l 457 842 l 497 818 l 550 806 l 600 818 l 640 842 l 661 882 q 667 898 664 888 q 672 925 669 908 m 333 925 l 324 967 l 304 1007 q 265 1031 274 1029 l 213 1043 l 161 1031 l 122 1007 l 99 965 l 93 925 l 101 881 l 122 842 l 161 818 l 214 806 l 264 818 l 304 842 l 328 890 l 333 925 m 797 258 l 757 281 l 689 243 l 622 208 l 564 188 l 500 174 l 404 174 l 357 185 l 322 199 l 292 222 l 269 250 l 393 300 l 510 361 l 606 421 l 651 456 l 685 485 l 717 515 l 739 543 l 700 592 l 664 629 l 617 656 l 563 682 l 501 697 l 449 706 l 426 706 l 382 704 l 332 700 l 267 681 l 207 658 l 164 632 l 117 593 l 85 553 l 54 499 l 39 449 l 26 379 q 31 317 26 333 l 50 236 l 82 174 l 114 119 l 156 78 l 203 44 l 256 24 q 271 18 263 21 q 286 14 279 15 q 324 6 317 7 l 386 6 l 425 7 l 485 19 l 540 36 l 593 60 l 646 90 l 693 126 l 735 165 l 765 207 l 797 258 m 511 503 l 499 476 l 481 450 l 453 424 l 422 399 l 378 372 l 333 351 l 231 319 l 211 372 l 196 425 l 196 519 l 206 556 l 219 590 l 236 611 l 257 629 l 315 638 l 336 636 l 361 636 l 410 615 l 453 593 l 497 547 l 508 531 q 511 503 511 519 z "},"ì":{"ha":500,"x_min":24,"x_max":476,"o":"m 321 803 l 260 1043 l 24 1043 l 321 803 m 476 50 l 426 54 l 410 63 l 397 78 l 390 103 l 388 721 l 289 704 l 167 664 l 111 636 l 60 606 l 107 600 l 138 576 l 146 549 l 149 143 l 140 92 l 125 61 l 88 49 l 58 49 l 58 3 l 475 3 l 476 50 z "},"í":{"ha":536,"x_min":24,"x_max":513,"o":"m 513 1043 l 272 1043 l 215 803 l 513 1043 m 442 50 l 392 54 l 375 63 l 363 78 l 356 103 l 353 721 l 254 704 l 132 664 l 76 636 l 25 606 l 72 600 l 103 576 l 111 549 l 114 143 l 106 92 l 90 61 l 53 49 l 24 49 l 24 3 l 440 3 l 442 50 z "},"î":{"ha":474,"x_min":25,"x_max":450,"o":"m 386 803 l 251 1043 l 160 1043 l 25 803 l 206 932 l 386 803 m 450 50 l 400 54 l 383 63 l 371 78 l 364 103 l 361 721 l 263 704 l 140 664 l 85 636 l 33 606 l 81 600 l 111 576 l 119 549 l 122 143 l 114 92 l 99 61 l 61 49 l 32 49 l 32 3 l 449 3 l 450 50 z "},"ï":{"ha":628,"x_min":25,"x_max":603,"o":"m 603 925 l 592 965 l 571 1007 q 531 1032 532 1031 l 479 1043 l 426 1031 l 388 1007 l 367 967 l 357 925 l 365 888 l 388 842 l 428 818 l 481 806 l 531 818 l 571 842 l 592 882 q 597 898 594 888 q 603 925 600 908 m 264 925 l 254 967 l 233 1007 q 194 1031 203 1028 l 143 1043 l 92 1029 l 56 1007 l 33 965 q 25 925 29 960 l 35 881 q 56 842 36 869 q 74 829 65 835 q 93 818 83 824 l 144 806 l 193 818 l 233 842 l 256 882 l 264 925 m 517 50 l 467 54 l 450 63 l 438 78 l 431 103 l 428 721 l 329 704 l 207 664 l 151 636 l 100 606 l 147 600 l 178 576 l 186 549 l 189 143 l 181 92 l 165 61 l 128 49 l 99 49 l 99 3 l 515 3 l 517 50 z "},"ð":{"ha":879,"x_min":15,"x_max":853,"o":"m 525 606 l 524 203 l 456 168 q 406 151 439 160 l 356 153 l 321 161 l 289 188 l 269 215 l 256 258 l 247 299 l 247 317 l 249 350 l 257 410 l 269 453 l 292 504 l 324 547 l 350 578 q 389 601 375 596 l 428 617 l 451 617 l 483 613 l 525 606 m 188 1163 l 114 1168 l 104 1021 l 31 992 l 15 889 l 99 915 l 92 790 l 163 783 l 172 939 l 226 956 l 514 915 l 522 888 l 525 668 q 478 685 499 679 l 449 693 q 388 701 414 699 l 319 690 l 267 675 l 208 640 l 164 607 l 126 563 q 56 438 76 504 l 33 368 l 25 326 q 24 290 24 322 l 24 246 l 35 194 l 56 135 l 86 92 l 131 49 q 181 25 167 29 l 257 3 l 524 142 l 524 3 l 851 3 l 853 50 l 803 54 l 786 63 l 774 78 l 754 976 l 517 1039 l 229 1071 l 181 1051 l 188 1163 z "},"ñ":{"ha":881,"x_min":24,"x_max":857,"o":"m 636 997 l 593 968 q 547 954 586 963 l 508 957 l 471 971 l 429 992 l 394 1014 l 360 1031 l 325 1043 l 297 1038 l 269 1022 l 243 971 l 222 906 l 263 931 q 310 946 275 938 l 349 938 l 385 926 l 460 882 l 493 867 l 529 854 l 557 861 l 585 879 l 611 932 l 636 997 m 857 347 l 846 453 l 831 496 l 808 546 l 779 586 l 740 629 l 692 658 l 629 689 l 351 543 l 353 690 l 256 672 l 190 651 l 132 632 l 78 603 l 25 569 l 74 568 q 103 544 93 558 l 111 515 l 114 143 l 106 92 l 90 61 l 53 49 l 24 49 l 24 3 l 440 3 l 442 50 l 417 50 l 393 54 q 363 78 375 64 l 356 103 l 351 142 l 351 481 l 519 536 q 614 432 578 482 l 631 385 l 639 329 l 629 275 l 614 225 l 563 121 l 533 69 l 508 18 l 486 -31 l 471 -82 l 471 -122 l 472 -150 l 476 -183 l 506 -235 l 546 -285 l 540 -253 q 538 -222 536 -228 l 542 -172 l 561 -131 q 572 -112 564 -122 q 590 -90 585 -94 l 625 -57 l 744 46 l 779 97 l 808 151 l 829 193 l 847 261 l 857 347 z "},"ò":{"ha":774,"x_min":25,"x_max":749,"o":"m 464 803 l 401 1043 l 164 1043 l 464 803 m 749 364 l 742 418 l 735 463 l 711 513 l 683 569 l 611 646 l 563 674 l 494 703 l 446 713 l 369 721 l 293 693 l 250 674 l 210 643 l 181 611 q 165 563 165 572 l 165 536 l 178 497 l 194 461 l 221 436 l 250 417 l 281 411 q 294 409 288 410 q 304 408 300 408 l 322 408 l 363 421 l 406 443 l 367 453 l 339 468 l 328 499 l 332 524 l 357 549 q 400 575 367 558 l 461 575 l 551 565 q 594 539 590 544 l 632 506 l 653 456 q 657 427 656 439 q 660 408 658 415 l 649 356 l 629 304 l 594 264 l 556 231 l 517 214 q 504 210 510 211 q 493 207 499 208 q 431 197 478 201 q 374 201 388 197 l 315 218 l 269 243 l 232 271 l 192 311 l 164 353 l 146 390 q 134 427 139 413 q 126 451 129 442 l 124 489 l 125 544 l 142 596 l 160 642 l 133 626 l 111 610 l 88 578 l 68 549 l 50 506 l 39 468 l 25 375 l 26 313 l 33 263 l 50 215 l 69 169 l 90 139 l 133 90 l 172 61 l 229 32 q 301 13 279 14 l 361 4 l 433 10 l 496 22 l 565 51 l 615 81 l 654 117 l 688 156 l 713 203 l 738 263 l 747 313 l 749 364 z "},"ó":{"ha":772,"x_min":24,"x_max":747,"o":"m 688 1043 l 449 1043 l 390 803 l 688 1043 m 747 364 l 740 418 l 733 463 l 710 513 l 682 569 l 610 646 l 561 674 l 493 703 l 444 713 l 368 721 l 292 693 l 249 674 l 208 643 l 179 611 q 164 563 164 572 l 164 536 l 176 497 l 193 461 l 219 436 l 249 417 l 279 411 q 292 409 286 410 q 303 408 299 408 l 321 408 l 361 421 l 404 443 l 365 453 l 338 468 l 326 499 l 331 524 l 356 549 q 399 575 365 558 l 460 575 l 550 565 q 593 539 589 544 l 631 506 l 651 456 q 656 427 654 439 q 658 408 657 415 l 647 356 l 628 304 l 593 264 l 554 231 l 515 214 q 503 210 508 211 q 492 207 497 208 q 429 197 476 201 q 372 201 386 197 l 314 218 l 268 243 l 231 271 l 190 311 l 163 353 l 144 390 q 133 427 138 413 q 125 451 128 442 l 122 489 l 124 544 l 140 596 l 158 642 l 132 626 l 110 610 l 86 578 l 67 549 l 49 506 l 38 468 l 24 375 l 25 313 l 32 263 l 49 215 l 68 169 l 89 139 l 132 90 l 171 61 l 228 32 q 300 13 278 14 l 360 4 l 432 10 l 494 22 l 564 51 l 614 81 l 653 117 l 686 156 l 711 203 l 736 263 l 746 313 l 747 364 z "},"ô":{"ha":774,"x_min":25,"x_max":749,"o":"m 579 803 l 444 1043 l 353 1043 l 218 803 l 399 932 l 579 803 m 749 364 l 742 418 l 735 463 l 711 513 l 683 569 l 611 646 l 563 674 l 494 703 l 446 713 l 369 721 l 293 693 l 250 674 l 210 643 l 181 611 q 165 563 165 572 l 165 536 l 178 497 l 194 461 l 221 436 l 250 417 l 281 411 q 294 409 288 410 q 304 408 300 408 l 322 408 l 363 421 l 406 443 l 367 453 l 339 468 l 328 499 l 332 524 l 357 549 q 400 575 367 558 l 461 575 l 551 565 q 594 539 590 544 l 632 506 l 653 456 q 657 427 656 439 q 660 408 658 415 l 649 356 l 629 304 l 594 264 l 556 231 l 517 214 q 504 210 510 211 q 493 207 499 208 q 431 197 478 201 q 374 201 388 197 l 315 218 l 269 243 l 232 271 l 192 311 l 164 353 l 146 390 q 134 427 139 413 q 126 451 129 442 l 124 489 l 125 544 l 142 596 l 160 642 l 133 626 l 111 610 l 88 578 l 68 549 l 50 506 l 39 468 l 25 375 l 26 313 l 33 263 l 50 215 l 69 169 l 90 139 l 133 90 l 172 61 l 229 32 q 301 13 279 14 l 361 4 l 433 10 l 496 22 l 565 51 l 615 81 l 654 117 l 688 156 l 713 203 l 738 263 l 747 313 l 749 364 z "},"õ":{"ha":774,"x_min":25,"x_max":749,"o":"m 624 997 l 581 968 q 536 954 575 963 l 497 957 l 460 971 l 418 992 l 382 1014 l 314 1043 l 286 1038 l 258 1022 l 231 971 l 210 906 l 250 931 q 297 946 263 938 l 336 938 l 372 926 l 449 882 l 481 867 l 517 854 l 544 861 l 572 879 l 599 932 l 624 997 m 749 364 l 742 418 l 735 463 l 711 513 l 683 569 l 611 646 l 563 674 l 494 703 l 446 713 l 369 721 l 293 693 l 250 674 l 210 643 l 181 611 q 165 563 165 572 l 165 536 l 178 497 l 194 461 l 221 436 l 250 417 l 281 411 q 294 409 288 410 q 304 408 300 408 l 322 408 l 363 421 l 406 443 l 367 453 l 339 468 l 328 499 l 332 524 l 357 549 q 400 575 367 558 l 461 575 l 551 565 q 594 539 590 544 l 632 506 l 653 456 q 657 427 656 439 q 660 408 658 415 l 649 356 l 629 304 l 594 264 l 556 231 l 517 214 q 504 210 510 211 q 493 207 499 208 q 431 197 478 201 q 374 201 388 197 l 315 218 l 269 243 l 232 271 l 192 311 l 164 353 l 146 390 q 134 427 139 413 q 126 451 129 442 l 124 489 l 125 544 l 142 596 l 160 642 l 133 626 l 111 610 l 88 578 l 68 549 l 50 506 l 39 468 l 25 375 l 26 313 l 33 263 l 50 215 l 69 169 l 90 139 l 133 90 l 172 61 l 229 32 q 301 13 279 14 l 361 4 l 433 10 l 496 22 l 565 51 l 615 81 l 654 117 l 688 156 l 713 203 l 738 263 l 747 313 l 749 364 z "},"ö":{"ha":776,"x_min":26,"x_max":750,"o":"m 707 925 l 696 965 l 675 1007 q 633 1031 642 1029 l 582 1043 l 531 1031 l 492 1007 l 471 967 l 461 925 l 469 888 l 492 842 l 531 818 l 583 806 l 635 818 l 675 842 l 696 882 q 701 898 699 888 q 707 925 704 908 m 368 925 l 358 967 l 338 1007 q 299 1032 307 1029 l 249 1044 l 196 1031 q 157 1007 182 1025 l 135 965 q 126 925 131 960 l 136 881 q 157 842 138 869 l 196 818 l 249 806 l 297 818 l 338 842 l 360 882 l 368 925 m 750 364 l 743 418 l 736 463 l 713 513 l 685 569 l 613 646 l 564 674 l 496 703 l 447 713 l 371 721 l 294 693 l 251 674 l 211 643 l 182 611 q 167 563 167 572 l 167 536 l 179 497 l 196 461 l 222 436 l 251 417 l 282 411 q 295 409 289 410 q 306 408 301 408 l 324 408 l 364 421 l 407 443 l 368 453 l 340 468 l 329 499 l 333 524 l 358 549 q 401 575 368 558 l 463 575 l 553 565 q 596 539 592 544 l 633 506 l 654 456 q 658 427 657 439 q 661 408 660 415 l 650 356 l 631 304 l 596 264 l 557 231 l 518 214 q 506 210 511 211 q 494 207 500 208 q 432 197 479 201 q 375 201 389 197 l 317 218 l 271 243 l 233 271 l 193 311 l 165 353 l 147 390 q 135 427 140 413 q 128 451 131 442 l 125 489 l 126 544 l 143 596 l 161 642 l 135 626 l 113 610 l 89 578 l 69 549 l 51 506 l 40 468 l 26 375 l 28 313 l 35 263 l 51 215 l 71 169 l 92 139 l 135 90 l 174 61 l 231 32 q 303 13 281 14 l 363 4 l 435 10 l 497 22 l 567 51 l 617 81 l 656 117 l 689 156 l 714 203 l 739 263 l 749 313 l 750 364 z "},"÷":{"ha":588,"x_min":28,"x_max":553,"o":"m 553 326 l 553 476 l 28 476 l 28 326 l 553 326 m 169 679 q 179 633 169 654 q 206 595 189 611 q 244 570 222 579 q 292 561 267 561 q 335 571 314 561 q 374 597 357 581 q 400 635 390 614 q 410 679 410 656 q 400 726 410 704 q 374 764 390 747 q 337 790 358 781 q 290 800 315 800 q 244 790 265 800 q 206 765 222 781 q 179 726 189 749 q 169 679 169 704 m 169 121 q 179 74 169 96 q 206 36 189 53 q 244 10 222 19 q 292 0 267 0 q 374 38 338 0 q 410 121 410 76 q 400 166 410 144 q 374 203 390 188 q 337 229 358 219 q 290 239 315 239 q 244 230 265 239 q 206 205 222 221 q 179 167 189 189 q 169 121 169 146 z "},"ø":{"ha":858,"x_min":26,"x_max":856,"o":"m 643 483 l 654 456 q 658 427 657 439 q 661 408 660 415 l 650 356 l 631 304 l 596 264 l 557 231 l 518 214 q 506 210 511 211 q 494 207 500 208 q 432 197 479 201 q 404 198 417 197 q 385 200 392 199 l 643 483 m 203 0 l 232 32 q 303 13 282 14 l 363 4 l 435 10 l 497 22 l 567 51 l 617 81 l 656 117 l 689 156 l 714 203 l 739 263 l 749 313 l 750 364 l 743 418 l 736 463 l 713 513 l 697 543 l 856 717 l 724 718 l 636 621 l 613 646 l 564 674 l 496 703 l 447 713 l 371 721 l 294 693 l 251 674 l 211 643 l 182 611 q 167 563 167 572 l 167 536 l 179 497 l 196 461 l 222 436 l 251 417 l 282 411 q 295 409 289 410 q 306 408 301 408 l 324 408 l 364 421 l 407 443 l 368 453 l 340 468 l 329 499 l 333 524 l 358 549 q 401 575 368 558 l 463 575 l 553 565 q 575 554 568 557 l 285 236 l 271 243 l 233 271 l 193 311 l 165 353 l 147 390 q 135 427 140 413 q 128 451 131 442 l 125 489 l 126 544 l 143 596 l 161 642 l 135 626 l 113 610 l 89 578 l 69 549 l 51 506 l 40 468 l 26 375 l 28 313 l 35 263 l 51 215 l 71 169 l 92 139 l 135 90 l 144 82 l 69 0 l 203 0 z "},"ù":{"ha":879,"x_min":25,"x_max":856,"o":"m 488 803 l 425 1043 l 188 1043 l 488 803 m 856 50 l 806 54 l 789 63 l 776 78 l 768 103 l 767 699 l 668 675 l 546 632 l 492 603 l 439 569 q 475 565 463 569 l 504 558 q 519 531 518 539 q 526 481 526 503 l 528 213 q 482 178 499 188 l 449 160 q 427 156 438 157 q 407 153 417 154 l 381 151 l 353 151 l 317 164 l 288 182 l 256 214 l 238 256 l 239 292 l 250 332 l 292 424 l 310 467 l 325 519 l 325 546 l 321 575 l 314 608 l 274 658 l 221 704 l 115 606 l 149 588 l 174 569 l 183 542 l 185 513 l 172 476 l 157 440 l 100 358 l 68 322 l 40 282 q 35 261 38 271 q 29 244 32 251 l 25 207 l 32 167 l 46 129 l 71 96 l 106 64 l 160 35 l 196 22 l 261 10 l 329 3 l 526 142 l 526 3 l 854 3 l 856 50 z "},"ú":{"ha":879,"x_min":24,"x_max":854,"o":"m 688 1043 l 449 1043 l 390 803 l 688 1043 m 854 50 l 804 54 l 788 63 l 775 78 l 767 103 l 765 699 l 667 675 l 544 632 l 490 603 l 438 569 q 474 565 461 569 l 503 558 q 518 531 517 539 q 525 481 525 503 l 526 213 q 481 178 497 188 l 447 160 q 426 156 436 157 q 406 153 415 154 l 379 151 l 351 151 l 315 164 l 286 182 l 254 214 l 236 256 l 238 292 l 249 332 l 290 424 l 308 467 l 324 519 l 324 546 l 319 575 l 313 608 l 272 658 l 219 704 l 114 606 l 147 588 l 172 569 l 182 542 l 183 513 l 171 476 l 156 440 l 99 358 l 67 322 l 39 282 q 33 261 36 271 q 28 244 31 251 l 24 207 l 31 167 l 44 129 l 69 96 l 104 64 l 158 35 l 194 22 l 260 10 l 328 3 l 525 142 l 525 3 l 853 3 l 854 50 z "},"û":{"ha":881,"x_min":25,"x_max":856,"o":"m 635 803 l 501 1043 l 408 1043 l 274 803 l 454 932 l 635 803 m 856 50 l 806 54 l 789 63 l 776 78 l 768 103 l 767 699 l 668 675 l 546 632 l 492 603 l 439 569 q 475 565 463 569 l 504 558 q 519 531 518 539 q 526 481 526 503 l 528 213 q 482 178 499 188 l 449 160 q 427 156 438 157 q 407 153 417 154 l 381 151 l 353 151 l 317 164 l 288 182 l 256 214 l 238 256 l 239 292 l 250 332 l 292 424 l 310 467 l 325 519 l 325 546 l 321 575 l 314 608 l 274 658 l 221 704 l 115 606 l 149 588 l 174 569 l 183 542 l 185 513 l 172 476 l 157 440 l 100 358 l 68 322 l 40 282 q 35 261 38 271 q 29 244 32 251 l 25 207 l 32 167 l 46 129 l 71 96 l 106 64 l 160 35 l 196 22 l 261 10 l 329 3 l 526 142 l 526 3 l 854 3 l 856 50 z "},"ü":{"ha":882,"x_min":26,"x_max":857,"o":"m 715 925 l 704 965 l 683 1007 q 642 1031 650 1029 l 590 1043 l 538 1031 l 499 1007 l 478 967 l 468 925 l 476 888 l 499 842 l 539 818 l 592 806 l 643 818 l 683 842 l 704 882 q 710 898 707 888 q 715 925 713 908 m 376 925 l 367 967 l 346 1007 q 307 1031 315 1029 l 254 1043 l 203 1029 l 165 1007 l 143 965 q 135 925 139 960 l 144 881 q 165 842 146 869 q 204 818 190 824 l 256 806 l 306 818 l 346 842 l 368 882 l 376 925 m 857 50 l 807 54 l 790 63 l 778 78 l 769 103 l 768 699 l 669 675 l 547 632 l 493 603 l 440 569 q 476 565 464 569 l 506 558 q 521 531 519 539 q 528 481 528 503 l 529 213 q 483 178 500 188 l 450 160 q 428 156 439 157 q 408 153 418 154 l 382 151 l 354 151 l 318 164 l 289 182 l 257 214 l 239 256 l 240 292 l 251 332 l 293 424 l 311 467 l 326 519 l 326 546 l 322 575 l 315 608 l 275 658 l 222 704 l 117 606 l 150 588 l 175 569 l 185 542 l 186 513 l 174 476 l 158 440 l 101 358 l 69 322 l 42 282 q 36 261 39 271 q 31 244 33 251 l 26 207 l 33 167 l 47 129 l 72 96 l 107 64 l 161 35 l 197 22 l 263 10 l 331 3 l 528 142 l 528 3 l 856 3 l 857 50 z "},"ý":{"ha":824,"x_min":24,"x_max":801,"o":"m 685 1043 l 446 1043 l 388 803 l 685 1043 m 801 728 l 724 689 l 651 663 l 597 649 q 578 645 586 646 q 565 643 571 644 l 525 643 l 547 628 l 572 604 l 593 542 l 594 453 l 574 353 l 540 260 l 514 207 l 489 165 l 453 197 l 429 229 l 408 274 l 394 315 l 371 414 l 351 522 l 329 607 l 292 669 q 276 680 282 676 q 267 685 269 683 l 235 696 l 24 589 l 75 579 l 111 564 l 140 526 l 163 489 l 181 431 l 222 246 l 236 192 l 260 132 l 285 89 l 328 46 l 374 22 l 439 4 l 406 -53 q 363 -96 396 -67 l 296 -118 q 278 -123 285 -121 q 269 -126 272 -125 q 251 -129 261 -128 q 229 -133 240 -131 l 106 -140 l 107 -339 q 172 -335 147 -339 l 224 -326 l 268 -304 l 314 -278 l 346 -246 q 392 -190 368 -224 l 460 -56 l 801 728 z "},"þ":{"ha":876,"x_min":19,"x_max":853,"o":"m 853 376 l 844 425 l 831 482 l 808 526 l 779 575 l 747 608 l 706 643 q 664 660 688 653 q 613 674 640 667 l 354 543 l 347 1061 l 249 1044 l 194 1029 l 126 1008 l 82 983 l 19 938 l 68 932 l 99 908 l 113 521 q 115 511 113 522 l 117 -207 l 108 -251 l 94 -283 l 65 -293 l 26 -294 l 26 -340 l 446 -340 l 447 -292 l 408 -290 l 378 -283 l 361 -253 l 354 -210 l 356 4 l 467 6 l 549 15 l 631 40 l 690 67 l 744 108 l 785 149 l 818 203 l 838 250 l 850 313 q 852 328 851 319 q 853 349 853 338 l 853 376 m 656 326 l 646 268 l 636 217 l 618 179 l 593 139 l 563 108 l 536 88 l 501 69 l 468 60 l 440 56 l 411 56 l 369 67 q 356 93 361 74 l 354 481 l 406 500 l 457 513 l 513 510 l 556 503 q 592 478 583 488 l 625 443 l 644 390 q 650 367 647 383 q 656 326 653 351 z "},"ÿ":{"ha":826,"x_min":25,"x_max":803,"o":"m 711 925 l 700 965 l 679 1007 q 638 1031 646 1029 l 586 1043 l 533 1031 l 494 1007 l 474 967 l 464 925 l 472 888 l 494 842 l 535 818 l 588 806 l 639 818 l 679 842 l 700 882 q 706 898 703 888 q 711 925 708 908 m 372 925 l 363 967 l 342 1007 q 303 1031 311 1029 l 250 1043 l 199 1029 l 161 1007 l 139 965 q 131 925 135 960 l 140 881 q 161 842 142 869 q 200 818 186 824 l 251 806 l 301 818 l 342 842 l 364 882 l 372 925 m 803 728 l 725 689 l 653 663 l 599 649 q 580 645 588 646 q 567 643 572 644 l 526 643 l 549 628 l 574 604 l 594 542 l 596 453 l 575 353 l 542 260 l 515 207 l 490 165 l 454 197 l 431 229 l 410 274 l 396 315 l 372 414 l 353 522 l 331 607 l 293 669 q 277 680 283 676 q 268 685 271 683 l 236 696 l 25 589 l 76 579 l 113 564 l 142 526 l 164 489 l 182 431 l 224 246 l 238 192 l 261 132 l 286 89 l 329 46 l 375 22 l 440 4 l 407 -53 q 364 -96 397 -67 l 297 -118 q 280 -123 286 -121 q 271 -126 274 -125 q 252 -129 263 -128 q 231 -133 242 -131 l 107 -140 l 108 -339 q 174 -335 149 -339 l 225 -326 l 269 -304 l 315 -278 l 347 -246 q 393 -190 369 -224 l 461 -56 l 803 728 z "},"":{"ha":618,"x_min":57,"x_max":593,"o":"m 144 819 l 146 143 l 138 92 l 124 61 l 86 49 l 57 49 l 57 3 l 472 3 l 474 50 l 424 54 q 393 78 406 64 l 386 103 l 385 736 l 378 785 l 368 824 l 335 871 l 324 894 l 315 929 l 319 958 q 336 982 324 969 l 367 990 l 393 992 q 410 975 404 981 q 417 968 415 969 q 424 955 419 965 q 435 929 428 944 l 450 893 l 471 868 l 500 854 l 528 853 l 554 863 l 579 876 l 590 897 q 593 914 593 908 l 593 929 l 569 978 l 546 1010 l 513 1028 l 464 1050 l 421 1056 l 356 1056 l 304 1043 l 250 1019 l 211 985 l 178 946 l 157 889 q 144 819 151 872 z "},"":{"ha":926,"x_min":89,"x_max":838,"o":"m 838 501 l 89 501 l 89 350 l 838 350 l 838 501 z "},"":{"ha":1981,"x_min":15,"x_max":1965,"o":"m 1965 -51 l 1965 1111 l 15 1111 l 15 -51 l 1965 -51 m 1931 781 q 1900 711 1931 740 q 1829 682 1869 682 l 1626 682 q 1578 619 1578 682 l 1578 200 q 1604 142 1578 158 l 1604 64 q 1504 183 1504 86 l 1504 631 q 1664 764 1504 764 q 1731 760 1686 764 q 1771 758 1754 758 q 1799 757 1788 757 q 1854 786 1854 757 q 1797 813 1854 813 q 1769 812 1786 813 q 1731 810 1753 811 q 1692 808 1708 808 q 1665 807 1676 807 q 1504 929 1504 807 l 1504 1111 l 1583 1111 l 1583 929 q 1635 881 1583 881 l 1840 881 q 1904 851 1878 881 q 1931 781 1931 822 m 1393 189 q 1360 101 1393 135 q 1274 67 1328 67 l 882 67 q 813 94 840 67 q 785 164 785 122 q 810 236 785 207 q 875 265 835 265 l 1263 265 l 1263 192 l 888 192 q 860 167 860 192 q 890 138 860 138 l 1238 138 q 1322 200 1322 138 l 1322 306 q 1260 368 1322 368 l 913 368 q 819 403 854 368 q 785 496 785 438 l 785 619 q 822 722 785 682 q 921 761 858 761 l 1263 761 q 1386 656 1368 761 l 1317 656 q 1257 685 1289 685 l 918 685 q 861 625 861 685 l 861 493 q 918 442 861 442 l 1260 442 q 1358 410 1322 442 q 1393 319 1393 378 l 1393 189 m 689 1111 l 688 161 q 658 89 688 119 q 586 58 628 58 q 514 89 542 58 q 486 165 486 119 q 485 310 486 251 q 483 400 485 368 q 363 529 481 413 l 231 658 q 193 678 211 678 q 169 669 179 678 q 158 625 158 632 l 158 194 q 207 135 158 135 l 319 135 q 354 164 338 143 l 428 164 q 321 64 408 64 l 207 64 q 85 197 85 64 l 85 656 q 121 726 85 699 q 199 750 153 750 q 271 724 244 750 l 519 478 q 563 374 563 435 l 563 164 q 589 135 563 135 q 606 145 597 135 q 614 164 614 156 l 611 1111 l 689 1111 z "}}}
